<?xml version="1.0" standalone="no"?>
<!DOCTYPE svg PUBLIC "-//W3C//DTD SVG 1.1//EN" "http://www.w3.org/Graphics/SVG/1.1/DTD/svg11.dtd" >
<svg>
<metadata>
Created by FontForge 20120731 at Tue Jul 18 09:43:47 2017
 By www-data
(c) Copyright 1999-2005 Bitstream/Galapagos Design Group. All rights reserved.
</metadata>
<defs>
<font id="FuturaBk-Italic" horiz-adv-x="1182" >
  <font-face 
    font-family="Futura Bk"
    font-weight="400"
    font-style="italic"
    font-stretch="normal"
    units-per-em="2048"
    panose-1="2 11 5 2 2 2 4 9 3 3"
    ascent="1556"
    descent="-492"
    x-height="956"
    cap-height="1544"
    bbox="-365 -553 2529 2149"
    underline-thickness="131"
    underline-position="-201"
    slope="-9"
    unicode-range="U+0020-FB02"
  />
<missing-glyph horiz-adv-x="1229" 
d="M102 -362v1806h1024v-1806h-1024zM217 -248h795v1577h-795v-1577z" />
    <glyph glyph-name=".notdef" horiz-adv-x="1229" 
d="M102 -362v1806h1024v-1806h-1024zM217 -248h795v1577h-795v-1577z" />
    <glyph glyph-name="NULL" horiz-adv-x="0" 
 />
    <glyph glyph-name="nonmarkingreturn" horiz-adv-x="631" 
 />
    <glyph glyph-name="space" unicode=" " horiz-adv-x="631" 
 />
    <glyph glyph-name="exclam" unicode="!" horiz-adv-x="692" 
d="M672 1544l-183 -1153h-165l182 1153h166zM479 88q-7 -49 -47.5 -84t-89.5 -35q-44 0 -73 29t-29 72q0 3 1 9t1 9q7 49 47.5 84t89.5 35q44 0 73 -28.5t29 -72.5q0 -3 -1 -9t-1 -9z" />
    <glyph glyph-name="quotedbl" unicode="&#x22;" horiz-adv-x="936" 
d="M965 1544l-88 -565h-129l88 565h129zM586 1544l-88 -565h-127l88 565h127z" />
    <glyph glyph-name="numbersign" unicode="#" horiz-adv-x="1262" 
d="M1384 1049l-43 -107h-225l-158 -344h250l-41 -106h-249l-224 -492h-129l226 492h-299l-228 -492h-127l223 492h-239l43 106h237l158 344h-266l43 107h264l221 495h127l-221 -495h301l221 495h127l-219 -495h227zM987 942h-303l-154 -344h301z" />
    <glyph glyph-name="dollar" unicode="$" horiz-adv-x="1262" 
d="M1202 1370l-133 -98q-26 57 -72 88.5t-108 36.5l-80 -506q166 -81 242.5 -175t76.5 -216q0 -18 -1.5 -36t-4.5 -36q-27 -177 -152 -296t-302 -132l-33 -211h-92l32 211q-142 4 -240 72t-142 192l139 94q24 -92 95.5 -147.5t172.5 -58.5l94 600q-160 80 -233.5 166.5
t-73.5 195.5q0 25 1 38t3 24q23 146 143.5 251.5t284.5 116.5l25 146h92l-24 -146q97 -3 169.5 -46t120.5 -128zM797 1397q-88 -10 -157.5 -74t-82.5 -143q-1 -7 -1.5 -14.5t-0.5 -20.5q0 -64 41.5 -117t126.5 -98zM954 419q3 17 3.5 27t0.5 19q0 76 -44 137t-134 109
l-88 -559q106 14 175.5 85.5t86.5 181.5z" />
    <glyph glyph-name="percent" unicode="%" horiz-adv-x="1632" 
d="M969 1208q-23 -147 -142 -252.5t-262 -105.5q-127 0 -212 86t-85 215q0 10 1 23t3 34q23 147 142.5 252t263.5 105q128 0 211.5 -85.5t83.5 -213.5q0 -23 -1 -35t-3 -23zM1597 1544l-1200 -1544h-118l1200 1544h118zM1604 338q-23 -147 -143 -252.5t-263 -105.5
q-127 0 -211 85.5t-84 215.5q0 22 1 34t3 23q23 147 142.5 251.5t263.5 104.5q127 0 211 -85t84 -214q0 -23 -1 -34.5t-3 -22.5zM834 1209l3 25.5t1 14.5q0 83 -51 137t-130 54q-89 0 -162.5 -67.5t-88.5 -164.5q-3 -13 -4 -22t-1 -17q0 -82 53 -137t132 -55q88 0 160 67.5
t88 164.5zM1468 337q3 19 3.5 27t1.5 15q0 83 -51 136.5t-130 53.5q-88 0 -162 -67.5t-90 -163.5v-5q-4 -24 -4 -34q0 -83 52 -138t131 -55q88 0 161 68t88 163z" />
    <glyph glyph-name="ampersand" unicode="&#x26;" horiz-adv-x="1423" 
d="M1427 598q-56 -76 -118.5 -148t-128.5 -139l198 -311h-198l-129 197q-134 -114 -257.5 -171t-238.5 -57q-182 0 -288.5 97.5t-106.5 259.5q0 18 1.5 37t4.5 39q21 132 122 242.5t326 238.5l-43 71q-51 88 -69.5 141t-18.5 105q0 23 1 35t3 22q23 139 132 228.5t266 89.5
q132 0 211.5 -73t79.5 -191q0 -8 -1 -19.5t-4 -34.5q-17 -114 -95.5 -208t-244.5 -193l273 -426q59 63 112 126t101 128zM1014 1252q1 6 1.5 12.5t0.5 19.5q0 66 -43 104.5t-115 38.5q-87 0 -143.5 -45.5t-69.5 -126.5q-1 -4 -1.5 -9.5t-0.5 -16.5q0 -39 18.5 -86t57.5 -109
l43 -67q127 77 183 140t69 145zM977 313l-289 459q-190 -114 -262 -189.5t-88 -180.5q-3 -21 -3.5 -30.5t-0.5 -17.5q0 -104 69.5 -167.5t182.5 -63.5q88 0 186 47.5t205 142.5z" />
    <glyph glyph-name="quotesingle" unicode="'" horiz-adv-x="592" 
d="M604 1544l-88 -565h-129l88 565h129z" />
    <glyph glyph-name="parenleft" unicode="(" horiz-adv-x="588" 
d="M745 1522q-144 -204 -239.5 -446t-138.5 -515q-16 -96 -23.5 -189t-7.5 -182q0 -165 26 -313t78 -278l-139 -60q-60 144 -90.5 306t-30.5 341q0 91 8 184.5t23 190.5q47 291 150.5 547t263.5 473z" />
    <glyph glyph-name="parenright" unicode=")" horiz-adv-x="588" 
d="M553 561q-47 -292 -151 -548.5t-263 -473.5l-119 60q144 202 238.5 444.5t138.5 517.5q16 98 23.5 192t7.5 183q0 162 -25.5 309t-76.5 277l137 59q60 -144 90.5 -305t30.5 -340q0 -91 -8 -184.5t-23 -190.5z" />
    <glyph glyph-name="asterisk" unicode="*" horiz-adv-x="1212" 
d="M1178 1305l-297 -148l249 -149l-73 -97l-236 168l-37 -311h-114l61 311l-289 -168l-41 97l299 149l-251 148l71 98l236 -170l37 311h114l-61 -311l289 170z" />
    <glyph glyph-name="plus" unicode="+" horiz-adv-x="1262" 
d="M1264 623l-21 -131h-467l-78 -492h-135l78 492h-467l21 131h467l77 489h135l-77 -489h467z" />
    <glyph glyph-name="comma" unicode="," horiz-adv-x="631" 
d="M461 170l-355 -528l-94 41l287 561z" />
    <glyph glyph-name="hyphen" unicode="-" horiz-adv-x="426" 
d="M494 621l-25 -156h-365l25 156h365z" />
    <glyph glyph-name="period" unicode="." horiz-adv-x="631" 
d="M449 88q-8 -49 -48.5 -84t-89.5 -35q-43 0 -72.5 29t-29.5 72q0 3 1 9t1 9q8 49 48 84t89 35q44 0 73.5 -28.5t29.5 -72.5q0 -2 -1 -8t-1 -10z" />
    <glyph glyph-name="slash" unicode="/" horiz-adv-x="1167" 
d="M1389 1649l-1348 -1956l-100 63l1345 1956z" />
    <glyph glyph-name="zero" unicode="0" horiz-adv-x="1262" 
d="M1292 772q-58 -368 -239.5 -585.5t-425.5 -217.5q-200 0 -315 155.5t-115 424.5q0 52 4.5 107.5t13.5 115.5q59 365 241 584t425 219q201 0 315.5 -153t114.5 -423q0 -51 -5 -108.5t-14 -118.5zM1129 775q9 56 13.5 108.5t4.5 99.5q0 208 -77 325t-214 117
q-164 0 -296.5 -183t-178.5 -472q-8 -58 -12 -107.5t-4 -93.5q0 -208 76 -329t208 -121q172 0 302 177t178 479z" />
    <glyph glyph-name="one" unicode="1" horiz-adv-x="1262" 
d="M1008 1544l-244 -1544h-166l219 1386h-293l101 158h383z" />
    <glyph glyph-name="two" unicode="2" horiz-adv-x="1262" 
d="M1284 1132q-23 -142 -114 -276.5t-359 -390.5l-332 -318h649l-22 -147h-969l627 621q179 176 256.5 287t95.5 218q2 18 3 30t1 22q0 111 -74 179t-200 68q-135 0 -237 -95t-126 -240h-159q37 225 183.5 355t369.5 130q192 0 302.5 -98.5t110.5 -266.5q0 -19 -1.5 -38.5
t-4.5 -39.5z" />
    <glyph glyph-name="three" unicode="3" horiz-adv-x="1262" 
d="M1237 1171q-21 -136 -106 -233.5t-205 -120.5q108 -20 170.5 -102t62.5 -205q0 -19 -1.5 -38.5t-4.5 -39.5q-34 -213 -181.5 -338t-369.5 -125q-191 0 -295 91t-104 257q0 29 1 44t3 28h165q0 -7 -0.5 -16t-0.5 -27q0 -108 67 -167.5t187 -59.5q150 0 246.5 83.5
t119.5 233.5q3 17 4.5 32.5t1.5 31.5q0 115 -73 178t-211 63h-51l24 150h49q144 0 229 70t107 206q3 21 3.5 30t0.5 17q0 97 -60.5 154t-166.5 57q-114 0 -194.5 -57t-112.5 -160h-158q47 174 177.5 270.5t318.5 96.5q172 0 268 -87t96 -239q0 -19 -1.5 -38.5t-4.5 -39.5z
" />
    <glyph glyph-name="four" unicode="4" horiz-adv-x="1262" 
d="M1247 496l-22 -150h-221l-56 -346h-166l56 346h-758l1120 1241l-174 -1091h221zM965 1151l-596 -655h491z" />
    <glyph glyph-name="five" unicode="5" horiz-adv-x="1262" 
d="M1272 1544l-23 -147h-538l-160 -402q46 20 94 28.5t105 8.5q201 0 317.5 -115t116.5 -311q0 -28 -2 -53.5t-6 -48.5q-38 -241 -213.5 -388t-427.5 -147q-144 0 -244.5 53.5t-165.5 163.5l119 107q61 -99 130.5 -136.5t178.5 -37.5q174 0 301.5 107.5t155.5 277.5
q3 17 4.5 34t1.5 33q0 141 -90 227.5t-240 86.5q-103 0 -201.5 -32t-175.5 -91q8 20 24 59q88 211 281 723h658z" />
    <glyph glyph-name="six" unicode="6" horiz-adv-x="1262" 
d="M1231 490q-35 -218 -209.5 -369.5t-394.5 -151.5q-196 0 -322.5 123.5t-126.5 313.5q0 19 1.5 40.5t4.5 42.5q20 123 96 250t259 338l432 504l104 -92l-454 -533q28 18 79.5 29.5t94.5 11.5q197 0 319.5 -117.5t122.5 -304.5q0 -20 -1.5 -40.5t-4.5 -44.5zM1065 489
q2 11 3 23t1 37q0 132 -84.5 216.5t-218.5 84.5q-152 0 -272 -103.5t-144 -257.5q-2 -10 -3 -23t-1 -38q0 -135 85 -222t218 -87q149 0 270 108t146 262z" />
    <glyph glyph-name="seven" unicode="7" horiz-adv-x="1262" 
d="M1440 1544l-1096 -1585l-135 80l960 1358h-827l23 147h1075z" />
    <glyph glyph-name="eight" unicode="8" horiz-adv-x="1262" 
d="M1249 1159q-18 -115 -92.5 -205.5t-189.5 -136.5q103 -40 161 -126t58 -197q0 -17 -1.5 -34t-4.5 -36q-32 -195 -189 -325t-364 -130q-186 0 -303 107t-117 274q0 17 1.5 34.5t4.5 35.5q21 138 112.5 245t225.5 152q-87 43 -132.5 114t-45.5 165q0 16 1.5 33.5t4.5 34.5
q28 173 172 292t330 119q166 0 270 -97.5t104 -250.5q0 -18 -1.5 -34.5t-4.5 -33.5zM1081 1151q1 2 1 6q3 26 3 39q0 100 -64.5 164.5t-164.5 64.5q-112 0 -203.5 -79.5t-109.5 -191.5q-2 -16 -3 -26.5t-1 -19.5q0 -98 65 -161.5t166 -63.5q115 0 204 77t107 191zM1014 431
q2 19 3 29.5t1 18.5q0 112 -76 184t-194 72q-134 0 -240.5 -88.5t-126.5 -216.5q0 -2 -1 -6q-3 -30 -3 -45q0 -114 76.5 -187t195.5 -73q141 0 242 88t123 224z" />
    <glyph glyph-name="nine" unicode="9" horiz-adv-x="1262" 
d="M1315 1055q-20 -122 -96 -248t-261 -340l-432 -504l-110 86l461 539q-29 -18 -80.5 -29.5t-94.5 -11.5q-197 0 -318.5 116.5t-121.5 303.5q0 20 1.5 42t4.5 45q35 218 209.5 369.5t394.5 151.5q197 0 323 -123.5t126 -312.5q0 -20 -1.5 -41.5t-4.5 -42.5zM1149 1055
q2 11 3 23.5t1 37.5q0 134 -86 221.5t-219 87.5q-149 0 -269 -107.5t-145 -262.5q-2 -11 -3 -23t-1 -37q0 -131 84.5 -216t218.5 -85q152 0 272 103.5t144 257.5z" />
    <glyph glyph-name="colon" unicode=":" horiz-adv-x="631" 
d="M571 868q-7 -49 -47.5 -83.5t-89.5 -34.5q-43 0 -72.5 29t-29.5 71q0 3 1 9t1 9q7 49 47 83t90 34q45 0 73.5 -27.5t28.5 -70.5q0 -4 -1 -10t-1 -9zM449 88q-8 -49 -48.5 -84t-89.5 -35q-43 0 -72.5 29t-29.5 72q0 3 1 9t1 9q8 49 48 84t89 35q44 0 73.5 -28.5
t29.5 -72.5q0 -2 -1 -8t-1 -10z" />
    <glyph glyph-name="semicolon" unicode=";" horiz-adv-x="631" 
d="M576 869q-8 -50 -47.5 -84.5t-88.5 -34.5q-43 0 -72.5 29t-29.5 71q0 3 1 9t1 9q8 49 48 83t89 34q44 0 72.5 -27.5t28.5 -70.5q0 -8 -1 -12t-1 -6zM461 170l-355 -528l-94 41l287 561z" />
    <glyph glyph-name="less" unicode="&#x3c;" horiz-adv-x="1262" 
d="M1323 1087l-23 -141l-919 -389l797 -391l-23 -141l-965 475l19 114z" />
    <glyph glyph-name="equal" unicode="=" horiz-adv-x="1262" 
d="M1280 819l-20 -129h-1041l21 129h1040zM1219 426l-21 -129h-1040l20 129h1041z" />
    <glyph glyph-name="greater" unicode="&#x3e;" horiz-adv-x="1262" 
d="M1249 614l-18 -114l-1116 -475l22 141l918 391l-795 389l23 141z" />
    <glyph glyph-name="question" unicode="?" horiz-adv-x="999" 
d="M1040 1167q-13 -87 -49 -158.5t-90.5 -125t-126 -86.5t-156.5 -43l-57 -363h-153l77 496h62q78 0 139.5 23.5t105 68t66.5 109t23 147.5q0 88 -43.5 140t-132.5 52q-55 0 -96 -20.5t-69.5 -52t-45 -70t-23.5 -74.5h-154q12 71 44.5 137t85 116.5t124.5 81t162 30.5
q74 0 132.5 -21.5t99.5 -62.5t62.5 -100t21.5 -134q0 -21 -3 -44zM553 88q-4 -24 -16.5 -46t-31.5 -38t-42 -25.5t-47 -9.5q-45 0 -74 29.5t-29 71.5q0 27 12 52t31.5 44t45 30t51.5 11q45 0 73.5 -28.5t28.5 -72.5v-9t-2 -9z" />
    <glyph glyph-name="at" unicode="@" horiz-adv-x="1638" 
d="M1735 918q-43 -264 -181 -415t-346 -151q-77 0 -118 32.5t-41 92.5q0 11 0.5 17.5t0.5 10.5q-53 -72 -127.5 -111.5t-156.5 -39.5q-117 0 -177.5 59t-60.5 173q0 18 2 39.5t5 42.5q34 220 179.5 372t317.5 152q76 0 126.5 -36.5t66.5 -102.5l65 102h115l-209 -534
q-9 -23 -14.5 -43t-8.5 -36q-1 -5 -1.5 -10.5t-0.5 -15.5q0 -26 14.5 -36.5t53.5 -10.5q137 0 236.5 117.5t132.5 325.5q5 38 6.5 57t1.5 35q0 205 -138.5 330.5t-375.5 125.5q-327 0 -543 -198.5t-270 -542.5q-6 -38 -9.5 -75t-3.5 -71q0 -237 142.5 -363t412.5 -126
q155 0 321 48t288 130l47 -92q-130 -95 -309.5 -148t-360.5 -53q-315 0 -491 153.5t-176 434.5q0 37 3 77t9 83q61 389 321 623.5t641 234.5q280 0 449.5 -151.5t169.5 -397.5q0 -30 -2 -57t-6 -51zM1173 899q-1 86 -40.5 131t-114.5 45q-121 0 -219.5 -116t-126.5 -295
q-2 -11 -3 -23.5t-1 -34.5q0 -69 34 -102t105 -33q88 0 172 72t129 186z" />
    <glyph glyph-name="A" unicode="A" horiz-adv-x="1432" 
d="M1417 0h-190l-127 467h-641l-273 -467h-190l962 1587zM1061 614l-162 596l-350 -596h512z" />
    <glyph glyph-name="B" unicode="B" horiz-adv-x="1163" 
d="M1131 437q-36 -221 -188 -329t-427 -108h-356l243 1544h312q191 0 296 -85t105 -238q0 -19 -1.5 -36.5t-4.5 -37.5q-20 -128 -91.5 -211.5t-182.5 -108.5q139 -18 220 -107t81 -220q0 -15 -1.5 -30.5t-4.5 -32.5zM936 1133q3 17 4.5 32.5t1.5 30.5q0 98 -63.5 144
t-196.5 46h-131l-80 -505h104q160 0 250 62.5t111 189.5zM958 436q3 23 4 34t1 19q0 118 -91 180t-266 62h-157l-93 -573h191q194 0 291 67.5t120 210.5z" />
    <glyph glyph-name="C" unicode="C" horiz-adv-x="1468" 
d="M1614 1440l-31 -193q-83 78 -201.5 122t-240.5 44q-286 0 -507 -182.5t-265 -456.5q-4 -26 -6.5 -53.5t-2.5 -56.5q0 -236 154.5 -384.5t396.5 -148.5q136 0 277 44.5t246 121.5l-31 -197q-95 -55 -245 -93t-267 -38q-316 0 -511.5 183.5t-195.5 480.5q0 34 3 69t10 72
q53 340 327 570.5t623 230.5q145 0 267 -35.5t200 -99.5z" />
    <glyph glyph-name="D" unicode="D" horiz-adv-x="1389" 
d="M1438 770q-61 -381 -310.5 -575.5t-674.5 -194.5h-293l243 1544h304q363 0 554 -157t191 -453q0 -33 -3.5 -71t-10.5 -93zM1266 772q6 35 9 69t3 66q0 233 -148 354t-434 121h-145l-193 -1220h127q354 0 543 149t238 461z" />
    <glyph glyph-name="E" unicode="E" horiz-adv-x="1094" 
d="M1186 1544l-25 -162h-610l-74 -469h610l-26 -161h-610l-93 -590h611l-27 -162h-782l243 1544h783z" />
    <glyph glyph-name="F" unicode="F" horiz-adv-x="979" 
d="M1120 1544l-24 -162h-545l-74 -469h545l-27 -161h-544l-119 -752h-172l243 1544h717z" />
    <glyph glyph-name="G" unicode="G" horiz-adv-x="1679" 
d="M1731 782q-59 -370 -295.5 -591.5t-583.5 -221.5q-299 0 -483.5 182t-184.5 476q0 34 3 70t10 75q55 344 312 573.5t589 229.5q213 0 362.5 -79.5t231.5 -235.5l-146 -103q-64 124 -184.5 190t-282.5 66q-264 0 -465.5 -184.5t-246.5 -466.5q-5 -25 -7 -52t-2 -57
q0 -228 145 -375t374 -147t409 140t230 352h-484l27 159h672z" />
    <glyph glyph-name="H" unicode="H" horiz-adv-x="1462" 
d="M1546 1544l-243 -1544h-173l119 750h-798l-119 -750h-172l243 1544h172l-100 -633h799l100 633h172z" />
    <glyph glyph-name="I" unicode="I" horiz-adv-x="489" 
d="M575 1544l-243 -1544h-172l243 1544h172z" />
    <glyph glyph-name="J" unicode="J" horiz-adv-x="643" 
d="M707 1544l-201 -1276q-36 -234 -125.5 -331t-265.5 -97q-68 0 -120 19.5t-89 58.5l84 145q32 -35 64 -49t77 -14q96 0 137.5 60t67.5 225l199 1259h172z" />
    <glyph glyph-name="K" unicode="K" horiz-adv-x="1251" 
d="M1442 1544l-793 -727l578 -817h-219l-549 799l-127 -799h-172l243 1544h172l-112 -723l772 723h207z" />
    <glyph glyph-name="L" unicode="L" horiz-adv-x="768" 
d="M768 158l-25 -158h-583l243 1544h172l-219 -1386h412z" />
    <glyph glyph-name="M" unicode="M" horiz-adv-x="1835" 
d="M1755 1587l-8 -1587h-174l18 1053l-680 -1096l-333 1096l-314 -1053h-176l500 1587l385 -1263z" />
    <glyph glyph-name="N" unicode="N" horiz-adv-x="1708" 
d="M1782 1544l-250 -1587l-1004 1217l-186 -1174h-172l252 1587l1003 -1214l185 1171h172z" />
    <glyph glyph-name="O" unicode="O" horiz-adv-x="1765" 
d="M1815 773q-54 -340 -324.5 -572t-611.5 -232q-305 0 -499 189.5t-194 482.5q0 28 2.5 60t8.5 72q53 342 321.5 572t614.5 230q307 0 499.5 -186.5t192.5 -481.5q0 -39 -2.5 -71.5t-7.5 -62.5zM1642 772q5 25 7 51t2 56q0 234 -152 384t-393 150q-286 0 -489.5 -187.5
t-245.5 -453.5q-4 -25 -6.5 -52t-2.5 -56q0 -235 150 -384t391 -149q272 0 485 185.5t254 455.5z" />
    <glyph glyph-name="P" unicode="P" horiz-adv-x="1030" 
d="M1124 1112q-33 -211 -189 -320.5t-423 -109.5h-72l-108 -682h-172l243 1544h244q244 0 365 -85t121 -255q0 -24 -2.5 -47t-6.5 -45zM952 1112q3 16 4.5 31.5t1.5 30.5q0 108 -78 158t-253 50h-76l-86 -538h76q202 0 295.5 62t115.5 206z" />
    <glyph glyph-name="Q" unicode="Q" horiz-adv-x="1765" 
d="M1815 773q-24 -153 -99.5 -292t-193.5 -250l176 -231h-205l-98 129q-118 -78 -250 -119t-266 -41q-305 0 -499 189.5t-194 482.5q0 28 2.5 60t8.5 72q53 342 321.5 572t614.5 230q307 0 499.5 -186.5t192.5 -481.5q0 -39 -2.5 -71.5t-7.5 -62.5zM1642 772q5 25 7 51t2 56
q0 234 -152 384t-393 150q-286 0 -489.5 -187.5t-245.5 -453.5q-4 -25 -6.5 -52t-2.5 -56q0 -235 150 -384t391 -149q104 0 205 30.5t192 90.5l-276 364h205l198 -262q87 89 142.5 196t72.5 222z" />
    <glyph glyph-name="R" unicode="R" horiz-adv-x="1110" 
d="M1165 1128q-28 -179 -154.5 -283.5t-324.5 -109.5l379 -735h-209l-358 729h-52l-114 -729h-172l243 1544h322q220 0 333 -85t113 -249q0 -20 -1.5 -40t-4.5 -42zM993 1122q2 11 3 23t1 35q0 104 -75.5 153t-237.5 49h-133l-80 -505h133q184 0 276.5 58t112.5 187z" />
    <glyph glyph-name="S" unicode="S" horiz-adv-x="1145" 
d="M1149 1393l-135 -109q-26 62 -84.5 95.5t-138.5 33.5q-113 0 -187 -57t-90 -154q0 -2 -1 -6q-3 -26 -3 -39q0 -66 42 -117.5t163 -124.5l11 -6q355 -210 355 -422q0 -18 -1.5 -37t-4.5 -39q-32 -205 -178.5 -323.5t-368.5 -118.5q-153 0 -257 70t-136 194l139 105
q21 -97 97.5 -152t187.5 -55q141 0 231 72t111 203q0 1 1 5q3 26 3 42q0 85 -63 155t-205 146q-166 88 -234.5 170t-68.5 192q0 19 1.5 38.5t4.5 39.5q27 170 160.5 275.5t324.5 105.5q117 0 198 -46t126 -136z" />
    <glyph glyph-name="T" unicode="T" horiz-adv-x="963" 
d="M1176 1544l-25 -155h-365l-219 -1389h-172l219 1389h-364l24 155h902z" />
    <glyph glyph-name="U" unicode="U" horiz-adv-x="1403" 
d="M1487 1544l-152 -966q-48 -308 -205 -458.5t-432 -150.5q-230 0 -345 109.5t-115 329.5q0 43 3.5 85t10.5 85l151 966h172l-157 -1001q-6 -38 -8 -65.5t-2 -51.5q0 -148 78 -221.5t237 -73.5q188 0 294.5 101t139.5 311l158 1001h172z" />
    <glyph glyph-name="V" unicode="V" horiz-adv-x="1278" 
d="M1532 1544l-901 -1585l-398 1585h187l276 -1169l650 1169h186z" />
    <glyph glyph-name="W" unicode="W" horiz-adv-x="2234" 
d="M2488 1544l-901 -1585l-287 1210l-669 -1210l-398 1585h187l276 -1169l674 1212l283 -1212l649 1169h186z" />
    <glyph glyph-name="X" unicode="X" horiz-adv-x="1155" 
d="M1372 1544l-567 -737l348 -807h-195l-278 657l-481 -657h-197l608 817l-334 727h195l262 -590l445 590h194z" />
    <glyph glyph-name="Y" unicode="Y" horiz-adv-x="1214" 
d="M1425 1544l-614 -835l-113 -709h-172l113 709l-363 835h193l283 -680l483 680h190z" />
    <glyph glyph-name="Z" unicode="Z" horiz-adv-x="1200" 
d="M1376 1544l-1034 -1382h770l-27 -162h-1054l1040 1382h-729l25 162h1009z" />
    <glyph glyph-name="bracketleft" unicode="[" horiz-adv-x="645" 
d="M780 1544l-22 -141h-205l-266 -1694h205l-23 -139h-356l311 1974h356z" />
    <glyph glyph-name="backslash" unicode="\" horiz-adv-x="1167" 
d="M1151 -244l-121 -63l-727 1956l119 63z" />
    <glyph glyph-name="bracketright" unicode="]" horiz-adv-x="645" 
d="M668 1544l-312 -1974h-356l23 139h204l267 1694h-205l22 141h357z" />
    <glyph glyph-name="asciicircum" unicode="^" horiz-adv-x="1262" 
d="M1182 866h-138l-223 518l-387 -518h-139l483 678h133z" />
    <glyph glyph-name="underscore" unicode="_" horiz-adv-x="1024" 
d="M989 -225l-22 -133h-1024l22 133h1024z" />
    <glyph glyph-name="grave" unicode="`" horiz-adv-x="733" 
d="M674 1135l-74 -66l-248 270l99 97z" />
    <glyph glyph-name="a" unicode="a" 
d="M1186 956l-152 -956h-164l25 158q-64 -93 -160 -141t-215 -48q-173 0 -279 113t-106 299q0 28 2 54t6 50q35 221 186.5 360.5t354.5 139.5q115 0 196.5 -45t118.5 -129l23 145h164zM948 489q3 20 4.5 38.5t1.5 35.5q0 124 -72.5 195t-197.5 71q-143 0 -247.5 -94.5
t-129.5 -251.5q-3 -20 -4.5 -39t-1.5 -36q0 -128 72.5 -204.5t191.5 -76.5q141 0 249.5 101.5t133.5 260.5z" />
    <glyph glyph-name="b" unicode="b" 
d="M1194 485q-36 -226 -188.5 -371t-352.5 -145q-119 0 -200 48t-117 141l-25 -158h-164l269 1690h164l-140 -879q64 84 159 129t210 45q178 0 285.5 -110t107.5 -291q0 -27 -2 -51t-6 -48zM1026 483q3 18 4.5 36t1.5 36q0 126 -74 200t-198 74q-144 0 -245 -91.5
t-126 -248.5q-3 -20 -4.5 -38.5t-1.5 -34.5q0 -131 76 -210t198 -79q138 0 241 99t128 257z" />
    <glyph glyph-name="c" unicode="c" horiz-adv-x="975" 
d="M1022 920l-27 -175q-50 40 -118 62t-138 22q-170 0 -289 -98.5t-145 -261.5q-2 -11 -3 -23.5t-1 -35.5q0 -129 89.5 -206t238.5 -77q79 0 155.5 22.5t137.5 63.5l-27 -174q-69 -35 -148 -52.5t-165 -17.5q-203 0 -326 114.5t-123 301.5q0 15 1.5 33.5t6.5 56.5
q36 225 208 367.5t409 142.5q82 0 146.5 -16t117.5 -49z" />
    <glyph glyph-name="d" unicode="d" 
d="M1303 1690l-269 -1690h-164l25 158q-64 -93 -160 -141t-215 -48q-173 0 -279 113t-106 299q0 28 2 54t6 50q35 221 186.5 360.5t354.5 139.5q115 0 196.5 -45t118.5 -129l140 879h164zM948 489q3 20 4.5 38.5t1.5 35.5q0 124 -72.5 195t-197.5 71q-143 0 -247.5 -94.5
t-129.5 -251.5q-3 -20 -4.5 -39t-1.5 -36q0 -128 72.5 -204.5t191.5 -76.5q141 0 249.5 101.5t133.5 260.5z" />
    <glyph glyph-name="e" unicode="e" horiz-adv-x="1063" 
d="M1077 510l-8 -57l-768 -1q-1 -9 -1.5 -21t-0.5 -34q0 -130 68.5 -200t193.5 -70q106 0 186.5 41.5t135.5 124.5l125 -72q-87 -125 -205.5 -188.5t-267.5 -63.5q-188 0 -295 108.5t-107 297.5q0 30 2 57t6 51q34 216 193 359t358 143q179 0 286 -103.5t107 -277.5
q0 -29 -7 -88zM924 569v23q0 112 -68 174.5t-188 62.5q-121 0 -216.5 -70.5t-127.5 -189.5h600z" />
    <glyph glyph-name="f" unicode="f" horiz-adv-x="561" 
d="M809 1699l-23 -149q-17 10 -37 14.5t-42 4.5q-73 0 -105 -51.5t-55 -194.5l-58 -367h195l-22 -147h-195l-129 -809h-164l129 809h-113l23 147h113l59 371q33 208 108 297.5t218 89.5q29 0 53.5 -3.5t44.5 -11.5z" />
    <glyph glyph-name="g" unicode="g" horiz-adv-x="1188" 
d="M1186 956l-160 -1007q-41 -256 -178 -379t-381 -123q-190 0 -291.5 80.5t-101.5 228.5v8h170q3 -80 66 -120.5t184 -40.5q167 0 252.5 79t113.5 252l35 224q-64 -93 -160 -141t-215 -48q-173 0 -279 113t-106 299q0 28 2 54t6 50q35 221 186.5 360.5t354.5 139.5
q115 0 196.5 -45t118.5 -129l23 145h164zM948 489q3 20 4.5 38.5t1.5 35.5q0 124 -72.5 195t-197.5 71q-143 0 -247.5 -94.5t-129.5 -251.5q-3 -20 -4.5 -39t-1.5 -36q0 -128 72.5 -204.5t191.5 -76.5q141 0 249.5 101.5t133.5 260.5z" />
    <glyph glyph-name="h" unicode="h" horiz-adv-x="1081" 
d="M1036 616l-98 -616h-164l90 571q4 22 6 44.5t2 46.5q0 91 -41.5 134.5t-130.5 43.5q-123 0 -203.5 -97.5t-109.5 -283.5l-72 -459h-163l268 1690h164l-140 -875q57 85 140.5 127.5t193.5 42.5q126 0 196 -72t70 -204q0 -25 -2 -48t-6 -45z" />
    <glyph glyph-name="i" unicode="i" horiz-adv-x="537" 
d="M592 1333q-8 -46 -46.5 -79t-84.5 -33q-41 0 -68.5 27t-27.5 67q0 3 1 9.5t1 8.5q7 46 46 79.5t85 33.5q41 0 68.5 -27t27.5 -67q0 -3 -1 -9t-1 -10zM502 956l-152 -956h-164l152 956h164z" />
    <glyph glyph-name="j" unicode="j" horiz-adv-x="537" 
d="M592 1333q-8 -46 -46.5 -79t-84.5 -33q-41 0 -68.5 27t-27.5 67q0 3 1 9.5t1 8.5q7 46 46 79.5t85 33.5q41 0 68.5 -27t27.5 -67q0 -3 -1 -9t-1 -10zM502 956l-236 -1488h-164l236 1488h164z" />
    <glyph glyph-name="k" unicode="k" horiz-adv-x="963" 
d="M1071 956l-498 -432l383 -524h-202l-359 504l-80 -504h-163l268 1690h164l-185 -1160l478 426h194z" />
    <glyph glyph-name="l" unicode="l" horiz-adv-x="465" 
d="M584 1690l-269 -1690h-163l268 1690h164z" />
    <glyph glyph-name="m" unicode="m" horiz-adv-x="1573" 
d="M1530 629l-100 -629h-164l90 573q4 25 6 49t2 48q0 86 -36 128t-111 42q-112 0 -173 -83.5t-94 -283.5l-76 -473h-163l90 574q5 37 7.5 63.5t2.5 46.5q0 82 -33 119t-108 37q-113 0 -181 -92.5t-100 -286.5l-74 -461h-163l151 956h164l-21 -127q48 78 122.5 117t176.5 39
q95 0 154.5 -43t75.5 -125q50 82 131.5 125t185.5 43q117 0 181.5 -68t64.5 -194q0 -24 -2 -47.5t-6 -46.5z" />
    <glyph glyph-name="n" unicode="n" horiz-adv-x="1081" 
d="M1036 616l-98 -616h-164l90 571q4 22 6 44.5t2 46.5q0 91 -41.5 134.5t-130.5 43.5q-123 0 -203.5 -97.5t-109.5 -283.5l-72 -459h-163l151 956h164l-23 -141q57 85 140.5 127.5t193.5 42.5q126 0 196 -72t70 -204q0 -25 -2 -48t-6 -45z" />
    <glyph glyph-name="o" unicode="o" horiz-adv-x="1151" 
d="M1161 481q-34 -213 -206 -362.5t-386 -149.5q-189 0 -311.5 121t-122.5 307q0 20 1.5 41.5t4.5 42.5q34 214 203.5 359t384.5 145q192 0 315 -119t123 -303q0 -20 -1.5 -40t-4.5 -42zM997 481q3 11 3.5 23.5t0.5 38.5q0 127 -82.5 206.5t-211.5 79.5q-149 0 -263.5 -98.5
t-138.5 -249.5q-2 -11 -3 -23.5t-1 -37.5q0 -130 82.5 -211.5t212.5 -81.5q147 0 262 101t139 253z" />
    <glyph glyph-name="p" unicode="p" 
d="M1194 485q-36 -226 -188.5 -371t-352.5 -145q-119 0 -200 48t-117 141l-109 -690h-164l236 1488h164l-23 -145q64 84 159 129t210 45q178 0 285.5 -110t107.5 -291q0 -27 -2 -51t-6 -48zM1026 483q3 18 4.5 36t1.5 36q0 126 -74 200t-198 74q-144 0 -245 -91.5
t-126 -248.5q-3 -20 -4.5 -38.5t-1.5 -34.5q0 -131 76 -210t198 -79q138 0 241 99t128 257z" />
    <glyph glyph-name="q" unicode="q" 
d="M1186 956l-236 -1488h-164l109 690q-64 -93 -160 -141t-215 -48q-173 0 -279 113t-106 299q0 28 2 54t6 50q35 221 186.5 360.5t354.5 139.5q115 0 196.5 -45t118.5 -129l23 145h164zM948 489q3 20 4.5 38.5t1.5 35.5q0 124 -72.5 195t-197.5 71q-143 0 -247.5 -94.5
t-129.5 -251.5q-3 -20 -4.5 -39t-1.5 -36q0 -128 72.5 -204.5t191.5 -76.5q141 0 249.5 101.5t133.5 260.5z" />
    <glyph glyph-name="r" unicode="r" horiz-adv-x="686" 
d="M836 967l-66 -162q-15 11 -35.5 16.5t-44.5 5.5q-121 0 -198.5 -103.5t-110.5 -309.5l-66 -414h-163l151 956h164l-27 -168q50 103 123.5 150t184.5 47q26 0 50.5 -5t37.5 -13z" />
    <glyph glyph-name="s" unicode="s" horiz-adv-x="817" 
d="M825 805l-147 -82q-18 61 -53.5 89t-94.5 28q-69 0 -113 -31.5t-53 -86.5q-1 -4 -1.5 -8.5t-0.5 -13.5q0 -45 37 -77.5t127 -63.5q134 -46 194 -105.5t60 -146.5q0 -9 -0.5 -18.5t-3.5 -30.5q-21 -132 -129 -210.5t-274 -78.5q-125 0 -204.5 51t-102.5 146l153 88
q18 -69 64 -103t123 -34q83 0 138.5 35t65.5 95q1 7 1.5 14t0.5 20q0 44 -42 76t-154 75q-109 42 -162 102.5t-53 141.5q0 8 0.5 16.5t3.5 26.5q20 124 113 195t241 71q107 0 172 -44t94 -136z" />
    <glyph glyph-name="t" unicode="t" horiz-adv-x="492" 
d="M623 956l-23 -147h-151l-130 -809h-163l129 809h-115l23 147h114l62 387h163l-61 -387h152z" />
    <glyph glyph-name="u" unicode="u" horiz-adv-x="1049" 
d="M1057 956l-86 -544q-37 -229 -146 -336t-305 -107q-166 0 -244.5 74.5t-78.5 230.5q0 31 3 65t9 73l86 544h164l-86 -538q-6 -37 -8 -61.5t-3 -45.5q0 -96 42.5 -140t140.5 -44q117 0 176 68t84 223l86 538h166z" />
    <glyph glyph-name="v" unicode="v" horiz-adv-x="948" 
d="M1083 956l-614 -999l-301 999h186l170 -645l371 645h188z" />
    <glyph glyph-name="w" unicode="w" horiz-adv-x="1556" 
d="M1677 956l-614 -999l-184 680l-396 -680l-301 999h187l168 -643l397 688l184 -688l371 643h188z" />
    <glyph glyph-name="x" unicode="x" horiz-adv-x="1020" 
d="M1112 956l-428 -458l307 -498h-196l-228 385l-344 -385h-194l460 498l-276 458h195l202 -350l305 350h197z" />
    <glyph glyph-name="y" unicode="y" horiz-adv-x="1020" 
d="M1133 956l-857 -1488h-182l342 579l-264 909h178l199 -720l403 720h181z" />
    <glyph glyph-name="z" unicode="z" horiz-adv-x="1063" 
d="M1106 956l-735 -809h612l-22 -147h-910l735 809h-555l23 147h852z" />
    <glyph glyph-name="braceleft" unicode="{" horiz-adv-x="684" 
d="M850 1544l-23 -141q-115 0 -147.5 -23.5t-50.5 -136.5l-66 -409q-21 -138 -58 -196.5t-116 -80.5q55 -16 77.5 -50.5t22.5 -98.5q0 -26 -3 -57.5t-9 -67.5l-65 -412q-4 -24 -6.5 -44.5t-2.5 -39.5q0 -47 29 -62.5t129 -15.5l-22 -139q-171 0 -231 38.5t-60 141.5
q0 26 3 57t9 68l70 438q0 4 2 14q6 47 6 64q0 56 -32 76t-126 20l23 142q112 0 149.5 31.5t55.5 142.5l69 436q31 190 101 247.5t272 57.5z" />
    <glyph glyph-name="bar" unicode="|" horiz-adv-x="1167" 
d="M895 1544l-324 -2048h-135l324 2048h135z" />
    <glyph glyph-name="braceright" unicode="}" horiz-adv-x="684" 
d="M682 629l-23 -142q-111 0 -149 -31.5t-55 -142.5l-70 -438q-31 -189 -101.5 -247t-273.5 -58l23 139q115 0 149 24.5t51 137.5l66 412q21 136 58 194t116 80q-55 16 -77.5 51t-22.5 101q0 25 3 56t9 69l66 409q4 21 6 42.5t2 39.5q0 47 -29.5 62.5t-130.5 15.5l23 141
q173 0 232.5 -38t59.5 -142q0 -26 -3 -57t-9 -68l-70 -436q0 -4 -1 -13q-7 -48 -7 -65q0 -56 32.5 -76t125.5 -20z" />
    <glyph glyph-name="asciitilde" unicode="~" horiz-adv-x="1262" 
d="M1208 737l-24 -155q-76 -76 -149.5 -114t-145.5 -38q-42 0 -86.5 16t-95.5 52q-68 45 -106 60t-77 15q-61 0 -126.5 -38t-164.5 -132l25 158q75 75 148.5 112.5t146.5 37.5q43 0 86.5 -16t93.5 -50q68 -47 107.5 -63.5t77.5 -16.5q60 0 125 38.5t165 133.5z" />
    <glyph glyph-name="Adieresis" unicode="&#xc4;" horiz-adv-x="1432" 
d="M1417 0h-190l-127 467h-641l-273 -467h-190l962 1587zM1061 614l-162 596l-350 -596h512zM1278 1823q-6 -42 -38.5 -70t-74.5 -28q-37 0 -61.5 23t-24.5 59q0 1 1 6.5t1 9.5q6 39 40 67.5t75 28.5q37 0 60.5 -22.5t23.5 -57.5q0 -1 -1 -6.5t-1 -9.5zM884 1823
q-6 -42 -38.5 -70t-73.5 -28q-37 0 -61.5 23t-24.5 59q0 2 1 7.5t1 8.5q6 39 40 67.5t75 28.5q37 0 60.5 -22.5t23.5 -57.5q-1 -2 -1.5 -7t-1.5 -9z" />
    <glyph glyph-name="Aring" unicode="&#xc5;" horiz-adv-x="1432" 
d="M1417 0h-190l-127 467h-641l-273 -467h-190l962 1587zM1061 614l-162 596l-350 -596h512zM1233 1881q-15 -100 -96.5 -170t-182.5 -70q-88 0 -145 56.5t-57 143.5q0 12 3 34q0 3 1 5q15 100 95 170t179 70q89 0 147 -57.5t58 -145.5q0 -15 -0.5 -22.5t-1.5 -13.5z
M1151 1880q1 4 1.5 9.5t0.5 15.5q0 57 -38.5 95t-96.5 38q-65 0 -117 -46t-63 -111q-3 -11 -4 -16.5t-1 -8.5q0 -57 39 -95t97 -38q64 0 117.5 46t64.5 111z" />
    <glyph glyph-name="Ccedilla" unicode="&#xc7;" horiz-adv-x="1468" 
d="M1614 1440l-31 -193q-83 78 -201.5 122t-240.5 44q-286 0 -507 -182.5t-265 -456.5q-4 -26 -6.5 -53.5t-2.5 -56.5q0 -236 154.5 -384.5t396.5 -148.5q136 0 277 44.5t246 121.5l-31 -197q-95 -55 -245 -93t-267 -38q-316 0 -511.5 183.5t-195.5 480.5q0 34 3 69t10 72
q53 340 327 570.5t623 230.5q145 0 267 -35.5t200 -99.5zM991 -102l-276 -320l-70 53l250 338z" />
    <glyph glyph-name="Eacute" unicode="&#xc9;" horiz-adv-x="1094" 
d="M1186 1544l-25 -162h-610l-74 -469h610l-26 -161h-610l-93 -590h611l-27 -162h-782l243 1544h783zM1063 1929l-336 -270l-51 66l315 301z" />
    <glyph glyph-name="Ntilde" unicode="&#xd1;" horiz-adv-x="1708" 
d="M1782 1544l-250 -1587l-1004 1217l-186 -1174h-172l252 1587l1003 -1214l185 1171h172zM1442 1862q-47 -80 -102.5 -119t-121.5 -39q-32 0 -65.5 12.5t-74.5 40.5q-6 4 -13 9q-72 51 -107 51q-39 0 -66.5 -17.5t-64.5 -72.5l-67 45q47 79 100 117t119 38q33 0 68 -12.5
t75 -40.5q7 -4 21 -14q67 -45 98 -45q41 0 70 18t65 72z" />
    <glyph glyph-name="Odieresis" unicode="&#xd6;" horiz-adv-x="1765" 
d="M1815 773q-54 -340 -324.5 -572t-611.5 -232q-305 0 -499 189.5t-194 482.5q0 28 2.5 60t8.5 72q53 342 321.5 572t614.5 230q307 0 499.5 -186.5t192.5 -481.5q0 -39 -2.5 -71.5t-7.5 -62.5zM1642 772q5 25 7 51t2 56q0 234 -152 384t-393 150q-286 0 -489.5 -187.5
t-245.5 -453.5q-4 -25 -6.5 -52t-2.5 -56q0 -235 150 -384t391 -149q272 0 485 185.5t254 455.5zM1461 1823q-6 -42 -38.5 -70t-74.5 -28q-37 0 -61.5 23t-24.5 59q0 1 1 6.5t1 9.5q6 39 40 67.5t75 28.5q37 0 60.5 -22.5t23.5 -57.5q0 -1 -1 -6.5t-1 -9.5zM1067 1823
q-6 -42 -38.5 -70t-73.5 -28q-37 0 -61.5 23t-24.5 59q0 2 1 7.5t1 8.5q6 39 40 67.5t75 28.5q37 0 60.5 -22.5t23.5 -57.5q-1 -2 -1.5 -7t-1.5 -9z" />
    <glyph glyph-name="Udieresis" unicode="&#xdc;" horiz-adv-x="1403" 
d="M1487 1544l-152 -966q-48 -308 -205 -458.5t-432 -150.5q-230 0 -345 109.5t-115 329.5q0 43 3.5 85t10.5 85l151 966h172l-157 -1001q-6 -38 -8 -65.5t-2 -51.5q0 -148 78 -221.5t237 -73.5q188 0 294.5 101t139.5 311l158 1001h172zM1264 1823q-6 -42 -38.5 -70
t-74.5 -28q-37 0 -61.5 23t-24.5 59q0 1 1 6.5t1 9.5q6 39 40 67.5t75 28.5q37 0 60.5 -22.5t23.5 -57.5q0 -1 -1 -6.5t-1 -9.5zM870 1823q-6 -42 -38.5 -70t-73.5 -28q-37 0 -61.5 23t-24.5 59q0 2 1 7.5t1 8.5q6 39 40 67.5t75 28.5q37 0 60.5 -22.5t23.5 -57.5
q-1 -2 -1.5 -7t-1.5 -9z" />
    <glyph glyph-name="aacute" unicode="&#xe1;" 
d="M1186 956l-152 -956h-164l25 158q-64 -93 -160 -141t-215 -48q-173 0 -279 113t-106 299q0 28 2 54t6 50q35 221 186.5 360.5t354.5 139.5q115 0 196.5 -45t118.5 -129l23 145h164zM948 489q3 20 4.5 38.5t1.5 35.5q0 124 -72.5 195t-197.5 71q-143 0 -247.5 -94.5
t-129.5 -251.5q-3 -20 -4.5 -39t-1.5 -36q0 -128 72.5 -204.5t191.5 -76.5q141 0 249.5 101.5t133.5 260.5zM989 1339l-336 -270l-51 66l315 301z" />
    <glyph glyph-name="agrave" unicode="&#xe0;" 
d="M1186 956l-152 -956h-164l25 158q-64 -93 -160 -141t-215 -48q-173 0 -279 113t-106 299q0 28 2 54t6 50q35 221 186.5 360.5t354.5 139.5q115 0 196.5 -45t118.5 -129l23 145h164zM948 489q3 20 4.5 38.5t1.5 35.5q0 124 -72.5 195t-197.5 71q-143 0 -247.5 -94.5
t-129.5 -251.5q-3 -20 -4.5 -39t-1.5 -36q0 -128 72.5 -204.5t191.5 -76.5q141 0 249.5 101.5t133.5 260.5zM856 1135l-74 -66l-248 270l99 97z" />
    <glyph glyph-name="acircumflex" unicode="&#xe2;" 
d="M1186 956l-152 -956h-164l25 158q-64 -93 -160 -141t-215 -48q-173 0 -279 113t-106 299q0 28 2 54t6 50q35 221 186.5 360.5t354.5 139.5q115 0 196.5 -45t118.5 -129l23 145h164zM948 489q3 20 4.5 38.5t1.5 35.5q0 124 -72.5 195t-197.5 71q-143 0 -247.5 -94.5
t-129.5 -251.5q-3 -20 -4.5 -39t-1.5 -36q0 -128 72.5 -204.5t191.5 -76.5q141 0 249.5 101.5t133.5 260.5zM1014 1137l-67 -68l-197 201l-258 -201l-47 68l332 295z" />
    <glyph glyph-name="adieresis" unicode="&#xe4;" 
d="M1186 956l-152 -956h-164l25 158q-64 -93 -160 -141t-215 -48q-173 0 -279 113t-106 299q0 28 2 54t6 50q35 221 186.5 360.5t354.5 139.5q115 0 196.5 -45t118.5 -129l23 145h164zM948 489q3 20 4.5 38.5t1.5 35.5q0 124 -72.5 195t-197.5 71q-143 0 -247.5 -94.5
t-129.5 -251.5q-3 -20 -4.5 -39t-1.5 -36q0 -128 72.5 -204.5t191.5 -76.5q141 0 249.5 101.5t133.5 260.5zM1041 1233q-6 -42 -38.5 -70t-74.5 -28q-37 0 -61.5 23t-24.5 59q0 1 1 6.5t1 9.5q6 39 40 67.5t75 28.5q37 0 60.5 -22.5t23.5 -57.5q0 -1 -1 -6.5t-1 -9.5z
M647 1233q-6 -42 -38.5 -70t-73.5 -28q-37 0 -61.5 23t-24.5 59q0 2 1 7.5t1 8.5q6 39 40 67.5t75 28.5q37 0 60.5 -22.5t23.5 -57.5q-1 -2 -1.5 -7t-1.5 -9z" />
    <glyph glyph-name="atilde" unicode="&#xe3;" 
d="M1186 956l-152 -956h-164l25 158q-64 -93 -160 -141t-215 -48q-173 0 -279 113t-106 299q0 28 2 54t6 50q35 221 186.5 360.5t354.5 139.5q115 0 196.5 -45t118.5 -129l23 145h164zM948 489q3 20 4.5 38.5t1.5 35.5q0 124 -72.5 195t-197.5 71q-143 0 -247.5 -94.5
t-129.5 -251.5q-3 -20 -4.5 -39t-1.5 -36q0 -128 72.5 -204.5t191.5 -76.5q141 0 249.5 101.5t133.5 260.5zM1084 1272q-47 -80 -102.5 -119t-121.5 -39q-32 0 -65.5 12.5t-74.5 40.5q-6 4 -13 9q-72 51 -107 51q-39 0 -66.5 -17.5t-64.5 -72.5l-67 45q47 79 100 117t119 38
q33 0 68 -12.5t75 -40.5q7 -4 21 -14q67 -45 98 -45q41 0 70 18t65 72z" />
    <glyph glyph-name="aring" unicode="&#xe5;" 
d="M1186 956l-152 -956h-164l25 158q-64 -93 -160 -141t-215 -48q-173 0 -279 113t-106 299q0 28 2 54t6 50q35 221 186.5 360.5t354.5 139.5q115 0 196.5 -45t118.5 -129l23 145h164zM948 489q3 20 4.5 38.5t1.5 35.5q0 124 -72.5 195t-197.5 71q-143 0 -247.5 -94.5
t-129.5 -251.5q-3 -20 -4.5 -39t-1.5 -36q0 -128 72.5 -204.5t191.5 -76.5q141 0 249.5 101.5t133.5 260.5zM993 1291q-15 -100 -96.5 -170t-182.5 -70q-88 0 -145 56.5t-57 143.5q0 12 3 34q0 3 1 5q15 100 95 170t179 70q89 0 147 -57.5t58 -145.5q0 -15 -0.5 -22.5
t-1.5 -13.5zM911 1290q1 4 1.5 9.5t0.5 15.5q0 57 -38.5 95t-96.5 38q-65 0 -117 -46t-63 -111q-3 -11 -4 -16.5t-1 -8.5q0 -57 39 -95t97 -38q64 0 117.5 46t64.5 111z" />
    <glyph glyph-name="ccedilla" unicode="&#xe7;" horiz-adv-x="975" 
d="M1022 920l-27 -175q-50 40 -118 62t-138 22q-170 0 -289 -98.5t-145 -261.5q-2 -11 -3 -23.5t-1 -35.5q0 -129 89.5 -206t238.5 -77q79 0 155.5 22.5t137.5 63.5l-27 -174q-69 -35 -148 -52.5t-165 -17.5q-203 0 -326 114.5t-123 301.5q0 15 1.5 33.5t6.5 56.5
q36 225 208 367.5t409 142.5q82 0 146.5 -16t117.5 -49zM688 -102l-276 -320l-70 53l250 338z" />
    <glyph glyph-name="eacute" unicode="&#xe9;" horiz-adv-x="1063" 
d="M1077 510l-8 -57l-768 -1q-1 -9 -1.5 -21t-0.5 -34q0 -130 68.5 -200t193.5 -70q106 0 186.5 41.5t135.5 124.5l125 -72q-87 -125 -205.5 -188.5t-267.5 -63.5q-188 0 -295 108.5t-107 297.5q0 30 2 57t6 51q34 216 193 359t358 143q179 0 286 -103.5t107 -277.5
q0 -29 -7 -88zM924 569v23q0 112 -68 174.5t-188 62.5q-121 0 -216.5 -70.5t-127.5 -189.5h600zM973 1339l-336 -270l-51 66l315 301z" />
    <glyph glyph-name="egrave" unicode="&#xe8;" horiz-adv-x="1063" 
d="M1077 510l-8 -57l-768 -1q-1 -9 -1.5 -21t-0.5 -34q0 -130 68.5 -200t193.5 -70q106 0 186.5 41.5t135.5 124.5l125 -72q-87 -125 -205.5 -188.5t-267.5 -63.5q-188 0 -295 108.5t-107 297.5q0 30 2 57t6 51q34 216 193 359t358 143q179 0 286 -103.5t107 -277.5
q0 -29 -7 -88zM924 569v23q0 112 -68 174.5t-188 62.5q-121 0 -216.5 -70.5t-127.5 -189.5h600zM840 1135l-74 -66l-248 270l99 97z" />
    <glyph glyph-name="ecircumflex" unicode="&#xea;" horiz-adv-x="1063" 
d="M1077 510l-8 -57l-768 -1q-1 -9 -1.5 -21t-0.5 -34q0 -130 68.5 -200t193.5 -70q106 0 186.5 41.5t135.5 124.5l125 -72q-87 -125 -205.5 -188.5t-267.5 -63.5q-188 0 -295 108.5t-107 297.5q0 30 2 57t6 51q34 216 193 359t358 143q179 0 286 -103.5t107 -277.5
q0 -29 -7 -88zM924 569v23q0 112 -68 174.5t-188 62.5q-121 0 -216.5 -70.5t-127.5 -189.5h600zM997 1137l-67 -68l-197 201l-258 -201l-47 68l332 295z" />
    <glyph glyph-name="edieresis" unicode="&#xeb;" horiz-adv-x="1063" 
d="M1077 510l-8 -57l-768 -1q-1 -9 -1.5 -21t-0.5 -34q0 -130 68.5 -200t193.5 -70q106 0 186.5 41.5t135.5 124.5l125 -72q-87 -125 -205.5 -188.5t-267.5 -63.5q-188 0 -295 108.5t-107 297.5q0 30 2 57t6 51q34 216 193 359t358 143q179 0 286 -103.5t107 -277.5
q0 -29 -7 -88zM924 569v23q0 112 -68 174.5t-188 62.5q-121 0 -216.5 -70.5t-127.5 -189.5h600zM1022 1233q-6 -42 -38.5 -70t-74.5 -28q-37 0 -61.5 23t-24.5 59q0 1 1 6.5t1 9.5q6 39 40 67.5t75 28.5q37 0 60.5 -22.5t23.5 -57.5q0 -1 -1 -6.5t-1 -9.5zM628 1233
q-6 -42 -38.5 -70t-73.5 -28q-37 0 -61.5 23t-24.5 59q0 2 1 7.5t1 8.5q6 39 40 67.5t75 28.5q37 0 60.5 -22.5t23.5 -57.5q-1 -2 -1.5 -7t-1.5 -9z" />
    <glyph glyph-name="iacute" unicode="&#xed;" horiz-adv-x="537" 
d="M502 956l-152 -956h-164l152 956h164zM710 1339l-336 -270l-51 66l315 301z" />
    <glyph glyph-name="igrave" unicode="&#xec;" horiz-adv-x="537" 
d="M502 956l-152 -956h-164l152 956h164zM577 1135l-74 -66l-248 270l99 97z" />
    <glyph glyph-name="icircumflex" unicode="&#xee;" horiz-adv-x="537" 
d="M502 956l-152 -956h-164l152 956h164zM734 1137l-67 -68l-197 201l-258 -201l-47 68l332 295z" />
    <glyph glyph-name="idieresis" unicode="&#xef;" horiz-adv-x="537" 
d="M502 956l-152 -956h-164l152 956h164zM761 1233q-6 -42 -38.5 -70t-74.5 -28q-37 0 -61.5 23t-24.5 59q0 1 1 6.5t1 9.5q6 39 40 67.5t75 28.5q37 0 60.5 -22.5t23.5 -57.5q0 -1 -1 -6.5t-1 -9.5zM367 1233q-6 -42 -38.5 -70t-73.5 -28q-37 0 -61.5 23t-24.5 59
q0 2 1 7.5t1 8.5q6 39 40 67.5t75 28.5q37 0 60.5 -22.5t23.5 -57.5q-1 -2 -1.5 -7t-1.5 -9z" />
    <glyph glyph-name="ntilde" unicode="&#xf1;" horiz-adv-x="1081" 
d="M1036 616l-98 -616h-164l90 571q4 22 6 44.5t2 46.5q0 91 -41.5 134.5t-130.5 43.5q-123 0 -203.5 -97.5t-109.5 -283.5l-72 -459h-163l151 956h164l-23 -141q57 85 140.5 127.5t193.5 42.5q126 0 196 -72t70 -204q0 -25 -2 -48t-6 -45zM1076 1272q-47 -80 -102.5 -119
t-121.5 -39q-32 0 -65.5 12.5t-74.5 40.5q-6 4 -13 9q-72 51 -107 51q-39 0 -66.5 -17.5t-64.5 -72.5l-67 45q47 79 100 117t119 38q33 0 68 -12.5t75 -40.5q7 -4 21 -14q67 -45 98 -45q41 0 70 18t65 72z" />
    <glyph glyph-name="oacute" unicode="&#xf3;" horiz-adv-x="1151" 
d="M1161 481q-34 -213 -206 -362.5t-386 -149.5q-189 0 -311.5 121t-122.5 307q0 20 1.5 41.5t4.5 42.5q34 214 203.5 359t384.5 145q192 0 315 -119t123 -303q0 -20 -1.5 -40t-4.5 -42zM997 481q3 11 3.5 23.5t0.5 38.5q0 127 -82.5 206.5t-211.5 79.5q-149 0 -263.5 -98.5
t-138.5 -249.5q-2 -11 -3 -23.5t-1 -37.5q0 -130 82.5 -211.5t212.5 -81.5q147 0 262 101t139 253zM1016 1339l-336 -270l-51 66l315 301z" />
    <glyph glyph-name="ograve" unicode="&#xf2;" horiz-adv-x="1151" 
d="M1161 481q-34 -213 -206 -362.5t-386 -149.5q-189 0 -311.5 121t-122.5 307q0 20 1.5 41.5t4.5 42.5q34 214 203.5 359t384.5 145q192 0 315 -119t123 -303q0 -20 -1.5 -40t-4.5 -42zM997 481q3 11 3.5 23.5t0.5 38.5q0 127 -82.5 206.5t-211.5 79.5q-149 0 -263.5 -98.5
t-138.5 -249.5q-2 -11 -3 -23.5t-1 -37.5q0 -130 82.5 -211.5t212.5 -81.5q147 0 262 101t139 253zM883 1135l-74 -66l-248 270l99 97z" />
    <glyph glyph-name="ocircumflex" unicode="&#xf4;" horiz-adv-x="1151" 
d="M1161 481q-34 -213 -206 -362.5t-386 -149.5q-189 0 -311.5 121t-122.5 307q0 20 1.5 41.5t4.5 42.5q34 214 203.5 359t384.5 145q192 0 315 -119t123 -303q0 -20 -1.5 -40t-4.5 -42zM997 481q3 11 3.5 23.5t0.5 38.5q0 127 -82.5 206.5t-211.5 79.5q-149 0 -263.5 -98.5
t-138.5 -249.5q-2 -11 -3 -23.5t-1 -37.5q0 -130 82.5 -211.5t212.5 -81.5q147 0 262 101t139 253zM1040 1137l-67 -68l-197 201l-258 -201l-47 68l332 295z" />
    <glyph glyph-name="odieresis" unicode="&#xf6;" horiz-adv-x="1151" 
d="M1161 481q-34 -213 -206 -362.5t-386 -149.5q-189 0 -311.5 121t-122.5 307q0 20 1.5 41.5t4.5 42.5q34 214 203.5 359t384.5 145q192 0 315 -119t123 -303q0 -20 -1.5 -40t-4.5 -42zM997 481q3 11 3.5 23.5t0.5 38.5q0 127 -82.5 206.5t-211.5 79.5q-149 0 -263.5 -98.5
t-138.5 -249.5q-2 -11 -3 -23.5t-1 -37.5q0 -130 82.5 -211.5t212.5 -81.5q147 0 262 101t139 253zM1067 1233q-6 -42 -38.5 -70t-74.5 -28q-37 0 -61.5 23t-24.5 59q0 1 1 6.5t1 9.5q6 39 40 67.5t75 28.5q37 0 60.5 -22.5t23.5 -57.5q0 -1 -1 -6.5t-1 -9.5zM673 1233
q-6 -42 -38.5 -70t-73.5 -28q-37 0 -61.5 23t-24.5 59q0 2 1 7.5t1 8.5q6 39 40 67.5t75 28.5q37 0 60.5 -22.5t23.5 -57.5q-1 -2 -1.5 -7t-1.5 -9z" />
    <glyph glyph-name="otilde" unicode="&#xf5;" horiz-adv-x="1151" 
d="M1161 481q-34 -213 -206 -362.5t-386 -149.5q-189 0 -311.5 121t-122.5 307q0 20 1.5 41.5t4.5 42.5q34 214 203.5 359t384.5 145q192 0 315 -119t123 -303q0 -20 -1.5 -40t-4.5 -42zM997 481q3 11 3.5 23.5t0.5 38.5q0 127 -82.5 206.5t-211.5 79.5q-149 0 -263.5 -98.5
t-138.5 -249.5q-2 -11 -3 -23.5t-1 -37.5q0 -130 82.5 -211.5t212.5 -81.5q147 0 262 101t139 253zM1110 1272q-47 -80 -102.5 -119t-121.5 -39q-32 0 -65.5 12.5t-74.5 40.5q-6 4 -13 9q-72 51 -107 51q-39 0 -66.5 -17.5t-64.5 -72.5l-67 45q47 79 100 117t119 38
q33 0 68 -12.5t75 -40.5q7 -4 21 -14q67 -45 98 -45q41 0 70 18t65 72z" />
    <glyph glyph-name="uacute" unicode="&#xfa;" horiz-adv-x="1049" 
d="M1057 956l-86 -544q-37 -229 -146 -336t-305 -107q-166 0 -244.5 74.5t-78.5 230.5q0 31 3 65t9 73l86 544h164l-86 -538q-6 -37 -8 -61.5t-3 -45.5q0 -96 42.5 -140t140.5 -44q117 0 176 68t84 223l86 538h166zM965 1339l-336 -270l-51 66l315 301z" />
    <glyph glyph-name="ugrave" unicode="&#xf9;" horiz-adv-x="1049" 
d="M1057 956l-86 -544q-37 -229 -146 -336t-305 -107q-166 0 -244.5 74.5t-78.5 230.5q0 31 3 65t9 73l86 544h164l-86 -538q-6 -37 -8 -61.5t-3 -45.5q0 -96 42.5 -140t140.5 -44q117 0 176 68t84 223l86 538h166zM832 1135l-74 -66l-248 270l99 97z" />
    <glyph glyph-name="ucircumflex" unicode="&#xfb;" horiz-adv-x="1049" 
d="M1057 956l-86 -544q-37 -229 -146 -336t-305 -107q-166 0 -244.5 74.5t-78.5 230.5q0 31 3 65t9 73l86 544h164l-86 -538q-6 -37 -8 -61.5t-3 -45.5q0 -96 42.5 -140t140.5 -44q117 0 176 68t84 223l86 538h166zM989 1137l-67 -68l-197 201l-258 -201l-47 68l332 295z
" />
    <glyph glyph-name="udieresis" unicode="&#xfc;" horiz-adv-x="1049" 
d="M1057 956l-86 -544q-37 -229 -146 -336t-305 -107q-166 0 -244.5 74.5t-78.5 230.5q0 31 3 65t9 73l86 544h164l-86 -538q-6 -37 -8 -61.5t-3 -45.5q0 -96 42.5 -140t140.5 -44q117 0 176 68t84 223l86 538h166zM1016 1233q-6 -42 -38.5 -70t-74.5 -28q-37 0 -61.5 23
t-24.5 59q0 1 1 6.5t1 9.5q6 39 40 67.5t75 28.5q37 0 60.5 -22.5t23.5 -57.5q0 -1 -1 -6.5t-1 -9.5zM622 1233q-6 -42 -38.5 -70t-73.5 -28q-37 0 -61.5 23t-24.5 59q0 2 1 7.5t1 8.5q6 39 40 67.5t75 28.5q37 0 60.5 -22.5t23.5 -57.5q-1 -2 -1.5 -7t-1.5 -9z" />
    <glyph glyph-name="dagger" unicode="&#x2020;" horiz-adv-x="1212" 
d="M1241 967l-24 -148h-400l-196 -1249h-162l196 1249h-401l25 148h401l90 577h162l-90 -577h399z" />
    <glyph glyph-name="degree" unicode="&#xb0;" horiz-adv-x="819" 
d="M903 1275q-18 -117 -117 -201.5t-221 -84.5q-108 0 -178 68t-70 172q0 7 1 17t3 29q21 122 119 208t217 86q107 0 178.5 -71.5t71.5 -176.5q0 -9 -1 -19.5t-3 -26.5zM815 1278q1 5 1.5 12t0.5 21q0 73 -49 122.5t-123 49.5q-84 0 -153 -60t-82 -145q-1 -6 -1.5 -13
t-0.5 -20q0 -74 48.5 -122t123.5 -48q84 0 152.5 59.5t82.5 143.5z" />
    <glyph glyph-name="cent" unicode="&#xa2;" horiz-adv-x="1262" 
d="M1206 1221l-26 -174q-47 37 -106 59t-120 24l-110 -702q69 3 137 25.5t125 60.5l-29 -174q-61 -31 -123.5 -46.5t-134.5 -19.5l-31 -202h-98l31 202q-180 16 -283.5 125t-103.5 283q0 26 2 49t6 45q32 210 179 348.5t360 159.5l28 176h99l-27 -172q64 -3 119 -19.5
t106 -47.5zM856 1126q-140 -20 -233.5 -114.5t-116.5 -238.5q-2 -12 -3 -24.5t-1 -37.5q0 -112 65 -185t181 -92z" />
    <glyph glyph-name="sterling" unicode="&#xa3;" horiz-adv-x="1262" 
d="M1329 1186l-167 -57q0 6 0.5 16t0.5 29q0 120 -67.5 185.5t-192.5 65.5q-142 0 -244.5 -85.5t-123.5 -216.5q-4 -20 -5.5 -40t-1.5 -41q0 -63 13.5 -135t40.5 -150q2 -7 7.5 -25.5t8.5 -26.5h395l-14 -99h-354q3 -16 4.5 -31.5t1.5 -31.5q0 -10 -1 -22.5t-3 -30.5
q-11 -74 -48.5 -137.5t-99.5 -114.5q49 0 94 -13t113 -49q61 -31 104 -44t82 -13q64 0 119.5 31.5t110.5 99.5l92 -96q-68 -91 -151 -138t-175 -47q-56 0 -114.5 15.5t-120.5 46.5q-7 3 -21 10q-116 57 -184 57q-63 0 -126 -32.5t-122 -96.5l-59 115q48 54 107.5 90.5
t129.5 54.5q51 57 77 107t36 109q3 16 4.5 32t1.5 33q0 26 -3 50.5t-9 45.5h-260l14 99h213q-3 8 -7 19t-11 33q-27 73 -40.5 141t-13.5 132q0 18 2 39.5t7 57.5q30 193 185.5 320.5t373.5 127.5q192 0 296.5 -96t104.5 -273v-20z" />
    <glyph glyph-name="section" unicode="&#xa7;" horiz-adv-x="1212" 
d="M1157 1215l-157 -1q0 6 0.5 14t0.5 23q0 77 -46.5 125.5t-120.5 48.5q-85 0 -154 -61t-82 -145q-1 -7 -1.5 -14t-0.5 -21q0 -77 51 -127.5t127 -50.5q162 0 261.5 -97t99.5 -252q0 -18 -1.5 -36t-5.5 -38q-18 -114 -93 -209t-175 -136q60 -36 94.5 -105t34.5 -153
q0 -26 -1 -38.5t-3 -23.5q-24 -153 -156 -261t-292 -108q-153 0 -244.5 83.5t-91.5 224.5q0 17 1.5 34t4.5 35h157q-1 -7 -1.5 -14t-0.5 -23q0 -84 56.5 -138t142.5 -54q96 0 174 67.5t92 161.5q1 2 1 5q3 23 3 34q0 86 -57 141.5t-147 55.5q-161 0 -262 96.5t-101 249.5
q0 17 1.5 35t4.5 36q19 117 94.5 215t178.5 138q-53 37 -81 96.5t-28 132.5q0 15 1.5 32t4.5 33q23 144 146.5 246.5t271.5 102.5q139 0 222 -79t83 -212q0 -17 -1.5 -34t-4.5 -35zM971 584q2 19 3 29.5t1 17.5q0 98 -65 160.5t-167 62.5q-115 0 -205.5 -79t-109.5 -195
q0 -2 -1 -6q-3 -27 -3 -39q0 -98 65.5 -160t167.5 -62q112 0 203.5 79t110.5 192z" />
    <glyph glyph-name="bullet" unicode="&#x2022;" horiz-adv-x="1212" 
d="M1034 807q-20 -127 -122.5 -216t-229.5 -89q-113 0 -187.5 73t-74.5 183q0 9 0.5 18.5t3.5 30.5q20 127 123.5 216t230.5 89q112 0 186 -73.5t74 -184.5q0 -15 -3 -42q-1 -3 -1 -5z" />
    <glyph glyph-name="paragraph" unicode="&#xb6;" horiz-adv-x="1212" 
d="M1315 1544l-17 -110h-131l-227 -1434h-119l228 1434h-177l-227 -1434h-117l134 846q-171 4 -266 81.5t-95 209.5q0 23 1 35.5t3 23.5q25 156 152 252t311 96h547z" />
    <glyph glyph-name="germandbls" unicode="&#xdf;" 
d="M1198 518q-39 -250 -210 -399.5t-421 -149.5q-7 0 -33.5 2.5t-33.5 4.5l22 144q6 0 30.5 -1.5t35.5 -1.5q182 0 299 104t147 295q3 17 4.5 32.5t1.5 31.5q0 148 -106 238.5t-283 90.5l23 140q126 0 217.5 73.5t109.5 190.5q1 2 1 5q4 32 4 46q0 93 -56 149t-145 56
q-117 0 -185 -65.5t-90 -198.5l-206 -1305h-164l129 809h-119l23 147h118l56 351q30 194 149.5 300.5t302.5 106.5q160 0 257.5 -91.5t97.5 -240.5q-1 -17 -2.5 -34t-4.5 -36q-17 -112 -86.5 -196.5t-175.5 -120.5q136 -31 217.5 -138t81.5 -255q0 -21 -1.5 -42t-4.5 -42z
" />
    <glyph glyph-name="registered" unicode="&#xae;" horiz-adv-x="1638" 
d="M1745 772q-52 -332 -325 -567.5t-605 -235.5q-296 0 -491 193t-195 483q0 27 2.5 58.5t7.5 68.5q52 332 325 567.5t605 235.5q297 0 491.5 -193t194.5 -483q0 -28 -2.5 -59.5t-7.5 -67.5zM1647 772q4 25 6 52t2 59q0 254 -171 424t-431 170q-292 0 -530.5 -206.5
t-284.5 -498.5q-5 -25 -7 -52t-2 -58q0 -256 170.5 -425t429.5 -169q292 0 532 206t286 498zM1262 1000q-16 -98 -88 -161.5t-185 -74.5l228 -459h-150l-211 449h-16l-70 -449h-125l152 959h188q136 0 208.5 -56t72.5 -159q0 -9 -1 -19.5t-3 -29.5zM1133 1002q1 6 1.5 13.5
t0.5 20.5q0 61 -42.5 90t-129.5 29h-60l-45 -293h60q98 0 150.5 34t64.5 106z" />
    <glyph glyph-name="copyright" unicode="&#xa9;" horiz-adv-x="1638" 
d="M1745 772q-52 -332 -325 -567.5t-605 -235.5q-296 0 -491 193t-195 483q0 27 2.5 58.5t7.5 68.5q52 332 325 567.5t605 235.5q297 0 491.5 -193t194.5 -483q0 -28 -2.5 -59.5t-7.5 -67.5zM1647 772q4 25 6 52t2 59q0 254 -171 424t-431 170q-292 0 -530.5 -206.5
t-284.5 -498.5q-5 -25 -7 -52t-2 -58q0 -256 170.5 -425t429.5 -169q292 0 532 206t286 498zM1348 1180l-23 -150q-60 60 -133 92.5t-148 32.5q-172 0 -286 -98.5t-142 -270.5q-3 -21 -4.5 -38.5t-1.5 -34.5q0 -137 83 -218t222 -81q84 0 164.5 28.5t165.5 87.5l-22 -147
q-76 -45 -163 -70.5t-163 -25.5q-193 0 -307.5 110.5t-114.5 294.5q0 26 2 49t6 45q34 216 195.5 356t376.5 140q85 0 161.5 -26.5t131.5 -75.5z" />
    <glyph glyph-name="trademark" unicode="&#x2122;" horiz-adv-x="1925" 
d="M2017 1544l-133 -850h-133l107 682l-396 -682h-76l-182 680l-106 -680h-133l133 850h192l170 -624l365 624h192zM973 1544l-19 -123h-274l-115 -727h-137l115 727h-279l19 123h690z" />
    <glyph glyph-name="acute" unicode="&#xb4;" horiz-adv-x="733" 
d="M807 1339l-336 -270l-51 66l315 301z" />
    <glyph glyph-name="dieresis" unicode="&#xa8;" horiz-adv-x="956" 
d="M969 1233q-6 -42 -38.5 -70t-74.5 -28q-37 0 -61.5 23t-24.5 59q0 1 1 6.5t1 9.5q6 39 40 67.5t75 28.5q37 0 60.5 -22.5t23.5 -57.5q0 -1 -1 -6.5t-1 -9.5zM575 1233q-6 -42 -38.5 -70t-73.5 -28q-37 0 -61.5 23t-24.5 59q0 2 1 7.5t1 8.5q6 39 40 67.5t75 28.5
q37 0 60.5 -22.5t23.5 -57.5q-1 -2 -1.5 -7t-1.5 -9z" />
    <glyph glyph-name="notequal" unicode="&#x2260;" horiz-adv-x="1706" 
d="M1298 1110l-196 -250h350v-115h-424l-211 -270h635v-115h-709l-251 -319l-89 70l197 249h-346v115h420l211 270h-631v115h704l252 320z" />
    <glyph glyph-name="AE" unicode="&#xc6;" horiz-adv-x="2048" 
d="M2030 0h-799l-121 467h-649l-275 -467h-190l942 1544h664l47 -162h-623l133 -469h621l43 -161h-621l168 -590h615zM1069 614l-164 598l-354 -598h518z" />
    <glyph glyph-name="Oslash" unicode="&#xd8;" horiz-adv-x="1765" 
d="M1915 1497l-215 -186q61 -86 93 -188t32 -216q0 -39 -2.5 -71.5t-7.5 -62.5q-54 -340 -324.5 -572t-611.5 -232q-149 0 -279 49.5t-223 141.5l-217 -191l-64 78l215 189q-61 84 -93 187t-32 216q0 39 2.5 71.5t8.5 62.5q53 342 321.5 572t614.5 230q150 0 278 -48.5
t221 -140.5l217 189zM1495 1268q-73 71 -172 108t-217 37q-286 0 -489.5 -187.5t-245.5 -453.5q-4 -25 -6.5 -52t-2.5 -56q0 -87 22.5 -164.5t66.5 -143.5zM1642 772q5 25 7 51t2 56q0 86 -23 165t-67 146l-1047 -911q74 -73 173 -110.5t216 -37.5q271 0 484 185.5
t255 455.5z" />
    <glyph glyph-name="infinity" unicode="&#x221e;" horiz-adv-x="1706" 
d="M905 559q51 -95 119 -141.5t156 -46.5q102 0 168.5 71t66.5 181q0 108 -61 179.5t-152 71.5q-85 0 -153.5 -72.5t-143.5 -242.5zM803 666q-51 95 -119 142.5t-154 47.5q-105 0 -171 -71t-66 -183q0 -108 61 -179t152 -71q85 0 152 69t145 245zM840 727q67 138 146 204
t175 66q134 0 226 -108.5t92 -272.5q0 -171 -82 -277t-213 -106q-96 0 -169 60t-149 201q-71 -138 -148 -201.5t-173 -63.5q-134 0 -226 109t-92 272q0 172 82.5 277.5t214.5 105.5q97 0 172 -63t144 -203z" />
    <glyph glyph-name="plusminus" unicode="&#xb1;" horiz-adv-x="1262" 
d="M1282 741l-20 -129h-467l-58 -370h-135l57 370h-466l20 129h467l59 371h135l-59 -371h467zM1186 129l-21 -129h-1069l21 129h1069z" />
    <glyph glyph-name="lessequal" unicode="&#x2264;" horiz-adv-x="1706" 
d="M1444 150v-117h-1182v117h1182zM1444 1067l-977 -324l977 -323v-125l-1182 399v101l1182 397v-125z" />
    <glyph glyph-name="greaterequal" unicode="&#x2265;" horiz-adv-x="1706" 
d="M1444 150v-117h-1182v117h1182zM1444 795v-101l-1182 -399v125l979 323l-979 324v125z" />
    <glyph glyph-name="yen" unicode="&#xa5;" horiz-adv-x="1262" 
d="M1444 1544l-375 -514h297l-14 -90h-348l-152 -207h467l-14 -90h-486l-102 -643h-166l102 643h-491l14 90h471l-86 207h-352l14 90h301l-219 514h184l283 -690l490 690h182z" />
    <glyph glyph-name="uni00B5" unicode="&#xb5;" horiz-adv-x="1049" 
d="M1120 956l-190 -530q-42 -113 -54 -153t-16 -65q-1 -6 -1.5 -12.5t-0.5 -19.5q0 -29 12.5 -42t40.5 -13q16 0 29 3t33 11l-2 -149q-14 -5 -47 -11t-45 -6q-92 0 -132 37t-40 121v23q-64 -93 -134 -137t-155 -44q-73 0 -114.5 35.5t-47.5 99.5l-229 -636h-166l532 1488
h168l-155 -428q-24 -64 -40 -121.5t-24 -105.5q-3 -17 -4.5 -32t-1.5 -29q0 -62 28.5 -90.5t90.5 -28.5q97 0 182 96t154 285l163 454h166z" />
    <glyph glyph-name="partialdiff" unicode="&#x2202;" horiz-adv-x="1044" 
d="M754 604q13 81 19.5 161.5t6.5 158.5q0 140 -39.5 216.5t-111.5 76.5q-53 0 -117 -63.5t-109 -63.5q-29 0 -51 21.5t-22 51.5q0 59 68 105.5t163 46.5q171 0 273 -152.5t102 -412.5q0 -335 -139 -555t-344 -220q-147 0 -241.5 106.5t-94.5 272.5q0 189 108.5 316
t266.5 127q99 0 162.5 -47t99.5 -146zM709 483q0 117 -45 180.5t-127 63.5q-113 0 -184.5 -127.5t-71.5 -333.5q0 -117 44 -178t128 -61q111 0 183.5 128t72.5 328z" />
    <glyph glyph-name="summation" unicode="&#x2211;" horiz-adv-x="1346" 
d="M51 1473h1239v-166h-989l690 -744l-719 -792h1035v-164h-1289v139l738 813l-705 758v156z" />
    <glyph glyph-name="product" unicode="&#x220f;" horiz-adv-x="1528" 
d="M160 1473h1208v-1866h-201v1693h-809v-1693h-198v1866z" />
    <glyph glyph-name="glyph155" horiz-adv-x="1186" 
d="M1139 930h-185l-110 -516q-14 -66 -21.5 -114.5t-7.5 -74.5q0 -57 24 -81.5t81 -24.5q21 0 46 2.5t52 7.5l-29 -129l-5 -1q-64 -15 -99 -15q-110 0 -168 51.5t-58 150.5q0 48 11.5 121t44.5 230l84 393h-348l-197 -930h-158l197 930h-39q-55 0 -84.5 -31t-40.5 -100h-145
q26 153 94 211.5t223 58.5h866z" />
    <glyph glyph-name="integral" unicode="&#x222b;" horiz-adv-x="1020" 
d="M301 -268q103 0 116 664q3 141 5 216q12 503 102 719.5t281 216.5q76 0 122 -39t46 -104q0 -48 -31 -77.5t-82 -29.5q-53 0 -85 35t-32 92q0 8 -6 15.5t-14 7.5q-105 0 -119 -634q-3 -157 -6 -245q-10 -308 -31.5 -461t-62.5 -247q-49 -114 -123 -173t-168 -59
q-73 0 -119.5 38t-46.5 97q0 53 31.5 84t83.5 31q47 0 79.5 -29t32.5 -67q0 -24 7.5 -37.5t19.5 -13.5z" />
    <glyph glyph-name="ordfeminine" unicode="&#xaa;" horiz-adv-x="709" 
d="M885 1544l-90 -579h-140l11 63q-39 -38 -88.5 -59t-102.5 -21q-113 0 -181.5 69t-68.5 181q0 10 1 23.5t3 33.5q22 134 120 222t224 88q53 0 95.5 -21.5t68.5 -60.5l8 61h140zM700 1255q1 5 1.5 11.5t0.5 19.5q0 64 -39 105t-100 41q-68 0 -124 -51t-68 -125
q-1 -5 -1.5 -12.5t-0.5 -20.5q0 -64 38 -104t99 -40q70 0 126 51t68 125z" />
    <glyph glyph-name="ordmasculine" unicode="&#xba;" horiz-adv-x="690" 
d="M854 1258q-20 -129 -125.5 -219.5t-234.5 -90.5q-116 0 -191.5 74t-75.5 186q0 10 3 27.5t3 21.5q20 129 124 218.5t235 89.5q116 0 191 -73.5t75 -184.5q0 -10 -0.5 -19.5t-3.5 -29.5zM713 1258q1 5 1.5 10.5t0.5 17.5q0 65 -41.5 108.5t-104.5 43.5q-70 0 -127 -52.5
t-69 -127.5q-1 -5 -1.5 -12.5t-0.5 -20.5q0 -65 40 -107.5t101 -42.5q72 0 130 53t71 130z" />
    <glyph glyph-name="uni2126" unicode="&#x2126;" horiz-adv-x="1573" 
d="M1473 156v-156h-590v150q193 111 296 279t103 374q0 251 -137 405t-359 154q-221 0 -359 -155t-138 -404q0 -205 103 -373.5t298 -279.5v-150h-590v156h332q-164 133 -242.5 285t-78.5 335q0 329 188.5 533t486.5 204q299 0 487.5 -202.5t188.5 -530.5
q0 -186 -78.5 -338.5t-242.5 -285.5h332z" />
    <glyph glyph-name="ae" unicode="&#xe6;" horiz-adv-x="1726" 
d="M1735 510l-9 -57h-737q-2 -13 -3 -28t-1 -44q0 -124 63.5 -189t184.5 -65q101 0 174.5 40t130.5 126l121 -72q-89 -130 -199.5 -191t-255.5 -61q-130 0 -215 49t-123 144q-72 -97 -174 -145t-233 -48q-171 0 -259.5 65.5t-88.5 190.5q0 16 1.5 31.5t4.5 32.5
q20 133 141.5 222t288.5 89q89 0 166.5 -27.5t120.5 -72.5l10 67v5q4 32 4 46q0 103 -68 157t-198 54q-81 0 -162 -23t-154 -67l27 170q72 40 149 58t176 18q148 0 235 -47.5t116 -144.5q65 94 165.5 143t227.5 49q176 0 278.5 -101t102.5 -276q0 -28 -8 -92v-6zM1579 570
q1 6 1.5 12.5t0.5 19.5q0 106 -65.5 166.5t-180.5 60.5q-117 0 -205 -69.5t-118 -190.5zM817 302q-2 29 -3.5 45t-2.5 29q-23 46 -92 75.5t-152 29.5q-116 0 -192.5 -51t-89.5 -135q-1 -4 -1.5 -9.5t-0.5 -15.5q0 -68 57.5 -105.5t165.5 -37.5q115 0 190.5 42t120.5 133z
" />
    <glyph glyph-name="oslash" unicode="&#xf8;" horiz-adv-x="1151" 
d="M1229 924l-135 -117q36 -52 54.5 -114.5t18.5 -131.5q0 -20 -1.5 -40t-4.5 -40q-34 -213 -206 -362.5t-386 -149.5q-90 0 -170 31t-139 88l-137 -119l-51 62l137 116q-36 54 -55 117.5t-19 132.5q0 20 1.5 41.5t4.5 42.5q34 214 203.5 359t384.5 145q94 0 173.5 -29.5
t139.5 -87.5l138 117zM913 756q-40 36 -93 54.5t-113 18.5q-149 0 -263.5 -98.5t-138.5 -249.5q-3 -17 -4.5 -33t-1.5 -30q0 -44 10.5 -83.5t30.5 -72.5zM997 481q3 17 4.5 32.5t2.5 31.5q0 41 -10 79t-29 70l-572 -493q40 -36 91.5 -55t111.5 -19q147 0 262 101t139 253z
" />
    <glyph glyph-name="questiondown" unicode="&#xbf;" horiz-adv-x="999" 
d="M203 377q14 87 50 158.5t90.5 125t125.5 87t156 43.5l57 362h154l-78 -496h-62q-78 0 -139.5 -23.5t-105 -68t-66.5 -109t-23 -147.5q0 -87 44 -139.5t133 -52.5q55 0 96 20.5t69 52t44.5 70t23.5 74.5h154q-12 -71 -44 -137t-84.5 -116.5t-124.5 -81t-163 -30.5
q-74 0 -132.5 21.5t-99 62.5t-62 100t-21.5 134q0 21 2.5 44t5.5 46zM690 1456q4 25 16.5 46.5t31.5 37.5t42 25.5t47 9.5q23 0 41.5 -8t32.5 -21.5t21.5 -31.5t7.5 -39q0 -28 -12 -53t-31.5 -44t-44.5 -30t-51 -11q-45 0 -74 28.5t-29 72.5v9t2 9z" />
    <glyph glyph-name="exclamdown" unicode="&#xa1;" horiz-adv-x="692" 
d="M696 1456q-7 -49 -48.5 -84t-90.5 -35q-44 0 -72 28.5t-28 72.5q0 7 0.5 11t1.5 8q7 48 47.5 83t89.5 35q44 0 73 -29t29 -71q0 -4 -1 -10t-1 -9zM610 1153l-182 -1153h-166l182 1153h166z" />
    <glyph glyph-name="logicalnot" unicode="&#xac;" horiz-adv-x="1262" 
d="M1217 866l-99 -620h-133l78 491h-862l20 129h996z" />
    <glyph glyph-name="radical" unicode="&#x221a;" horiz-adv-x="1288" 
d="M1288 1647v-82h-119l-594 -1606h-53l-323 893l-119 -43l-23 68l262 92l265 -729l522 1407h182z" />
    <glyph glyph-name="florin" unicode="&#x192;" horiz-adv-x="1262" 
d="M1286 1544l-52 -155q-24 13 -50.5 20.5t-48.5 7.5q-87 0 -132.5 -54.5t-82.5 -191.5l-60 -215h221l-41 -147h-221l-188 -698q-55 -202 -145 -293.5t-236 -91.5q-36 0 -76 8t-72 22l50 156q24 -13 51.5 -21t50.5 -8q86 0 132 54.5t83 191.5l184 680h-207l39 147h209
l64 234q54 199 146 292t237 93q36 0 75 -8.5t70 -22.5z" />
    <glyph glyph-name="approxequal" unicode="&#x2248;" horiz-adv-x="1706" 
d="M1530 453q-107 -75 -202 -110.5t-187 -35.5q-98 0 -288 69.5t-290 69.5q-82 0 -169.5 -35.5t-215.5 -123.5v131q106 73 202 109t185 36q111 0 301.5 -68.5t276.5 -68.5q85 0 173.5 35.5t213.5 122.5v-131zM1530 803q-104 -73 -200 -108.5t-187 -35.5q-100 0 -290 69
t-290 69q-83 0 -171.5 -36t-213.5 -122v131q106 73 202 109t185 36q111 0 300.5 -68.5t277.5 -68.5q87 0 175 35t212 121v-131z" />
    <glyph glyph-name="uni2206" unicode="&#x2206;" horiz-adv-x="1356" 
d="M1122 158l-444 1138l-445 -1138h889zM780 1473l586 -1473h-1374l586 1473h202z" />
    <glyph glyph-name="guillemotleft" unicode="&#xab;" horiz-adv-x="1024" 
d="M1026 881l-317 -404l190 -399l-119 -68l-215 467l363 469zM674 881l-320 -404l193 -399l-119 -68l-215 467l362 469z" />
    <glyph glyph-name="guillemotright" unicode="&#xbb;" horiz-adv-x="1024" 
d="M963 477l-363 -467l-100 68l319 399l-192 404l121 65zM608 477l-360 -467l-98 68l317 399l-191 404l119 65z" />
    <glyph glyph-name="ellipsis" unicode="&#x2026;" horiz-adv-x="2048" 
d="M1839 88q-8 -49 -48 -84t-89 -35q-44 0 -73.5 29t-29.5 72q1 3 1.5 8.5t1.5 9.5q7 49 47.5 84t89.5 35q44 0 73 -28.5t29 -72.5q0 -3 -1 -9t-1 -9zM1157 88q-8 -49 -48 -84t-89 -35q-44 0 -73 29t-29 72q0 3 0.5 8.5t1.5 9.5q7 49 47.5 84t89.5 35q44 0 73 -28.5
t29 -72.5q0 -3 -1 -9t-1 -9zM475 88q-8 -49 -48 -84t-89 -35q-44 0 -73 29t-29 72q0 3 0.5 8.5t1.5 9.5q7 49 47.5 84t89.5 35q44 0 73 -28.5t29 -72.5q0 -3 -1 -9t-1 -9z" />
    <glyph glyph-name="figspace" unicode="&#xa0;" horiz-adv-x="1262" 
 />
    <glyph glyph-name="figspace" unicode="&#x2007;" horiz-adv-x="1262" 
 />
    <glyph glyph-name="Agrave" unicode="&#xc0;" horiz-adv-x="1432" 
d="M1417 0h-190l-127 467h-641l-273 -467h-190l962 1587zM1061 614l-162 596l-350 -596h512zM1096 1725l-74 -66l-248 270l99 97z" />
    <glyph glyph-name="Atilde" unicode="&#xc3;" horiz-adv-x="1432" 
d="M1417 0h-190l-127 467h-641l-273 -467h-190l962 1587zM1061 614l-162 596l-350 -596h512zM1323 1862q-47 -80 -102.5 -119t-121.5 -39q-32 0 -65.5 12.5t-74.5 40.5q-6 4 -13 9q-72 51 -107 51q-39 0 -66.5 -17.5t-64.5 -72.5l-67 45q47 79 100 117t119 38q33 0 68 -12.5
t75 -40.5q7 -4 21 -14q67 -45 98 -45q41 0 70 18t65 72z" />
    <glyph glyph-name="Otilde" unicode="&#xd5;" horiz-adv-x="1765" 
d="M1815 773q-54 -340 -324.5 -572t-611.5 -232q-305 0 -499 189.5t-194 482.5q0 28 2.5 60t8.5 72q53 342 321.5 572t614.5 230q307 0 499.5 -186.5t192.5 -481.5q0 -39 -2.5 -71.5t-7.5 -62.5zM1642 772q5 25 7 51t2 56q0 234 -152 384t-393 150q-286 0 -489.5 -187.5
t-245.5 -453.5q-4 -25 -6.5 -52t-2.5 -56q0 -235 150 -384t391 -149q272 0 485 185.5t254 455.5zM1504 1862q-47 -80 -102.5 -119t-121.5 -39q-32 0 -65.5 12.5t-74.5 40.5q-6 4 -13 9q-72 51 -107 51q-39 0 -66.5 -17.5t-64.5 -72.5l-67 45q47 79 100 117t119 38
q33 0 68 -12.5t75 -40.5q7 -4 21 -14q67 -45 98 -45q41 0 70 18t65 72z" />
    <glyph glyph-name="OE" unicode="&#x152;" horiz-adv-x="2437" 
d="M2529 1544l-24 -162h-611l-73 -469h610l-27 -161h-610l-92 -590h610l-26 -162h-783l49 307q-126 -162 -303.5 -250t-378.5 -88q-302 0 -493 187.5t-191 480.5q0 40 2.5 73t8.5 63q54 343 318.5 572.5t608.5 229.5q203 0 352 -86t224 -246l47 301h782zM1626 772
q4 25 6 52.5t2 58.5q0 234 -148.5 382t-387.5 148q-285 0 -484.5 -186t-242.5 -455q-4 -26 -6.5 -53.5t-2.5 -59.5q0 -234 147 -381t386 -147q270 0 479.5 184.5t251.5 456.5z" />
    <glyph glyph-name="oe" unicode="&#x153;" horiz-adv-x="1925" 
d="M1931 509l-8 -56l-760 -1q-1 -9 -1.5 -21t-0.5 -34q0 -130 68.5 -200t193.5 -70q104 0 181 41t133 125l125 -72q-88 -127 -203 -189.5t-262 -62.5q-141 0 -235 65.5t-126 186.5q-81 -118 -202.5 -185t-258.5 -67q-188 0 -311 121t-123 307q0 20 1.5 41.5t4.5 42.5
q34 214 203.5 359t384.5 145q140 0 243 -67t144 -183q73 118 187 184t243 66q178 0 282.5 -102.5t104.5 -276.5q0 -17 -1.5 -36.5t-6.5 -60.5zM1778 569v25q0 113 -65.5 174t-184.5 61t-214 -71t-128 -189h592zM1004 481q2 11 3 23.5t1 38.5q0 127 -83 206.5t-212 79.5
q-149 0 -263.5 -98.5t-138.5 -249.5q-2 -11 -3 -23.5t-1 -37.5q0 -130 82.5 -211.5t212.5 -81.5q147 0 262 101t140 253z" />
    <glyph glyph-name="endash" unicode="&#x2013;" horiz-adv-x="1024" 
d="M1120 608l-20 -131h-1024l20 131h1024z" />
    <glyph glyph-name="emdash" unicode="&#x2014;" horiz-adv-x="2048" 
d="M1939 608l-20 -131h-1638l20 131h1638z" />
    <glyph glyph-name="quotedblleft" unicode="&#x201c;" horiz-adv-x="936" 
d="M1049 1536l-279 -547l-156 70l340 516zM705 1536l-279 -547l-156 70l340 516z" />
    <glyph glyph-name="quotedblright" unicode="&#x201d;" horiz-adv-x="936" 
d="M1071 1505l-336 -516l-94 39l279 547zM727 1505l-338 -516l-94 39l278 547z" />
    <glyph glyph-name="quoteleft" unicode="&#x2018;" horiz-adv-x="592" 
d="M705 1536l-279 -547l-156 70l340 516z" />
    <glyph glyph-name="quoteright" unicode="&#x2019;" horiz-adv-x="592" 
d="M698 1505l-338 -516l-94 39l279 547z" />
    <glyph glyph-name="divide" unicode="&#xf7;" horiz-adv-x="1262" 
d="M885 906q-8 -47 -45.5 -79t-83.5 -32q-42 0 -68 26t-26 66q0 3 1 9.5t1 8.5q7 46 44.5 78.5t84.5 32.5q41 0 67.5 -26t26.5 -66q0 -3 -1 -9t-1 -9zM1264 623l-21 -131h-1069l21 131h1069zM774 209q-8 -46 -45 -78.5t-82 -32.5q-41 0 -68.5 27t-27.5 68q0 3 1 8t1 8
q8 46 45.5 78t83.5 32q41 0 67.5 -26t26.5 -66q0 -3 -1 -9.5t-1 -8.5z" />
    <glyph glyph-name="lozenge" unicode="&#x25ca;" horiz-adv-x="1012" 
d="M506 1409l-385 -817l385 -825l385 825zM506 1653l500 -1061l-500 -1069l-500 1069z" />
    <glyph glyph-name="ydieresis" unicode="&#xff;" horiz-adv-x="1020" 
d="M1133 956l-857 -1488h-182l342 579l-264 909h178l199 -720l403 720h181zM1002 1233q-6 -42 -38.5 -70t-74.5 -28q-37 0 -61.5 23t-24.5 59q0 1 1 6.5t1 9.5q6 39 40 67.5t75 28.5q37 0 60.5 -22.5t23.5 -57.5q0 -1 -1 -6.5t-1 -9.5zM608 1233q-6 -42 -38.5 -70t-73.5 -28
q-37 0 -61.5 23t-24.5 59q0 2 1 7.5t1 8.5q6 39 40 67.5t75 28.5q37 0 60.5 -22.5t23.5 -57.5q-1 -2 -1.5 -7t-1.5 -9z" />
    <glyph glyph-name="Ydieresis" unicode="&#x178;" horiz-adv-x="1214" 
d="M1425 1544l-614 -835l-113 -709h-172l113 709l-363 835h193l283 -680l483 680h190zM1182 1823q-6 -42 -38.5 -70t-74.5 -28q-37 0 -61.5 23t-24.5 59q0 1 1 6.5t1 9.5q6 39 40 67.5t75 28.5q37 0 60.5 -22.5t23.5 -57.5q0 -1 -1 -6.5t-1 -9.5zM788 1823q-6 -42 -38.5 -70
t-73.5 -28q-37 0 -61.5 23t-24.5 59q0 2 1 7.5t1 8.5q6 39 40 67.5t75 28.5q37 0 60.5 -22.5t23.5 -57.5q-1 -2 -1.5 -7t-1.5 -9z" />
    <glyph glyph-name="fraction" unicode="&#x2044;" horiz-adv-x="330" 
d="M942 1544l-1188 -1544h-119l1186 1544h121z" />
    <glyph glyph-name="currency" unicode="&#xa4;" horiz-adv-x="1262" 
d="M1409 1503l-201 -174q31 -46 47.5 -103t16.5 -118q0 -18 -1.5 -36.5t-4.5 -36.5q-14 -83 -53 -159.5t-99 -138.5l148 -174l-80 -69l-146 174q-68 -50 -148.5 -76.5t-164.5 -26.5t-156 26.5t-125 76.5l-202 -174l-58 69l201 174q-31 47 -47.5 103t-16.5 118q1 20 2.5 39.5
t4.5 37.5q13 81 52 156.5t99 137.5l-147 174l82 72l145 -174q68 49 149 75.5t164 26.5q84 0 156 -26t125 -76l203 174zM1153 1034q2 9 3 21t1 37q0 129 -86 215t-217 86q-149 0 -271 -105t-145 -254q-2 -20 -3 -33.5t-1 -23.5q0 -129 87 -215t218 -86q148 0 269.5 105
t144.5 253z" />
    <glyph glyph-name="guilsinglleft" unicode="&#x2039;" horiz-adv-x="676" 
d="M676 881l-320 -404l193 -399l-119 -68l-215 467l363 469z" />
    <glyph glyph-name="guilsinglright" unicode="&#x203a;" horiz-adv-x="676" 
d="M612 477l-362 -467l-98 68l319 399l-192 404l118 65z" />
    <glyph glyph-name="fi" unicode="&#xfb01;" horiz-adv-x="1063" 
d="M1118 1333q-7 -46 -46 -79t-85 -33q-41 0 -68.5 27t-27.5 67q0 3 1 9.5t1 8.5q8 46 46.5 79.5t84.5 33.5q41 0 68.5 -27t27.5 -67q0 -4 -1 -10t-1 -9zM809 1699l-23 -149q-17 10 -37 14.5t-42 4.5q-73 0 -105 -51.5t-55 -194.5l-58 -367h195l-22 -147h-195l-129 -809
h-164l129 809h-113l23 147h113l59 371q33 208 108 297.5t218 89.5q29 0 53.5 -3.5t44.5 -11.5zM1028 956l-151 -956h-164l151 956h164z" />
    <glyph glyph-name="fl" unicode="&#xfb02;" horiz-adv-x="1026" 
d="M1145 1690l-268 -1690h-164l268 1690h164zM809 1699l-23 -149q-17 10 -37 14.5t-42 4.5q-73 0 -105 -51.5t-55 -194.5l-58 -367h195l-22 -147h-195l-129 -809h-164l129 809h-113l23 147h113l59 371q33 208 108 297.5t218 89.5q29 0 53.5 -3.5t44.5 -11.5z" />
    <glyph glyph-name="daggerdbl" unicode="&#x2021;" horiz-adv-x="1212" 
d="M1255 1059l-22 -146h-397l-109 -686h397l-24 -147h-398l-79 -510h-166l80 510h-398l25 147h397l109 686h-398l23 146h397l76 485h166l-76 -485h397z" />
    <glyph glyph-name="periodcentered" unicode="&#xb7;" horiz-adv-x="631" 
d="M545 788q-8 -49 -48 -83.5t-89 -34.5q-44 0 -73.5 29t-29.5 71q0 3 1 9t1 9q8 49 48 83t89 34q45 0 74 -27.5t29 -70.5q0 -3 -1 -9t-1 -10z" />
    <glyph glyph-name="quotesinglbase" unicode="&#x201a;" horiz-adv-x="592" 
d="M430 178l-340 -516l-94 41l278 545z" />
    <glyph glyph-name="quotedblbase" unicode="&#x201e;" horiz-adv-x="950" 
d="M788 178l-337 -516l-95 41l277 545zM430 178l-340 -516l-94 41l278 545z" />
    <glyph glyph-name="perthousand" unicode="&#x2030;" horiz-adv-x="2482" 
d="M2454 338q-24 -147 -143.5 -252.5t-262.5 -105.5q-127 0 -211 85.5t-84 215.5q0 22 1 34t3 23q23 147 142.5 251.5t263.5 104.5q127 0 211 -85t84 -214q0 -23 -1 -34.5t-3 -22.5zM969 1208q-23 -147 -142 -252.5t-262 -105.5q-127 0 -212 86t-85 215q0 10 1 23t3 34
q23 147 142.5 252t263.5 105q128 0 211.5 -85.5t83.5 -213.5q0 -23 -1 -35t-3 -23zM1597 1544l-1200 -1544h-118l1200 1544h118zM1604 338q-23 -147 -143 -252.5t-263 -105.5q-127 0 -211 85.5t-84 215.5q0 22 1 34t3 23q23 147 142.5 251.5t263.5 104.5q127 0 211 -85
t84 -214q0 -23 -1 -34.5t-3 -22.5zM2318 337q3 19 3.5 27t0.5 15q0 83 -50.5 136.5t-129.5 53.5q-89 0 -162.5 -67.5t-89.5 -163.5v-5q-4 -24 -4 -34q0 -83 52 -138t130 -55q89 0 162 68t88 163zM834 1209l3 25.5t1 14.5q0 83 -51 137t-130 54q-89 0 -162.5 -67.5
t-88.5 -164.5q-3 -13 -4 -22t-1 -17q0 -82 53 -137t132 -55q88 0 160 67.5t88 164.5zM1468 337q3 19 3.5 27t1.5 15q0 83 -51 136.5t-130 53.5q-88 0 -162 -67.5t-90 -163.5v-5q-4 -24 -4 -34q0 -83 52 -138t131 -55q88 0 161 68t88 163z" />
    <glyph glyph-name="Acircumflex" unicode="&#xc2;" horiz-adv-x="1432" 
d="M1417 0h-190l-127 467h-641l-273 -467h-190l962 1587zM1061 614l-162 596l-350 -596h512zM1253 1727l-67 -68l-197 201l-258 -201l-47 68l332 295z" />
    <glyph glyph-name="Ecircumflex" unicode="&#xca;" horiz-adv-x="1094" 
d="M1186 1544l-25 -162h-610l-74 -469h610l-26 -161h-610l-93 -590h611l-27 -162h-782l243 1544h783zM1087 1727l-67 -68l-197 201l-258 -201l-47 68l332 295z" />
    <glyph glyph-name="Aacute" unicode="&#xc1;" horiz-adv-x="1432" 
d="M1417 0h-190l-127 467h-641l-273 -467h-190l962 1587zM1061 614l-162 596l-350 -596h512zM1229 1929l-336 -270l-51 66l315 301z" />
    <glyph glyph-name="Edieresis" unicode="&#xcb;" horiz-adv-x="1094" 
d="M1186 1544l-25 -162h-610l-74 -469h610l-26 -161h-610l-93 -590h611l-27 -162h-782l243 1544h783zM1114 1823q-6 -42 -38.5 -70t-74.5 -28q-37 0 -61.5 23t-24.5 59q0 1 1 6.5t1 9.5q6 39 40 67.5t75 28.5q37 0 60.5 -22.5t23.5 -57.5q0 -1 -1 -6.5t-1 -9.5zM720 1823
q-6 -42 -38.5 -70t-73.5 -28q-37 0 -61.5 23t-24.5 59q0 2 1 7.5t1 8.5q6 39 40 67.5t75 28.5q37 0 60.5 -22.5t23.5 -57.5q-1 -2 -1.5 -7t-1.5 -9z" />
    <glyph glyph-name="Egrave" unicode="&#xc8;" horiz-adv-x="1094" 
d="M1186 1544l-25 -162h-610l-74 -469h610l-26 -161h-610l-93 -590h611l-27 -162h-782l243 1544h783zM930 1725l-74 -66l-248 270l99 97z" />
    <glyph glyph-name="Iacute" unicode="&#xcd;" horiz-adv-x="489" 
d="M575 1544l-243 -1544h-172l243 1544h172zM769 1929l-336 -270l-51 66l315 301z" />
    <glyph glyph-name="Icircumflex" unicode="&#xce;" horiz-adv-x="489" 
d="M575 1544l-243 -1544h-172l243 1544h172zM793 1727l-67 -68l-197 201l-258 -201l-47 68l332 295z" />
    <glyph glyph-name="Idieresis" unicode="&#xcf;" horiz-adv-x="489" 
d="M575 1544l-243 -1544h-172l243 1544h172zM820 1823q-6 -42 -38.5 -70t-74.5 -28q-37 0 -61.5 23t-24.5 59q0 1 1 6.5t1 9.5q6 39 40 67.5t75 28.5q37 0 60.5 -22.5t23.5 -57.5q0 -1 -1 -6.5t-1 -9.5zM426 1823q-6 -42 -38.5 -70t-73.5 -28q-37 0 -61.5 23t-24.5 59
q0 2 1 7.5t1 8.5q6 39 40 67.5t75 28.5q37 0 60.5 -22.5t23.5 -57.5q-1 -2 -1.5 -7t-1.5 -9z" />
    <glyph glyph-name="Igrave" unicode="&#xcc;" horiz-adv-x="489" 
d="M575 1544l-243 -1544h-172l243 1544h172zM636 1725l-74 -66l-248 270l99 97z" />
    <glyph glyph-name="Oacute" unicode="&#xd3;" horiz-adv-x="1765" 
d="M1815 773q-54 -340 -324.5 -572t-611.5 -232q-305 0 -499 189.5t-194 482.5q0 28 2.5 60t8.5 72q53 342 321.5 572t614.5 230q307 0 499.5 -186.5t192.5 -481.5q0 -39 -2.5 -71.5t-7.5 -62.5zM1642 772q5 25 7 51t2 56q0 234 -152 384t-393 150q-286 0 -489.5 -187.5
t-245.5 -453.5q-4 -25 -6.5 -52t-2.5 -56q0 -235 150 -384t391 -149q272 0 485 185.5t254 455.5zM1409 1929l-336 -270l-51 66l315 301z" />
    <glyph glyph-name="Ocircumflex" unicode="&#xd4;" horiz-adv-x="1765" 
d="M1815 773q-54 -340 -324.5 -572t-611.5 -232q-305 0 -499 189.5t-194 482.5q0 28 2.5 60t8.5 72q53 342 321.5 572t614.5 230q307 0 499.5 -186.5t192.5 -481.5q0 -39 -2.5 -71.5t-7.5 -62.5zM1642 772q5 25 7 51t2 56q0 234 -152 384t-393 150q-286 0 -489.5 -187.5
t-245.5 -453.5q-4 -25 -6.5 -52t-2.5 -56q0 -235 150 -384t391 -149q272 0 485 185.5t254 455.5zM1433 1727l-67 -68l-197 201l-258 -201l-47 68l332 295z" />
    <glyph glyph-name="Ograve" unicode="&#xd2;" horiz-adv-x="1765" 
d="M1815 773q-54 -340 -324.5 -572t-611.5 -232q-305 0 -499 189.5t-194 482.5q0 28 2.5 60t8.5 72q53 342 321.5 572t614.5 230q307 0 499.5 -186.5t192.5 -481.5q0 -39 -2.5 -71.5t-7.5 -62.5zM1642 772q5 25 7 51t2 56q0 234 -152 384t-393 150q-286 0 -489.5 -187.5
t-245.5 -453.5q-4 -25 -6.5 -52t-2.5 -56q0 -235 150 -384t391 -149q272 0 485 185.5t254 455.5zM1276 1725l-74 -66l-248 270l99 97z" />
    <glyph glyph-name="Uacute" unicode="&#xda;" horiz-adv-x="1403" 
d="M1487 1544l-152 -966q-48 -308 -205 -458.5t-432 -150.5q-230 0 -345 109.5t-115 329.5q0 43 3.5 85t10.5 85l151 966h172l-157 -1001q-6 -38 -8 -65.5t-2 -51.5q0 -148 78 -221.5t237 -73.5q188 0 294.5 101t139.5 311l158 1001h172zM1215 1929l-336 -270l-51 66
l315 301z" />
    <glyph glyph-name="Ucircumflex" unicode="&#xdb;" horiz-adv-x="1403" 
d="M1487 1544l-152 -966q-48 -308 -205 -458.5t-432 -150.5q-230 0 -345 109.5t-115 329.5q0 43 3.5 85t10.5 85l151 966h172l-157 -1001q-6 -38 -8 -65.5t-2 -51.5q0 -148 78 -221.5t237 -73.5q188 0 294.5 101t139.5 311l158 1001h172zM1239 1727l-67 -68l-197 201
l-258 -201l-47 68l332 295z" />
    <glyph glyph-name="Ugrave" unicode="&#xd9;" horiz-adv-x="1403" 
d="M1487 1544l-152 -966q-48 -308 -205 -458.5t-432 -150.5q-230 0 -345 109.5t-115 329.5q0 43 3.5 85t10.5 85l151 966h172l-157 -1001q-6 -38 -8 -65.5t-2 -51.5q0 -148 78 -221.5t237 -73.5q188 0 294.5 101t139.5 311l158 1001h172zM1082 1725l-74 -66l-248 270l99 97z
" />
    <glyph glyph-name="dotlessi" unicode="&#x131;" horiz-adv-x="537" 
d="M502 956l-152 -956h-164l152 956h164z" />
    <glyph glyph-name="circumflex" unicode="&#x2c6;" horiz-adv-x="963" 
d="M946 1137l-67 -68l-197 201l-258 -201l-47 68l332 295z" />
    <glyph glyph-name="tilde" unicode="&#x2dc;" horiz-adv-x="1036" 
d="M1053 1272q-47 -80 -102.5 -119t-121.5 -39q-32 0 -65.5 12.5t-74.5 40.5q-6 4 -13 9q-72 51 -107 51q-39 0 -66.5 -17.5t-64.5 -72.5l-67 45q47 79 100 117t119 38q33 0 68 -12.5t75 -40.5q7 -4 21 -14q67 -45 98 -45q41 0 70 18t65 72z" />
    <glyph glyph-name="uni02C9" unicode="&#x2c9;" horiz-adv-x="1022" 
d="M989 1282l-18 -117h-551l18 117h551z" />
    <glyph glyph-name="breve" unicode="&#x2d8;" horiz-adv-x="993" 
d="M999 1341q-45 -125 -125.5 -186t-201.5 -61q-122 0 -186 63t-66 184l86 27q6 -80 52 -120t130 -40t141.5 40t90.5 120z" />
    <glyph glyph-name="dotaccent" unicode="&#x2d9;" horiz-adv-x="733" 
d="M666 1235q-7 -43 -40.5 -72.5t-76.5 -29.5q-38 0 -63 24t-25 62q0 3 1 8t1 8q6 41 40.5 70.5t76.5 29.5q38 0 63 -23.5t25 -60.5q0 -1 -1 -6.5t-1 -9.5z" />
    <glyph glyph-name="ring" unicode="&#x2da;" horiz-adv-x="717" 
d="M803 1291q-15 -100 -96.5 -170t-182.5 -70q-88 0 -145 56.5t-57 143.5q0 12 3 34q0 3 1 5q15 100 95 170t179 70q89 0 147 -57.5t58 -145.5q0 -15 -0.5 -22.5t-1.5 -13.5zM721 1290q1 4 1.5 9.5t0.5 15.5q0 57 -38.5 95t-96.5 38q-65 0 -117 -46t-63 -111
q-3 -11 -4 -16.5t-1 -8.5q0 -57 39 -95t97 -38q64 0 117.5 46t64.5 111z" />
    <glyph glyph-name="cedilla" unicode="&#xb8;" horiz-adv-x="666" 
d="M446 -102l-276 -320l-70 53l250 338z" />
    <glyph glyph-name="hungarumlaut" unicode="&#x2dd;" horiz-adv-x="956" 
d="M1006 1356l-287 -287l-60 57l263 310zM758 1370l-264 -301l-70 47l238 320z" />
    <glyph glyph-name="ogonek" unicode="&#x2db;" horiz-adv-x="690" 
d="M416 0q-65 -55 -108 -117.5t-52 -115.5q-1 -6 -1.5 -11.5t-0.5 -15.5q0 -45 34 -65.5t109 -20.5l-18 -115q-137 0 -196.5 34t-59.5 112q0 13 3 39q1 4 1 6q10 65 63.5 138.5t133.5 131.5h92z" />
    <glyph glyph-name="caron" unicode="&#x2c7;" horiz-adv-x="963" 
d="M981 1354l-332 -297l-237 297l67 65l195 -200l260 200z" />
    <glyph glyph-name="thinspace" unicode="&#x2009;" horiz-adv-x="631" 
 />
    <glyph glyph-name="enspace" unicode="&#x2002;" horiz-adv-x="1024" 
 />
    <glyph glyph-name="emspace" unicode="&#x2003;" horiz-adv-x="2048" 
 />
    <glyph glyph-name="sfthyphen" unicode="&#xad;" horiz-adv-x="426" 
d="M494 621l-25 -156h-365l25 156h365z" />
    <glyph glyph-name="franc" unicode="&#x20a3;" horiz-adv-x="1665" 
d="M1120 1544l-24 -162h-545l-74 -469h545l-27 -161h-544l-119 -752h-172l243 1544h717zM1815 967l-66 -162q-15 11 -35.5 16.5t-44.5 5.5q-121 0 -198.5 -103.5t-110.5 -309.5l-66 -414h-163l151 956h164l-27 -168q50 103 123.5 150t184.5 47q26 0 50.5 -5t37.5 -13z" />
    <glyph glyph-name="macron" unicode="&#xaf;" horiz-adv-x="1024" 
d="M1024 1565v-119h-1024v119h1024z" />
    <glyph glyph-name="brokenbar" unicode="&#xa6;" horiz-adv-x="1167" 
d="M874 1411l-118 -758h-135l118 758h135zM713 387l-121 -758h-135l121 758h135z" />
    <glyph glyph-name="minus" unicode="&#x2212;" horiz-adv-x="1262" 
d="M1264 623l-21 -131h-1069l21 131h1069z" />
    <glyph glyph-name="multiply" unicode="&#xd7;" horiz-adv-x="1262" 
d="M1266 950l-457 -391l348 -409l-110 -95l-345 410l-452 -393l-78 92l455 391l-346 408l110 94l344 -408l455 393z" />
    <glyph glyph-name="onequarter" unicode="&#xbc;" horiz-adv-x="1892" 
d="M1786 311l-17 -106h-133l-32 -205h-129l32 205h-491l737 739l-100 -633h133zM1694 1544l-1200 -1544h-119l1200 1544h119zM713 1544l-142 -901h-129l123 780h-180l84 121h244zM1575 633l-320 -322h269z" />
    <glyph glyph-name="onehalf" unicode="&#xbd;" horiz-adv-x="1892" 
d="M1880 657q-15 -90 -76 -173.5t-209 -211.5l-176 -153h381l-18 -119h-637q80 72 389 365q113 106 159.5 167t55.5 119q1 6 1.5 12t0.5 17q0 59 -40 91t-114 32q-82 0 -137.5 -50t-68.5 -132h-125q21 138 117 219.5t237 81.5q123 0 193.5 -59.5t70.5 -160.5q0 -13 -3 -39
q-1 -4 -1 -6zM1688 1544l-1201 -1544h-118l1200 1544h119zM707 1544l-142 -901h-129l123 780h-182l84 121h246z" />
    <glyph glyph-name="threequarters" unicode="&#xbe;" horiz-adv-x="1892" 
d="M1786 311l-17 -106h-133l-32 -205h-129l32 205h-491l737 739l-100 -633h133zM1710 1544l-1200 -1544h-119l1200 1544h119zM856 1319q-12 -80 -57 -131.5t-115 -65.5q61 -16 94 -62.5t33 -115.5q0 -14 -4 -43v-4q-20 -125 -116 -199.5t-236 -74.5q-119 0 -184.5 58.5
t-65.5 162.5q0 9 0.5 19.5t3.5 33.5h133q-1 -5 -1.5 -11.5t-0.5 -19.5q0 -59 34.5 -92t98.5 -33q79 0 135 45t68 116q1 5 1.5 11t0.5 19q0 61 -39 97t-107 36h-36l18 109h41q72 0 117 33.5t55 95.5q1 4 1.5 9.5t0.5 16.5q0 54 -35.5 85.5t-97.5 31.5q-72 0 -122 -36.5
t-58 -92.5h-121q20 108 108.5 178t210.5 70q116 0 181 -53.5t65 -147.5q0 -9 -1 -19.5t-3 -25.5zM1575 633l-320 -322h269z" />
    <glyph glyph-name="onesuperior" unicode="&#xb9;" horiz-adv-x="756" 
d="M713 1544l-142 -901h-129l123 780h-180l84 121h244z" />
    <glyph glyph-name="twosuperior" unicode="&#xb2;" horiz-adv-x="756" 
d="M879 1301q-15 -91 -76.5 -174.5t-208.5 -211.5l-176 -153h381l-19 -119h-635q80 72 387 365q116 108 162.5 169t55.5 118q1 5 1.5 11t0.5 17q0 59 -40.5 91t-113.5 32q-83 0 -139 -50t-70 -132h-125q22 137 118.5 219t238.5 82q122 0 192 -58.5t70 -158.5q0 -7 -1 -17.5
t-3 -29.5z" />
    <glyph glyph-name="threesuperior" unicode="&#xb3;" horiz-adv-x="756" 
d="M856 1319q-12 -80 -57 -131.5t-115 -65.5q61 -16 94 -62.5t33 -115.5q0 -14 -4 -43v-4q-20 -125 -116 -199.5t-236 -74.5q-119 0 -184.5 58.5t-65.5 162.5q0 9 0.5 19.5t3.5 33.5h133q-1 -5 -1.5 -11.5t-0.5 -19.5q0 -59 34.5 -92t98.5 -33q79 0 135 45t68 116
q1 5 1.5 11t0.5 19q0 61 -39 97t-107 36h-36l18 109h41q72 0 117 33.5t55 95.5q1 4 1.5 9.5t0.5 16.5q0 54 -35.5 85.5t-97.5 31.5q-72 0 -122 -36.5t-58 -92.5h-121q20 108 108.5 178t210.5 70q116 0 181 -53.5t65 -147.5q0 -9 -1 -19.5t-3 -25.5z" />
    <glyph glyph-name="periodcenter" unicode="&#x2219;" horiz-adv-x="631" 
d="M545 788q-8 -49 -48 -83.5t-89 -34.5q-44 0 -73.5 29t-29.5 71q0 3 1 9t1 9q8 49 48 83t89 34q45 0 74 -27.5t29 -70.5q0 -3 -1 -9t-1 -10z" />
    <glyph glyph-name="commaaccent" unicode="&#xf004;" horiz-adv-x="666" 
d="M446 -102l-276 -320l-70 53l250 338z" />
    <glyph glyph-name="Aogonek" unicode="&#x104;" horiz-adv-x="1432" 
d="M1417 0h-37q-64 -55 -107.5 -117.5t-51.5 -115.5q-1 -5 -1.5 -11t-0.5 -16q0 -45 33.5 -65.5t109.5 -20.5l-19 -115q-136 0 -196 34t-60 112q1 13 4 40q0 3 1 5q10 65 63.5 138.5t132.5 131.5h-61l-127 467h-641l-273 -467h-190l962 1587zM1061 614l-162 596l-350 -596
h512z" />
    <glyph glyph-name="Amacron" unicode="&#x100;" horiz-adv-x="1432" 
d="M1417 0h-190l-127 467h-641l-273 -467h-190l962 1587zM1061 614l-162 596l-350 -596h512zM1265 1872l-18 -117h-551l18 117h551z" />
    <glyph glyph-name="Abreve" unicode="&#x102;" horiz-adv-x="1432" 
d="M1417 0h-190l-127 467h-641l-273 -467h-190l962 1587zM1061 614l-162 596l-350 -596h512zM1290 1931q-45 -125 -125.5 -186t-201.5 -61q-122 0 -186 63t-66 184l86 27q6 -80 52 -120t130 -40t141.5 40t90.5 120z" />
    <glyph glyph-name="Cacute" unicode="&#x106;" horiz-adv-x="1468" 
d="M1614 1440l-31 -193q-83 78 -201.5 122t-240.5 44q-286 0 -507 -182.5t-265 -456.5q-4 -26 -6.5 -53.5t-2.5 -56.5q0 -236 154.5 -384.5t396.5 -148.5q136 0 277 44.5t246 121.5l-31 -197q-95 -55 -245 -93t-267 -38q-316 0 -511.5 183.5t-195.5 480.5q0 34 3 69t10 72
q53 340 327 570.5t623 230.5q145 0 267 -35.5t200 -99.5zM1405 1929l-336 -270l-51 66l315 301z" />
    <glyph glyph-name="Ccircumflex" unicode="&#x108;" horiz-adv-x="1468" 
d="M1614 1440l-31 -193q-83 78 -201.5 122t-240.5 44q-286 0 -507 -182.5t-265 -456.5q-4 -26 -6.5 -53.5t-2.5 -56.5q0 -236 154.5 -384.5t396.5 -148.5q136 0 277 44.5t246 121.5l-31 -197q-95 -55 -245 -93t-267 -38q-316 0 -511.5 183.5t-195.5 480.5q0 34 3 69t10 72
q53 340 327 570.5t623 230.5q145 0 267 -35.5t200 -99.5zM1429 1727l-67 -68l-197 201l-258 -201l-47 68l332 295z" />
    <glyph glyph-name="Ccaron" unicode="&#x10c;" horiz-adv-x="1468" 
d="M1614 1440l-31 -193q-83 78 -201.5 122t-240.5 44q-286 0 -507 -182.5t-265 -456.5q-4 -26 -6.5 -53.5t-2.5 -56.5q0 -236 154.5 -384.5t396.5 -148.5q136 0 277 44.5t246 121.5l-31 -197q-95 -55 -245 -93t-267 -38q-316 0 -511.5 183.5t-195.5 480.5q0 34 3 69t10 72
q53 340 327 570.5t623 230.5q145 0 267 -35.5t200 -99.5zM1464 1944l-332 -297l-237 297l67 65l195 -200l260 200z" />
    <glyph glyph-name="Cdot" unicode="&#x10a;" horiz-adv-x="1468" 
d="M1614 1440l-31 -193q-83 78 -201.5 122t-240.5 44q-286 0 -507 -182.5t-265 -456.5q-4 -26 -6.5 -53.5t-2.5 -56.5q0 -236 154.5 -384.5t396.5 -148.5q136 0 277 44.5t246 121.5l-31 -197q-95 -55 -245 -93t-267 -38q-316 0 -511.5 183.5t-195.5 480.5q0 34 3 69t10 72
q53 340 327 570.5t623 230.5q145 0 267 -35.5t200 -99.5zM1264 1825q-7 -43 -40.5 -72.5t-76.5 -29.5q-38 0 -63 24t-25 62q0 3 1 8t1 8q6 41 40.5 70.5t76.5 29.5q38 0 63 -23.5t25 -60.5q0 -1 -1 -6.5t-1 -9.5z" />
    <glyph glyph-name="Dcaron" unicode="&#x10e;" horiz-adv-x="1389" 
d="M1438 770q-61 -381 -310.5 -575.5t-674.5 -194.5h-293l243 1544h304q363 0 554 -157t191 -453q0 -33 -3.5 -71t-10.5 -93zM1266 772q6 35 9 69t3 66q0 233 -148 354t-434 121h-145l-193 -1220h127q354 0 543 149t238 461zM1278 1944l-332 -297l-237 297l67 65l195 -200
l260 200z" />
    <glyph glyph-name="Eth" unicode="&#xd0;" horiz-adv-x="1389" 
d="M1438 770q-61 -381 -310.5 -575.5t-674.5 -194.5h-293l112 717h-159l22 139h160l108 688h304q363 0 554 -157t191 -453q0 -33 -3.5 -71t-10.5 -93zM1266 772q6 35 9 69t3 66q0 233 -148 354t-434 121h-145l-84 -526h389l-22 -139h-390l-86 -555h127q354 0 543 149
t238 461z" />
    <glyph glyph-name="Dslash" unicode="&#x110;" horiz-adv-x="1389" 
d="M1438 770q-61 -381 -310.5 -575.5t-674.5 -194.5h-293l112 717h-159l22 139h160l108 688h304q363 0 554 -157t191 -453q0 -33 -3.5 -71t-10.5 -93zM1266 772q6 35 9 69t3 66q0 233 -148 354t-434 121h-145l-84 -526h389l-22 -139h-390l-86 -555h127q354 0 543 149
t238 461z" />
    <glyph glyph-name="Eogonek" unicode="&#x118;" horiz-adv-x="1094" 
d="M1186 1544l-25 -162h-610l-74 -469h610l-26 -161h-610l-93 -590h611l-27 -162h-37q-64 -55 -107.5 -117.5t-52.5 -116.5q-1 -5 -1.5 -10.5t-0.5 -15.5q0 -45 34 -65.5t110 -20.5l-19 -115q-136 0 -196 34t-60 112q0 12 4 40v5q11 65 64 138.5t133 131.5h-653l243 1544
h783z" />
    <glyph glyph-name="Ecaron" unicode="&#x11a;" horiz-adv-x="1094" 
d="M1186 1544l-25 -162h-610l-74 -469h610l-26 -161h-610l-93 -590h611l-27 -162h-782l243 1544h783zM1122 1944l-332 -297l-237 297l67 65l195 -200l260 200z" />
    <glyph glyph-name="Emacron" unicode="&#x112;" horiz-adv-x="1094" 
d="M1186 1544l-25 -162h-610l-74 -469h610l-26 -161h-610l-93 -590h611l-27 -162h-782l243 1544h783zM1102 1872l-18 -117h-551l18 117h551z" />
    <glyph glyph-name="Ebreve" unicode="&#x114;" horiz-adv-x="1094" 
d="M1186 1544l-25 -162h-610l-74 -469h610l-26 -161h-610l-93 -590h611l-27 -162h-782l243 1544h783zM1126 1931q-45 -125 -125.5 -186t-201.5 -61q-122 0 -186 63t-66 184l86 27q6 -80 52 -120t130 -40t141.5 40t90.5 120z" />
    <glyph glyph-name="Edot" unicode="&#x116;" horiz-adv-x="1094" 
d="M1186 1544l-25 -162h-610l-74 -469h610l-26 -161h-610l-93 -590h611l-27 -162h-782l243 1544h783zM922 1825q-7 -43 -40.5 -72.5t-76.5 -29.5q-38 0 -63 24t-25 62q0 3 1 8t1 8q6 41 40.5 70.5t76.5 29.5q38 0 63 -23.5t25 -60.5q0 -1 -1 -6.5t-1 -9.5z" />
    <glyph glyph-name="Gcircumflex" unicode="&#x11c;" horiz-adv-x="1679" 
d="M1731 782q-59 -370 -295.5 -591.5t-583.5 -221.5q-299 0 -483.5 182t-184.5 476q0 34 3 70t10 75q55 344 312 573.5t589 229.5q213 0 362.5 -79.5t231.5 -235.5l-146 -103q-64 124 -184.5 190t-282.5 66q-264 0 -465.5 -184.5t-246.5 -466.5q-5 -25 -7 -52t-2 -57
q0 -228 145 -375t374 -147t409 140t230 352h-484l27 159h672zM1388 1727l-67 -68l-197 201l-258 -201l-47 68l332 295z" />
    <glyph glyph-name="Gcedilla" unicode="&#x122;" horiz-adv-x="1679" 
d="M1731 782q-59 -370 -295.5 -591.5t-583.5 -221.5q-299 0 -483.5 182t-184.5 476q0 34 3 70t10 75q55 344 312 573.5t589 229.5q213 0 362.5 -79.5t231.5 -235.5l-146 -103q-64 124 -184.5 190t-282.5 66q-264 0 -465.5 -184.5t-246.5 -466.5q-5 -25 -7 -52t-2 -57
q0 -228 145 -375t374 -147t409 140t230 352h-484l27 159h672zM954 -102l-276 -320l-70 53l250 338z" />
    <glyph glyph-name="Gbreve" unicode="&#x11e;" horiz-adv-x="1679" 
d="M1731 782q-59 -370 -295.5 -591.5t-583.5 -221.5q-299 0 -483.5 182t-184.5 476q0 34 3 70t10 75q55 344 312 573.5t589 229.5q213 0 362.5 -79.5t231.5 -235.5l-146 -103q-64 124 -184.5 190t-282.5 66q-264 0 -465.5 -184.5t-246.5 -466.5q-5 -25 -7 -52t-2 -57
q0 -228 145 -375t374 -147t409 140t230 352h-484l27 159h672zM1425 1931q-45 -125 -125.5 -186t-201.5 -61q-122 0 -186 63t-66 184l86 27q6 -80 52 -120t130 -40t141.5 40t90.5 120z" />
    <glyph glyph-name="Gdot" unicode="&#x120;" horiz-adv-x="1679" 
d="M1731 782q-59 -370 -295.5 -591.5t-583.5 -221.5q-299 0 -483.5 182t-184.5 476q0 34 3 70t10 75q55 344 312 573.5t589 229.5q213 0 362.5 -79.5t231.5 -235.5l-146 -103q-64 124 -184.5 190t-282.5 66q-264 0 -465.5 -184.5t-246.5 -466.5q-5 -25 -7 -52t-2 -57
q0 -228 145 -375t374 -147t409 140t230 352h-484l27 159h672zM1223 1825q-7 -43 -40.5 -72.5t-76.5 -29.5q-38 0 -63 24t-25 62q0 3 1 8t1 8q6 41 40.5 70.5t76.5 29.5q38 0 63 -23.5t25 -60.5q0 -1 -1 -6.5t-1 -9.5z" />
    <glyph glyph-name="Hcircumflex" unicode="&#x124;" horiz-adv-x="1462" 
d="M1546 1544l-243 -1544h-173l119 750h-798l-119 -750h-172l243 1544h172l-100 -633h799l100 633h172zM1280 1727l-67 -68l-197 201l-258 -201l-47 68l332 295z" />
    <glyph glyph-name="Itilde" unicode="&#x128;" horiz-adv-x="489" 
d="M575 1544l-243 -1544h-172l243 1544h172zM864 1862q-47 -80 -102.5 -119t-121.5 -39q-32 0 -65.5 12.5t-74.5 40.5q-6 4 -13 9q-72 51 -107 51q-39 0 -66.5 -17.5t-64.5 -72.5l-67 45q47 79 100 117t119 38q33 0 68 -12.5t75 -40.5q7 -4 21 -14q67 -45 98 -45q41 0 70 18
t65 72z" />
    <glyph glyph-name="Imacron" unicode="&#x12a;" horiz-adv-x="489" 
d="M575 1544l-243 -1544h-172l243 1544h172zM808 1872l-18 -117h-551l18 117h551z" />
    <glyph glyph-name="Ibreve" unicode="&#x12c;" horiz-adv-x="489" 
d="M575 1544l-243 -1544h-172l243 1544h172zM832 1931q-45 -125 -125.5 -186t-201.5 -61q-122 0 -186 63t-66 184l86 27q6 -80 52 -120t130 -40t141.5 40t90.5 120z" />
    <glyph glyph-name="Idotaccent" unicode="&#x130;" horiz-adv-x="489" 
d="M575 1544l-243 -1544h-172l243 1544h172zM628 1825q-7 -43 -40.5 -72.5t-76.5 -29.5q-38 0 -63 24t-25 62q0 3 1 8t1 8q6 41 40.5 70.5t76.5 29.5q38 0 63 -23.5t25 -60.5q0 -1 -1 -6.5t-1 -9.5z" />
    <glyph glyph-name="Iogonek" unicode="&#x12e;" horiz-adv-x="489" 
d="M575 1544l-243 -1544h-37q-65 -55 -108 -117.5t-52 -116.5q-1 -5 -1.5 -10.5t-0.5 -15.5q0 -45 34 -65.5t109 -20.5l-18 -115q-137 0 -196.5 34t-59.5 112q0 12 3 39q1 4 1 6q10 65 63.5 138.5t133.5 131.5h-43l243 1544h172z" />
    <glyph glyph-name="Kcedilla" unicode="&#x136;" horiz-adv-x="1251" 
d="M1442 1544l-793 -727l578 -817h-219l-549 799l-127 -799h-172l243 1544h172l-112 -723l772 723h207zM739 -102l-276 -320l-70 53l250 338z" />
    <glyph glyph-name="Ldot" unicode="&#x13f;" horiz-adv-x="1399" 
d="M768 158l-25 -158h-583l243 1544h172l-219 -1386h412zM1313 788q-8 -49 -48 -83.5t-89 -34.5q-44 0 -73.5 29t-29.5 71q0 3 1 9t1 9q8 49 48 83t89 34q45 0 74 -27.5t29 -70.5q0 -3 -1 -9t-1 -10z" />
    <glyph glyph-name="Lcaron" unicode="&#x13d;" horiz-adv-x="768" 
d="M1047 1505l-338 -516l-95 39l279 547zM768 158l-25 -158h-583l243 1544h172l-219 -1386h412z" />
    <glyph glyph-name="Lacute" unicode="&#x139;" horiz-adv-x="768" 
d="M768 158l-25 -158h-583l243 1544h172l-219 -1386h412zM757 1929l-336 -270l-51 66l315 301z" />
    <glyph glyph-name="Lcedilla" unicode="&#x13b;" horiz-adv-x="768" 
d="M768 158l-25 -158h-583l243 1544h172l-219 -1386h412zM497 -102l-276 -320l-70 53l250 338z" />
    <glyph glyph-name="Lslash" unicode="&#x141;" horiz-adv-x="768" 
d="M782 961l-333 -222l-93 -581h412l-25 -158h-583l102 645l-119 -78l-57 107l201 133l116 737h172l-100 -643l250 166z" />
    <glyph glyph-name="Nacute" unicode="&#x143;" horiz-adv-x="1708" 
d="M1782 1544l-250 -1587l-1004 1217l-186 -1174h-172l252 1587l1003 -1214l185 1171h172zM1348 1929l-336 -270l-51 66l315 301z" />
    <glyph glyph-name="Ncaron" unicode="&#x147;" horiz-adv-x="1708" 
d="M1782 1544l-250 -1587l-1004 1217l-186 -1174h-172l252 1587l1003 -1214l185 1171h172zM1407 1944l-332 -297l-237 297l67 65l195 -200l260 200z" />
    <glyph glyph-name="Ncedilla" unicode="&#x145;" horiz-adv-x="1708" 
d="M1782 1544l-250 -1587l-1004 1217l-186 -1174h-172l252 1587l1003 -1214l185 1171h172zM968 -102l-276 -320l-70 53l250 338z" />
    <glyph glyph-name="Omacron" unicode="&#x14c;" horiz-adv-x="1765" 
d="M1815 773q-54 -340 -324.5 -572t-611.5 -232q-305 0 -499 189.5t-194 482.5q0 28 2.5 60t8.5 72q53 342 321.5 572t614.5 230q307 0 499.5 -186.5t192.5 -481.5q0 -39 -2.5 -71.5t-7.5 -62.5zM1642 772q5 25 7 51t2 56q0 234 -152 384t-393 150q-286 0 -489.5 -187.5
t-245.5 -453.5q-4 -25 -6.5 -52t-2.5 -56q0 -235 150 -384t391 -149q272 0 485 185.5t254 455.5zM1448 1872l-18 -117h-551l18 117h551z" />
    <glyph glyph-name="Obreve" unicode="&#x14e;" horiz-adv-x="1765" 
d="M1815 773q-54 -340 -324.5 -572t-611.5 -232q-305 0 -499 189.5t-194 482.5q0 28 2.5 60t8.5 72q53 342 321.5 572t614.5 230q307 0 499.5 -186.5t192.5 -481.5q0 -39 -2.5 -71.5t-7.5 -62.5zM1642 772q5 25 7 51t2 56q0 234 -152 384t-393 150q-286 0 -489.5 -187.5
t-245.5 -453.5q-4 -25 -6.5 -52t-2.5 -56q0 -235 150 -384t391 -149q272 0 485 185.5t254 455.5zM1472 1931q-45 -125 -125.5 -186t-201.5 -61q-122 0 -186 63t-66 184l86 27q6 -80 52 -120t130 -40t141.5 40t90.5 120z" />
    <glyph glyph-name="Odblacute" unicode="&#x150;" horiz-adv-x="1765" 
d="M1815 773q-54 -340 -324.5 -572t-611.5 -232q-305 0 -499 189.5t-194 482.5q0 28 2.5 60t8.5 72q53 342 321.5 572t614.5 230q307 0 499.5 -186.5t192.5 -481.5q0 -39 -2.5 -71.5t-7.5 -62.5zM1642 772q5 25 7 51t2 56q0 234 -152 384t-393 150q-286 0 -489.5 -187.5
t-245.5 -453.5q-4 -25 -6.5 -52t-2.5 -56q0 -235 150 -384t391 -149q272 0 485 185.5t254 455.5zM1498 1946l-287 -287l-60 57l263 310zM1250 1960l-264 -301l-70 47l238 320z" />
    <glyph glyph-name="Thorn" unicode="&#xde;" horiz-adv-x="1030" 
d="M1073 784q-33 -210 -190 -320t-424 -110h-72l-55 -354h-172l243 1544h172l-51 -327h72q243 0 364 -85t121 -255q0 -25 -2 -48t-6 -45zM901 784q3 17 4.5 32t1.5 30q0 109 -78.5 159t-253.5 50h-75l-86 -539h75q203 0 296.5 62.5t115.5 205.5z" />
    <glyph glyph-name="Racute" unicode="&#x154;" horiz-adv-x="1110" 
d="M1165 1128q-28 -179 -154.5 -283.5t-324.5 -109.5l379 -735h-209l-358 729h-52l-114 -729h-172l243 1544h322q220 0 333 -85t113 -249q0 -20 -1.5 -40t-4.5 -42zM993 1122q2 11 3 23t1 35q0 104 -75.5 153t-237.5 49h-133l-80 -505h133q184 0 276.5 58t112.5 187z
M1079 1929l-336 -270l-51 66l315 301z" />
    <glyph glyph-name="Rcaron" unicode="&#x158;" horiz-adv-x="1110" 
d="M1165 1128q-28 -179 -154.5 -283.5t-324.5 -109.5l379 -735h-209l-358 729h-52l-114 -729h-172l243 1544h322q220 0 333 -85t113 -249q0 -20 -1.5 -40t-4.5 -42zM993 1122q2 11 3 23t1 35q0 104 -75.5 153t-237.5 49h-133l-80 -505h133q184 0 276.5 58t112.5 187z
M1139 1944l-332 -297l-237 297l67 65l195 -200l260 200z" />
    <glyph glyph-name="Rcedilla" unicode="&#x156;" horiz-adv-x="1110" 
d="M1165 1128q-28 -179 -154.5 -283.5t-324.5 -109.5l379 -735h-209l-358 729h-52l-114 -729h-172l243 1544h322q220 0 333 -85t113 -249q0 -20 -1.5 -40t-4.5 -42zM993 1122q2 11 3 23t1 35q0 104 -75.5 153t-237.5 49h-133l-80 -505h133q184 0 276.5 58t112.5 187z
M669 -102l-276 -320l-70 53l250 338z" />
    <glyph glyph-name="Sacute" unicode="&#x15a;" horiz-adv-x="1145" 
d="M1149 1393l-135 -109q-26 62 -84.5 95.5t-138.5 33.5q-113 0 -187 -57t-90 -154q0 -2 -1 -6q-3 -26 -3 -39q0 -66 42 -117.5t163 -124.5l11 -6q355 -210 355 -422q0 -18 -1.5 -37t-4.5 -39q-32 -205 -178.5 -323.5t-368.5 -118.5q-153 0 -257 70t-136 194l139 105
q21 -97 97.5 -152t187.5 -55q141 0 231 72t111 203q0 1 1 5q3 26 3 42q0 85 -63 155t-205 146q-166 88 -234.5 170t-68.5 192q0 19 1.5 38.5t4.5 39.5q27 170 160.5 275.5t324.5 105.5q117 0 198 -46t126 -136zM1096 1929l-336 -270l-51 66l315 301z" />
    <glyph glyph-name="Scircumflex" unicode="&#x15c;" horiz-adv-x="1145" 
d="M1149 1393l-135 -109q-26 62 -84.5 95.5t-138.5 33.5q-113 0 -187 -57t-90 -154q0 -2 -1 -6q-3 -26 -3 -39q0 -66 42 -117.5t163 -124.5l11 -6q355 -210 355 -422q0 -18 -1.5 -37t-4.5 -39q-32 -205 -178.5 -323.5t-368.5 -118.5q-153 0 -257 70t-136 194l139 105
q21 -97 97.5 -152t187.5 -55q141 0 231 72t111 203q0 1 1 5q3 26 3 42q0 85 -63 155t-205 146q-166 88 -234.5 170t-68.5 192q0 19 1.5 38.5t4.5 39.5q27 170 160.5 275.5t324.5 105.5q117 0 198 -46t126 -136zM1120 1727l-67 -68l-197 201l-258 -201l-47 68l332 295z" />
    <glyph glyph-name="Scaron" unicode="&#x160;" horiz-adv-x="1145" 
d="M1149 1393l-135 -109q-26 62 -84.5 95.5t-138.5 33.5q-113 0 -187 -57t-90 -154q0 -2 -1 -6q-3 -26 -3 -39q0 -66 42 -117.5t163 -124.5l11 -6q355 -210 355 -422q0 -18 -1.5 -37t-4.5 -39q-32 -205 -178.5 -323.5t-368.5 -118.5q-153 0 -257 70t-136 194l139 105
q21 -97 97.5 -152t187.5 -55q141 0 231 72t111 203q0 1 1 5q3 26 3 42q0 85 -63 155t-205 146q-166 88 -234.5 170t-68.5 192q0 19 1.5 38.5t4.5 39.5q27 170 160.5 275.5t324.5 105.5q117 0 198 -46t126 -136zM1155 1944l-332 -297l-237 297l67 65l195 -200l260 200z" />
    <glyph glyph-name="Scedilla" unicode="&#x15e;" horiz-adv-x="1145" 
d="M1149 1393l-135 -109q-26 62 -84.5 95.5t-138.5 33.5q-113 0 -187 -57t-90 -154q0 -2 -1 -6q-3 -26 -3 -39q0 -66 42 -117.5t163 -124.5l11 -6q355 -210 355 -422q0 -18 -1.5 -37t-4.5 -39q-32 -205 -178.5 -323.5t-368.5 -118.5q-153 0 -257 70t-136 194l139 105
q21 -97 97.5 -152t187.5 -55q141 0 231 72t111 203q0 1 1 5q3 26 3 42q0 85 -63 155t-205 146q-166 88 -234.5 170t-68.5 192q0 19 1.5 38.5t4.5 39.5q27 170 160.5 275.5t324.5 105.5q117 0 198 -46t126 -136zM686 -102l-276 -320l-70 53l250 338z" />
    <glyph glyph-name="Tcaron" unicode="&#x164;" horiz-adv-x="963" 
d="M1176 1544l-25 -155h-365l-219 -1389h-172l219 1389h-364l24 155h902zM1065 1944l-332 -297l-237 297l67 65l195 -200l260 200z" />
    <glyph glyph-name="Tcedilla" unicode="&#x162;" horiz-adv-x="963" 
d="M1176 1544l-25 -155h-365l-219 -1389h-172l219 1389h-364l24 155h902zM596 -102l-276 -320l-70 53l250 338z" />
    <glyph glyph-name="Utilde" unicode="&#x168;" horiz-adv-x="1403" 
d="M1487 1544l-152 -966q-48 -308 -205 -458.5t-432 -150.5q-230 0 -345 109.5t-115 329.5q0 43 3.5 85t10.5 85l151 966h172l-157 -1001q-6 -38 -8 -65.5t-2 -51.5q0 -148 78 -221.5t237 -73.5q188 0 294.5 101t139.5 311l158 1001h172zM1309 1862q-47 -80 -102.5 -119
t-121.5 -39q-32 0 -65.5 12.5t-74.5 40.5q-6 4 -13 9q-72 51 -107 51q-39 0 -66.5 -17.5t-64.5 -72.5l-67 45q47 79 100 117t119 38q33 0 68 -12.5t75 -40.5q7 -4 21 -14q67 -45 98 -45q41 0 70 18t65 72z" />
    <glyph glyph-name="Umacron" unicode="&#x16a;" horiz-adv-x="1403" 
d="M1487 1544l-152 -966q-48 -308 -205 -458.5t-432 -150.5q-230 0 -345 109.5t-115 329.5q0 43 3.5 85t10.5 85l151 966h172l-157 -1001q-6 -38 -8 -65.5t-2 -51.5q0 -148 78 -221.5t237 -73.5q188 0 294.5 101t139.5 311l158 1001h172zM1251 1872l-18 -117h-551l18 117
h551z" />
    <glyph glyph-name="Ubreve" unicode="&#x16c;" horiz-adv-x="1403" 
d="M1487 1544l-152 -966q-48 -308 -205 -458.5t-432 -150.5q-230 0 -345 109.5t-115 329.5q0 43 3.5 85t10.5 85l151 966h172l-157 -1001q-6 -38 -8 -65.5t-2 -51.5q0 -148 78 -221.5t237 -73.5q188 0 294.5 101t139.5 311l158 1001h172zM1275 1931q-45 -125 -125.5 -186
t-201.5 -61q-122 0 -186 63t-66 184l86 27q6 -80 52 -120t130 -40t141.5 40t90.5 120z" />
    <glyph glyph-name="Uring" unicode="&#x16e;" horiz-adv-x="1403" 
d="M1487 1544l-152 -966q-48 -308 -205 -458.5t-432 -150.5q-230 0 -345 109.5t-115 329.5q0 43 3.5 85t10.5 85l151 966h172l-157 -1001q-6 -38 -8 -65.5t-2 -51.5q0 -148 78 -221.5t237 -73.5q188 0 294.5 101t139.5 311l158 1001h172zM1219 1881q-15 -100 -96.5 -170
t-182.5 -70q-88 0 -145 56.5t-57 143.5q0 12 3 34q0 3 1 5q15 100 95 170t179 70q89 0 147 -57.5t58 -145.5q0 -15 -0.5 -22.5t-1.5 -13.5zM1137 1880q1 4 1.5 9.5t0.5 15.5q0 57 -38.5 95t-96.5 38q-65 0 -117 -46t-63 -111q-3 -11 -4 -16.5t-1 -8.5q0 -57 39 -95t97 -38
q64 0 117.5 46t64.5 111z" />
    <glyph glyph-name="Udblacute" unicode="&#x170;" horiz-adv-x="1403" 
d="M1487 1544l-152 -966q-48 -308 -205 -458.5t-432 -150.5q-230 0 -345 109.5t-115 329.5q0 43 3.5 85t10.5 85l151 966h172l-157 -1001q-6 -38 -8 -65.5t-2 -51.5q0 -148 78 -221.5t237 -73.5q188 0 294.5 101t139.5 311l158 1001h172zM1301 1946l-287 -287l-60 57
l263 310zM1053 1960l-264 -301l-70 47l238 320z" />
    <glyph glyph-name="Uogonek" unicode="&#x172;" horiz-adv-x="1403" 
d="M1487 1544l-152 -966q-45 -287 -184 -437t-377 -170q-54 -52 -88 -106t-41 -99q-1 -5 -1.5 -10.5t-0.5 -15.5q0 -45 34 -65.5t109 -20.5l-18 -115q-137 0 -196.5 34t-59.5 112q0 12 3 39q1 4 1 6q9 55 51 117.5t109 121.5q-220 6 -329 115t-109 324q0 43 3.5 85t10.5 85
l151 966h172l-157 -1001q-6 -38 -8 -65.5t-2 -51.5q0 -148 78 -221.5t237 -73.5q188 0 294.5 101t139.5 311l158 1001h172z" />
    <glyph glyph-name="Wcircumflex" unicode="&#x174;" horiz-adv-x="2234" 
d="M2488 1544l-901 -1585l-287 1210l-669 -1210l-398 1585h187l276 -1169l674 1212l283 -1212l649 1169h186zM1665 1727l-67 -68l-197 201l-258 -201l-47 68l332 295z" />
    <glyph glyph-name="Wdieresis" unicode="&#x1e84;" horiz-adv-x="2234" 
d="M2488 1544l-901 -1585l-287 1210l-669 -1210l-398 1585h187l276 -1169l674 1212l283 -1212l649 1169h186zM1692 1823q-6 -42 -38.5 -70t-74.5 -28q-37 0 -61.5 23t-24.5 59q0 1 1 6.5t1 9.5q6 39 40 67.5t75 28.5q37 0 60.5 -22.5t23.5 -57.5q0 -1 -1 -6.5t-1 -9.5z
M1298 1823q-6 -42 -38.5 -70t-73.5 -28q-37 0 -61.5 23t-24.5 59q0 2 1 7.5t1 8.5q6 39 40 67.5t75 28.5q37 0 60.5 -22.5t23.5 -57.5q-1 -2 -1.5 -7t-1.5 -9z" />
    <glyph glyph-name="Yacute" unicode="&#xdd;" horiz-adv-x="1214" 
d="M1425 1544l-614 -835l-113 -709h-172l113 709l-363 835h193l283 -680l483 680h190zM1131 1929l-336 -270l-51 66l315 301z" />
    <glyph glyph-name="Ygrave" unicode="&#x1ef2;" horiz-adv-x="1214" 
d="M1425 1544l-614 -835l-113 -709h-172l113 709l-363 835h193l283 -680l483 680h190zM998 1725l-74 -66l-248 270l99 97z" />
    <glyph glyph-name="Ycircumflex" unicode="&#x176;" horiz-adv-x="1214" 
d="M1425 1544l-614 -835l-113 -709h-172l113 709l-363 835h193l283 -680l483 680h190zM1155 1727l-67 -68l-197 201l-258 -201l-47 68l332 295z" />
    <glyph glyph-name="Zacute" unicode="&#x179;" horiz-adv-x="1200" 
d="M1376 1544l-1034 -1382h770l-27 -162h-1054l1040 1382h-729l25 162h1009zM1124 1929l-336 -270l-51 66l315 301z" />
    <glyph glyph-name="Zcaron" horiz-adv-x="1200" 
d="M1376 1544l-1034 -1382h770l-27 -162h-1054l1040 1382h-729l25 162h1009zM1184 1944l-332 -297l-237 297l67 65l195 -200l260 200z" />
    <glyph glyph-name="Zcaron" unicode="&#x17d;" horiz-adv-x="1200" 
d="M1376 1544l-1034 -1382h770l-27 -162h-1054l1040 1382h-729l25 162h1009zM1184 1944l-332 -297l-237 297l67 65l195 -200l260 200z" />
    <glyph glyph-name="Zdot" unicode="&#x17b;" horiz-adv-x="1200" 
d="M1376 1544l-1034 -1382h770l-27 -162h-1054l1040 1382h-729l25 162h1009zM983 1825q-7 -43 -40.5 -72.5t-76.5 -29.5q-38 0 -63 24t-25 62q0 3 1 8t1 8q6 41 40.5 70.5t76.5 29.5q38 0 63 -23.5t25 -60.5q0 -1 -1 -6.5t-1 -9.5z" />
    <glyph glyph-name="amacron" unicode="&#x101;" 
d="M1186 956l-152 -956h-164l25 158q-64 -93 -160 -141t-215 -48q-173 0 -279 113t-106 299q0 28 2 54t6 50q35 221 186.5 360.5t354.5 139.5q115 0 196.5 -45t118.5 -129l23 145h164zM948 489q3 20 4.5 38.5t1.5 35.5q0 124 -72.5 195t-197.5 71q-143 0 -247.5 -94.5
t-129.5 -251.5q-3 -20 -4.5 -39t-1.5 -36q0 -128 72.5 -204.5t191.5 -76.5q141 0 249.5 101.5t133.5 260.5zM1028 1282l-18 -117h-551l18 117h551z" />
    <glyph glyph-name="abreve" unicode="&#x103;" 
d="M1186 956l-152 -956h-164l25 158q-64 -93 -160 -141t-215 -48q-173 0 -279 113t-106 299q0 28 2 54t6 50q35 221 186.5 360.5t354.5 139.5q115 0 196.5 -45t118.5 -129l23 145h164zM948 489q3 20 4.5 38.5t1.5 35.5q0 124 -72.5 195t-197.5 71q-143 0 -247.5 -94.5
t-129.5 -251.5q-3 -20 -4.5 -39t-1.5 -36q0 -128 72.5 -204.5t191.5 -76.5q141 0 249.5 101.5t133.5 260.5zM1052 1341q-45 -125 -125.5 -186t-201.5 -61q-122 0 -186 63t-66 184l86 27q6 -80 52 -120t130 -40t141.5 40t90.5 120z" />
    <glyph glyph-name="aogonek" unicode="&#x105;" 
d="M1186 956l-152 -956h-37q-64 -55 -107.5 -117.5t-51.5 -115.5q-1 -5 -1.5 -11t-0.5 -16q0 -45 34 -65.5t109 -20.5l-18 -115q-137 0 -196.5 34t-59.5 112q0 13 3 39q0 4 1 6q10 65 63.5 138.5t132.5 131.5h-35l25 158q-64 -93 -160 -141t-215 -48q-173 0 -279 113
t-106 299q0 28 2 54t6 50q35 221 186.5 360.5t354.5 139.5q115 0 196.5 -45t118.5 -129l23 145h164zM948 489q3 20 4.5 38.5t1.5 35.5q0 124 -72.5 195t-197.5 71q-143 0 -247.5 -94.5t-129.5 -251.5q-3 -20 -4.5 -39t-1.5 -36q0 -128 72.5 -204.5t191.5 -76.5
q141 0 249.5 101.5t133.5 260.5z" />
    <glyph glyph-name="cacute" unicode="&#x107;" horiz-adv-x="975" 
d="M1022 920l-27 -175q-50 40 -118 62t-138 22q-170 0 -289 -98.5t-145 -261.5q-2 -11 -3 -23.5t-1 -35.5q0 -129 89.5 -206t238.5 -77q79 0 155.5 22.5t137.5 63.5l-27 -174q-69 -35 -148 -52.5t-165 -17.5q-203 0 -326 114.5t-123 301.5q0 15 1.5 33.5t6.5 56.5
q36 225 208 367.5t409 142.5q82 0 146.5 -16t117.5 -49zM1014 1339l-336 -270l-51 66l315 301z" />
    <glyph glyph-name="ccircumflex" unicode="&#x109;" horiz-adv-x="975" 
d="M1022 920l-27 -175q-50 40 -118 62t-138 22q-170 0 -289 -98.5t-145 -261.5q-2 -11 -3 -23.5t-1 -35.5q0 -129 89.5 -206t238.5 -77q79 0 155.5 22.5t137.5 63.5l-27 -174q-69 -35 -148 -52.5t-165 -17.5q-203 0 -326 114.5t-123 301.5q0 15 1.5 33.5t6.5 56.5
q36 225 208 367.5t409 142.5q82 0 146.5 -16t117.5 -49zM1038 1137l-67 -68l-197 201l-258 -201l-47 68l332 295z" />
    <glyph glyph-name="ccaron" unicode="&#x10d;" horiz-adv-x="975" 
d="M1022 920l-27 -175q-50 40 -118 62t-138 22q-170 0 -289 -98.5t-145 -261.5q-2 -11 -3 -23.5t-1 -35.5q0 -129 89.5 -206t238.5 -77q79 0 155.5 22.5t137.5 63.5l-27 -174q-69 -35 -148 -52.5t-165 -17.5q-203 0 -326 114.5t-123 301.5q0 15 1.5 33.5t6.5 56.5
q36 225 208 367.5t409 142.5q82 0 146.5 -16t117.5 -49zM1073 1354l-332 -297l-237 297l67 65l195 -200l260 200z" />
    <glyph glyph-name="cdot" unicode="&#x10b;" horiz-adv-x="975" 
d="M1022 920l-27 -175q-50 40 -118 62t-138 22q-170 0 -289 -98.5t-145 -261.5q-2 -11 -3 -23.5t-1 -35.5q0 -129 89.5 -206t238.5 -77q79 0 155.5 22.5t137.5 63.5l-27 -174q-69 -35 -148 -52.5t-165 -17.5q-203 0 -326 114.5t-123 301.5q0 15 1.5 33.5t6.5 56.5
q36 225 208 367.5t409 142.5q82 0 146.5 -16t117.5 -49zM873 1235q-7 -43 -40.5 -72.5t-76.5 -29.5q-38 0 -63 24t-25 62q0 3 1 8t1 8q6 41 40.5 70.5t76.5 29.5q38 0 63 -23.5t25 -60.5q0 -1 -1 -6.5t-1 -9.5z" />
    <glyph glyph-name="dcaron" unicode="&#x10f;" horiz-adv-x="1774" 
d="M1303 1690l-269 -1690h-164l25 158q-64 -93 -160 -141t-215 -48q-173 0 -279 113t-106 299q0 28 2 54t6 50q35 221 186.5 360.5t354.5 139.5q115 0 196.5 -45t118.5 -129l140 879h164zM948 489q3 20 4.5 38.5t1.5 35.5q0 124 -72.5 195t-197.5 71q-143 0 -247.5 -94.5
t-129.5 -251.5q-3 -20 -4.5 -39t-1.5 -36q0 -128 72.5 -204.5t191.5 -76.5q141 0 249.5 101.5t133.5 260.5zM1880 1505l-338 -516l-94 39l279 547z" />
    <glyph glyph-name="dcroat" unicode="&#x111;" 
d="M1399 1380l-21 -129h-145l-199 -1251h-164l25 158q-64 -93 -160 -141t-215 -48q-173 0 -279 113t-106 299q0 28 2 54t6 50q35 221 186.5 360.5t354.5 139.5q115 0 196.5 -45t118.5 -129l70 440h-391l20 129h392l49 310h164l-50 -310h146zM948 489q3 20 4.5 38.5t1.5 35.5
q0 124 -72.5 195t-197.5 71q-143 0 -247.5 -94.5t-129.5 -251.5q-3 -20 -4.5 -39t-1.5 -36q0 -128 72.5 -204.5t191.5 -76.5q141 0 249.5 101.5t133.5 260.5z" />
    <glyph glyph-name="eth" unicode="&#xf0;" horiz-adv-x="1149" 
d="M1192 1591l-274 -151q128 -145 196 -331.5t68 -393.5q0 -47 -4 -96.5t-13 -104.5q-37 -234 -206.5 -389.5t-389.5 -155.5q-189 0 -311.5 121t-122.5 307q0 20 1.5 41.5t4.5 42.5q34 214 203.5 359t384.5 145q82 0 158.5 -32t130.5 -89q-17 127 -84.5 261.5t-169.5 244.5
l-332 -176l-37 92l295 158q-52 45 -106.5 83.5t-108.5 67.5l92 117q83 -42 153 -91t128 -105l309 167zM995 481q2 11 3 23.5t1 38.5q0 127 -81.5 206.5t-210.5 79.5q-149 0 -263.5 -98.5t-138.5 -249.5q-2 -11 -3 -23.5t-1 -37.5q0 -130 82.5 -211.5t212.5 -81.5
q147 0 261 101t138 253z" />
    <glyph glyph-name="ecaron" unicode="&#x11b;" horiz-adv-x="1063" 
d="M1077 510l-8 -57l-768 -1q-1 -9 -1.5 -21t-0.5 -34q0 -130 68.5 -200t193.5 -70q106 0 186.5 41.5t135.5 124.5l125 -72q-87 -125 -205.5 -188.5t-267.5 -63.5q-188 0 -295 108.5t-107 297.5q0 30 2 57t6 51q34 216 193 359t358 143q179 0 286 -103.5t107 -277.5
q0 -29 -7 -88zM924 569v23q0 112 -68 174.5t-188 62.5q-121 0 -216.5 -70.5t-127.5 -189.5h600zM1032 1354l-332 -297l-237 297l67 65l195 -200l260 200z" />
    <glyph glyph-name="emacron" unicode="&#x113;" horiz-adv-x="1063" 
d="M1077 510l-8 -57l-768 -1q-1 -9 -1.5 -21t-0.5 -34q0 -130 68.5 -200t193.5 -70q106 0 186.5 41.5t135.5 124.5l125 -72q-87 -125 -205.5 -188.5t-267.5 -63.5q-188 0 -295 108.5t-107 297.5q0 30 2 57t6 51q34 216 193 359t358 143q179 0 286 -103.5t107 -277.5
q0 -29 -7 -88zM924 569v23q0 112 -68 174.5t-188 62.5q-121 0 -216.5 -70.5t-127.5 -189.5h600zM1009 1282l-18 -117h-551l18 117h551z" />
    <glyph glyph-name="ebreve" unicode="&#x115;" horiz-adv-x="1063" 
d="M1077 510l-8 -57l-768 -1q-1 -9 -1.5 -21t-0.5 -34q0 -130 68.5 -200t193.5 -70q106 0 186.5 41.5t135.5 124.5l125 -72q-87 -125 -205.5 -188.5t-267.5 -63.5q-188 0 -295 108.5t-107 297.5q0 30 2 57t6 51q34 216 193 359t358 143q179 0 286 -103.5t107 -277.5
q0 -29 -7 -88zM924 569v23q0 112 -68 174.5t-188 62.5q-121 0 -216.5 -70.5t-127.5 -189.5h600zM1034 1341q-45 -125 -125.5 -186t-201.5 -61q-122 0 -186 63t-66 184l86 27q6 -80 52 -120t130 -40t141.5 40t90.5 120z" />
    <glyph glyph-name="edot" unicode="&#x117;" horiz-adv-x="1063" 
d="M1077 510l-8 -57l-768 -1q-1 -9 -1.5 -21t-0.5 -34q0 -130 68.5 -200t193.5 -70q106 0 186.5 41.5t135.5 124.5l125 -72q-87 -125 -205.5 -188.5t-267.5 -63.5q-188 0 -295 108.5t-107 297.5q0 30 2 57t6 51q34 216 193 359t358 143q179 0 286 -103.5t107 -277.5
q0 -29 -7 -88zM924 569v23q0 112 -68 174.5t-188 62.5q-121 0 -216.5 -70.5t-127.5 -189.5h600zM832 1235q-7 -43 -40.5 -72.5t-76.5 -29.5q-38 0 -63 24t-25 62q0 3 1 8t1 8q6 41 40.5 70.5t76.5 29.5q38 0 63 -23.5t25 -60.5q0 -1 -1 -6.5t-1 -9.5z" />
    <glyph glyph-name="eogonek" unicode="&#x119;" horiz-adv-x="1063" 
d="M1077 510l-8 -57l-768 -1q-1 -9 -1.5 -21t-0.5 -34q0 -130 68.5 -200t193.5 -70q106 0 186.5 41.5t135.5 124.5l125 -72q-68 -98 -154.5 -158t-191.5 -81q-58 -53 -95 -110t-45 -106q-1 -5 -1.5 -10.5t-0.5 -15.5q0 -45 34 -65.5t110 -20.5l-19 -115q-137 0 -196.5 34
t-59.5 112q0 12 4 40v5q9 55 51 117.5t109 121.5h-18q-188 0 -295 108.5t-107 297.5q0 30 2 57t6 51q34 216 193 359t358 143q179 0 286 -103.5t107 -277.5q0 -29 -7 -88zM924 569v23q0 112 -68 174.5t-188 62.5q-121 0 -216.5 -70.5t-127.5 -189.5h600z" />
    <glyph glyph-name="gcedilla" unicode="&#x123;" horiz-adv-x="1188" 
d="M1186 956l-160 -1007q-41 -256 -178 -379t-381 -123q-190 0 -291.5 80.5t-101.5 228.5v8h170q3 -80 66 -120.5t184 -40.5q167 0 252.5 79t113.5 252l35 224q-64 -93 -160 -141t-215 -48q-173 0 -279 113t-106 299q0 28 2 54t6 50q35 221 186.5 360.5t354.5 139.5
q115 0 196.5 -45t118.5 -129l23 145h164zM948 489q3 20 4.5 38.5t1.5 35.5q0 124 -72.5 195t-197.5 71q-143 0 -247.5 -94.5t-129.5 -251.5q-3 -20 -4.5 -39t-1.5 -36q0 -128 72.5 -204.5t191.5 -76.5q141 0 249.5 101.5t133.5 260.5zM1034 1339l-336 -270l-51 66l315 301z
" />
    <glyph glyph-name="gcircumflex" unicode="&#x11d;" horiz-adv-x="1188" 
d="M1186 956l-160 -1007q-41 -256 -178 -379t-381 -123q-190 0 -291.5 80.5t-101.5 228.5v8h170q3 -80 66 -120.5t184 -40.5q167 0 252.5 79t113.5 252l35 224q-64 -93 -160 -141t-215 -48q-173 0 -279 113t-106 299q0 28 2 54t6 50q35 221 186.5 360.5t354.5 139.5
q115 0 196.5 -45t118.5 -129l23 145h164zM948 489q3 20 4.5 38.5t1.5 35.5q0 124 -72.5 195t-197.5 71q-143 0 -247.5 -94.5t-129.5 -251.5q-3 -20 -4.5 -39t-1.5 -36q0 -128 72.5 -204.5t191.5 -76.5q141 0 249.5 101.5t133.5 260.5zM1059 1137l-67 -68l-197 201l-258 -201
l-47 68l332 295z" />
    <glyph glyph-name="gbreve" unicode="&#x11f;" horiz-adv-x="1188" 
d="M1186 956l-160 -1007q-41 -256 -178 -379t-381 -123q-190 0 -291.5 80.5t-101.5 228.5v8h170q3 -80 66 -120.5t184 -40.5q167 0 252.5 79t113.5 252l35 224q-64 -93 -160 -141t-215 -48q-173 0 -279 113t-106 299q0 28 2 54t6 50q35 221 186.5 360.5t354.5 139.5
q115 0 196.5 -45t118.5 -129l23 145h164zM948 489q3 20 4.5 38.5t1.5 35.5q0 124 -72.5 195t-197.5 71q-143 0 -247.5 -94.5t-129.5 -251.5q-3 -20 -4.5 -39t-1.5 -36q0 -128 72.5 -204.5t191.5 -76.5q141 0 249.5 101.5t133.5 260.5zM1097 1341q-45 -125 -125.5 -186
t-201.5 -61q-122 0 -186 63t-66 184l86 27q6 -80 52 -120t130 -40t141.5 40t90.5 120z" />
    <glyph glyph-name="gdot" unicode="&#x121;" horiz-adv-x="1188" 
d="M1186 956l-160 -1007q-41 -256 -178 -379t-381 -123q-190 0 -291.5 80.5t-101.5 228.5v8h170q3 -80 66 -120.5t184 -40.5q167 0 252.5 79t113.5 252l35 224q-64 -93 -160 -141t-215 -48q-173 0 -279 113t-106 299q0 28 2 54t6 50q35 221 186.5 360.5t354.5 139.5
q115 0 196.5 -45t118.5 -129l23 145h164zM948 489q3 20 4.5 38.5t1.5 35.5q0 124 -72.5 195t-197.5 71q-143 0 -247.5 -94.5t-129.5 -251.5q-3 -20 -4.5 -39t-1.5 -36q0 -128 72.5 -204.5t191.5 -76.5q141 0 249.5 101.5t133.5 260.5zM893 1235q-7 -43 -40.5 -72.5
t-76.5 -29.5q-38 0 -63 24t-25 62q0 3 1 8t1 8q6 41 40.5 70.5t76.5 29.5q38 0 63 -23.5t25 -60.5q0 -1 -1 -6.5t-1 -9.5z" />
    <glyph glyph-name="hcircumflex" unicode="&#x125;" horiz-adv-x="1081" 
d="M1036 616l-98 -616h-164l90 571q4 22 6 44.5t2 46.5q0 91 -41.5 134.5t-130.5 43.5q-123 0 -203.5 -97.5t-109.5 -283.5l-72 -459h-163l268 1690h164l-140 -875q57 85 140.5 127.5t193.5 42.5q126 0 196 -72t70 -204q0 -25 -2 -48t-6 -45zM814 1842l-67 -68l-197 201
l-258 -201l-47 68l332 295z" />
    <glyph glyph-name="iogonek" unicode="&#x12f;" horiz-adv-x="537" 
d="M592 1333q-8 -46 -46.5 -79t-84.5 -33q-41 0 -68.5 27t-27.5 67q0 3 1 9.5t1 8.5q7 46 46 79.5t85 33.5q41 0 68.5 -27t27.5 -67q0 -3 -1 -9t-1 -10zM502 956l-152 -956h-37q-64 -55 -107.5 -117.5t-51.5 -115.5q-1 -5 -1.5 -11t-0.5 -16q0 -45 33.5 -65.5t109.5 -20.5
l-19 -115q-136 0 -196 34t-60 112q1 13 4 40q0 3 1 5q10 65 63.5 138.5t132.5 131.5h-35l152 956h164z" />
    <glyph glyph-name="kcedilla" unicode="&#x137;" horiz-adv-x="963" 
d="M1071 956l-498 -432l383 -524h-202l-359 504l-80 -504h-163l268 1690h164l-185 -1160l478 426h194zM596 -102l-276 -320l-70 53l250 338z" />
    <glyph glyph-name="ldot" unicode="&#x140;" horiz-adv-x="1096" 
d="M584 1690l-269 -1690h-163l268 1690h164zM1010 788q-8 -49 -48 -83.5t-89 -34.5q-44 0 -73.5 29t-29.5 71q0 3 1 9t1 9q8 49 48 83t89 34q45 0 74 -27.5t29 -70.5q0 -3 -1 -9t-1 -10z" />
    <glyph glyph-name="lcaron" unicode="&#x13e;" horiz-adv-x="793" 
d="M1030 1505l-338 -516l-94 39l279 547zM584 1690l-269 -1690h-163l268 1690h164z" />
    <glyph glyph-name="lacute" unicode="&#x13a;" horiz-adv-x="465" 
d="M584 1690l-269 -1690h-163l268 1690h164zM788 2044l-336 -270l-51 66l315 301z" />
    <glyph glyph-name="lcedilla" unicode="&#x13c;" horiz-adv-x="465" 
d="M584 1690l-269 -1690h-163l268 1690h164zM347 -102l-276 -320l-70 53l250 338z" />
    <glyph glyph-name="lslash" unicode="&#x142;" horiz-adv-x="528" 
d="M684 862l-223 -133l-115 -729h-164l101 639l-152 -90l-47 100l223 137l144 904h163l-129 -811l150 90z" />
    <glyph glyph-name="nacute" unicode="&#x144;" horiz-adv-x="1081" 
d="M1036 616l-98 -616h-164l90 571q4 22 6 44.5t2 46.5q0 91 -41.5 134.5t-130.5 43.5q-123 0 -203.5 -97.5t-109.5 -283.5l-72 -459h-163l151 956h164l-23 -141q57 85 140.5 127.5t193.5 42.5q126 0 196 -72t70 -204q0 -25 -2 -48t-6 -45zM981 1339l-336 -270l-51 66
l315 301z" />
    <glyph glyph-name="ncaron" unicode="&#x148;" horiz-adv-x="1081" 
d="M1036 616l-98 -616h-164l90 571q4 22 6 44.5t2 46.5q0 91 -41.5 134.5t-130.5 43.5q-123 0 -203.5 -97.5t-109.5 -283.5l-72 -459h-163l151 956h164l-23 -141q57 85 140.5 127.5t193.5 42.5q126 0 196 -72t70 -204q0 -25 -2 -48t-6 -45zM1040 1354l-332 -297l-237 297
l67 65l195 -200l260 200z" />
    <glyph glyph-name="ncedilla" unicode="&#x146;" horiz-adv-x="1081" 
d="M1036 616l-98 -616h-164l90 571q4 22 6 44.5t2 46.5q0 91 -41.5 134.5t-130.5 43.5q-123 0 -203.5 -97.5t-109.5 -283.5l-72 -459h-163l151 956h164l-23 -141q57 85 140.5 127.5t193.5 42.5q126 0 196 -72t70 -204q0 -25 -2 -48t-6 -45zM655 -102l-276 -320l-70 53
l250 338z" />
    <glyph glyph-name="omacron" unicode="&#x14d;" horiz-adv-x="1151" 
d="M1161 481q-34 -213 -206 -362.5t-386 -149.5q-189 0 -311.5 121t-122.5 307q0 20 1.5 41.5t4.5 42.5q34 214 203.5 359t384.5 145q192 0 315 -119t123 -303q0 -20 -1.5 -40t-4.5 -42zM997 481q3 11 3.5 23.5t0.5 38.5q0 127 -82.5 206.5t-211.5 79.5q-149 0 -263.5 -98.5
t-138.5 -249.5q-2 -11 -3 -23.5t-1 -37.5q0 -130 82.5 -211.5t212.5 -81.5q147 0 262 101t139 253zM1055 1282l-18 -117h-551l18 117h551z" />
    <glyph glyph-name="obreve" unicode="&#x14f;" horiz-adv-x="1151" 
d="M1161 481q-34 -213 -206 -362.5t-386 -149.5q-189 0 -311.5 121t-122.5 307q0 20 1.5 41.5t4.5 42.5q34 214 203.5 359t384.5 145q192 0 315 -119t123 -303q0 -20 -1.5 -40t-4.5 -42zM997 481q3 11 3.5 23.5t0.5 38.5q0 127 -82.5 206.5t-211.5 79.5q-149 0 -263.5 -98.5
t-138.5 -249.5q-2 -11 -3 -23.5t-1 -37.5q0 -130 82.5 -211.5t212.5 -81.5q147 0 262 101t139 253zM1079 1341q-45 -125 -125.5 -186t-201.5 -61q-122 0 -186 63t-66 184l86 27q6 -80 52 -120t130 -40t141.5 40t90.5 120z" />
    <glyph glyph-name="odblacute" unicode="&#x151;" horiz-adv-x="1151" 
d="M1161 481q-34 -213 -206 -362.5t-386 -149.5q-189 0 -311.5 121t-122.5 307q0 20 1.5 41.5t4.5 42.5q34 214 203.5 359t384.5 145q192 0 315 -119t123 -303q0 -20 -1.5 -40t-4.5 -42zM997 481q3 11 3.5 23.5t0.5 38.5q0 127 -82.5 206.5t-211.5 79.5q-149 0 -263.5 -98.5
t-138.5 -249.5q-2 -11 -3 -23.5t-1 -37.5q0 -130 82.5 -211.5t212.5 -81.5q147 0 262 101t139 253zM1104 1356l-287 -287l-60 57l263 310zM856 1370l-264 -301l-70 47l238 320z" />
    <glyph glyph-name="thorn" unicode="&#xfe;" 
d="M1194 485q-36 -226 -188.5 -371t-352.5 -145q-119 0 -200 48t-117 141l-109 -690h-164l353 2222h164l-140 -879q64 84 159 129t210 45q178 0 285.5 -110t107.5 -291q0 -27 -2 -51t-6 -48zM1026 483q3 18 4.5 36t1.5 36q0 126 -74 200t-198 74q-144 0 -245 -91.5
t-126 -248.5q-3 -20 -4.5 -38.5t-1.5 -34.5q0 -131 76 -210t198 -79q138 0 241 99t128 257z" />
    <glyph glyph-name="racute" unicode="&#x155;" horiz-adv-x="686" 
d="M836 967l-66 -162q-15 11 -35.5 16.5t-44.5 5.5q-121 0 -198.5 -103.5t-110.5 -309.5l-66 -414h-163l151 956h164l-27 -168q50 103 123.5 150t184.5 47q26 0 50.5 -5t37.5 -13zM785 1339l-336 -270l-51 66l315 301z" />
    <glyph glyph-name="rcaron" unicode="&#x159;" horiz-adv-x="686" 
d="M836 967l-66 -162q-15 11 -35.5 16.5t-44.5 5.5q-121 0 -198.5 -103.5t-110.5 -309.5l-66 -414h-163l151 956h164l-27 -168q50 103 123.5 150t184.5 47q26 0 50.5 -5t37.5 -13zM845 1354l-332 -297l-237 297l67 65l195 -200l260 200z" />
    <glyph glyph-name="rcedilla" unicode="&#x157;" horiz-adv-x="686" 
d="M836 967l-66 -162q-15 11 -35.5 16.5t-44.5 5.5q-121 0 -198.5 -103.5t-110.5 -309.5l-66 -414h-163l151 956h164l-27 -168q50 103 123.5 150t184.5 47q26 0 50.5 -5t37.5 -13zM351 -102l-276 -320l-70 53l250 338z" />
    <glyph glyph-name="sacute" unicode="&#x15b;" horiz-adv-x="817" 
d="M825 805l-147 -82q-18 61 -53.5 89t-94.5 28q-69 0 -113 -31.5t-53 -86.5q-1 -4 -1.5 -8.5t-0.5 -13.5q0 -45 37 -77.5t127 -63.5q134 -46 194 -105.5t60 -146.5q0 -9 -0.5 -18.5t-3.5 -30.5q-21 -132 -129 -210.5t-274 -78.5q-125 0 -204.5 51t-102.5 146l153 88
q18 -69 64 -103t123 -34q83 0 138.5 35t65.5 95q1 7 1.5 14t0.5 20q0 44 -42 76t-154 75q-109 42 -162 102.5t-53 141.5q0 8 0.5 16.5t3.5 26.5q20 124 113 195t241 71q107 0 172 -44t94 -136zM850 1339l-336 -270l-51 66l315 301z" />
    <glyph glyph-name="scircumflex" unicode="&#x15d;" horiz-adv-x="817" 
d="M825 805l-147 -82q-18 61 -53.5 89t-94.5 28q-69 0 -113 -31.5t-53 -86.5q-1 -4 -1.5 -8.5t-0.5 -13.5q0 -45 37 -77.5t127 -63.5q134 -46 194 -105.5t60 -146.5q0 -9 -0.5 -18.5t-3.5 -30.5q-21 -132 -129 -210.5t-274 -78.5q-125 0 -204.5 51t-102.5 146l153 88
q18 -69 64 -103t123 -34q83 0 138.5 35t65.5 95q1 7 1.5 14t0.5 20q0 44 -42 76t-154 75q-109 42 -162 102.5t-53 141.5q0 8 0.5 16.5t3.5 26.5q20 124 113 195t241 71q107 0 172 -44t94 -136zM875 1137l-67 -68l-197 201l-258 -201l-47 68l332 295z" />
    <glyph glyph-name="scaron" unicode="&#x161;" horiz-adv-x="817" 
d="M825 805l-147 -82q-18 61 -53.5 89t-94.5 28q-69 0 -113 -31.5t-53 -86.5q-1 -4 -1.5 -8.5t-0.5 -13.5q0 -45 37 -77.5t127 -63.5q134 -46 194 -105.5t60 -146.5q0 -9 -0.5 -18.5t-3.5 -30.5q-21 -132 -129 -210.5t-274 -78.5q-125 0 -204.5 51t-102.5 146l153 88
q18 -69 64 -103t123 -34q83 0 138.5 35t65.5 95q1 7 1.5 14t0.5 20q0 44 -42 76t-154 75q-109 42 -162 102.5t-53 141.5q0 8 0.5 16.5t3.5 26.5q20 124 113 195t241 71q107 0 172 -44t94 -136zM910 1354l-332 -297l-237 297l67 65l195 -200l260 200z" />
    <glyph glyph-name="scedilla" unicode="&#x15f;" horiz-adv-x="817" 
d="M825 805l-147 -82q-18 61 -53.5 89t-94.5 28q-69 0 -113 -31.5t-53 -86.5q-1 -4 -1.5 -8.5t-0.5 -13.5q0 -45 37 -77.5t127 -63.5q134 -46 194 -105.5t60 -146.5q0 -9 -0.5 -18.5t-3.5 -30.5q-21 -132 -129 -210.5t-274 -78.5q-125 0 -204.5 51t-102.5 146l153 88
q18 -69 64 -103t123 -34q83 0 138.5 35t65.5 95q1 7 1.5 14t0.5 20q0 44 -42 76t-154 75q-109 42 -162 102.5t-53 141.5q0 8 0.5 16.5t3.5 26.5q20 124 113 195t241 71q107 0 172 -44t94 -136zM522 -102l-276 -320l-70 53l250 338z" />
    <glyph glyph-name="tcaron" unicode="&#x165;" horiz-adv-x="770" 
d="M1008 1505l-301 -446l-95 39l242 477zM623 956l-23 -147h-151l-130 -809h-163l129 809h-115l23 147h114l62 387h163l-61 -387h152z" />
    <glyph glyph-name="tcedilla" unicode="&#x163;" horiz-adv-x="492" 
d="M623 956l-23 -147h-151l-130 -809h-163l129 809h-115l23 147h114l62 387h163l-61 -387h152zM361 -102l-276 -320l-70 53l250 338z" />
    <glyph glyph-name="utilde" unicode="&#x169;" horiz-adv-x="1049" 
d="M1057 956l-86 -544q-37 -229 -146 -336t-305 -107q-166 0 -244.5 74.5t-78.5 230.5q0 31 3 65t9 73l86 544h164l-86 -538q-6 -37 -8 -61.5t-3 -45.5q0 -96 42.5 -140t140.5 -44q117 0 176 68t84 223l86 538h166zM1059 1272q-47 -80 -102.5 -119t-121.5 -39
q-32 0 -65.5 12.5t-74.5 40.5q-6 4 -13 9q-72 51 -107 51q-39 0 -66.5 -17.5t-64.5 -72.5l-67 45q47 79 100 117t119 38q33 0 68 -12.5t75 -40.5q7 -4 21 -14q67 -45 98 -45q41 0 70 18t65 72z" />
    <glyph glyph-name="umacron" unicode="&#x16b;" horiz-adv-x="1049" 
d="M1057 956l-86 -544q-37 -229 -146 -336t-305 -107q-166 0 -244.5 74.5t-78.5 230.5q0 31 3 65t9 73l86 544h164l-86 -538q-6 -37 -8 -61.5t-3 -45.5q0 -96 42.5 -140t140.5 -44q117 0 176 68t84 223l86 538h166zM1003 1282l-18 -117h-551l18 117h551z" />
    <glyph glyph-name="ubreve" unicode="&#x16d;" horiz-adv-x="1049" 
d="M1057 956l-86 -544q-37 -229 -146 -336t-305 -107q-166 0 -244.5 74.5t-78.5 230.5q0 31 3 65t9 73l86 544h164l-86 -538q-6 -37 -8 -61.5t-3 -45.5q0 -96 42.5 -140t140.5 -44q117 0 176 68t84 223l86 538h166zM1028 1341q-45 -125 -125.5 -186t-201.5 -61
q-122 0 -186 63t-66 184l86 27q6 -80 52 -120t130 -40t141.5 40t90.5 120z" />
    <glyph glyph-name="uring" unicode="&#x16f;" horiz-adv-x="1049" 
d="M1057 956l-86 -544q-37 -229 -146 -336t-305 -107q-166 0 -244.5 74.5t-78.5 230.5q0 31 3 65t9 73l86 544h164l-86 -538q-6 -37 -8 -61.5t-3 -45.5q0 -96 42.5 -140t140.5 -44q117 0 176 68t84 223l86 538h166zM969 1291q-15 -100 -96.5 -170t-182.5 -70
q-88 0 -145 56.5t-57 143.5q0 12 3 34q0 3 1 5q15 100 95 170t179 70q89 0 147 -57.5t58 -145.5q0 -15 -0.5 -22.5t-1.5 -13.5zM887 1290q1 4 1.5 9.5t0.5 15.5q0 57 -38.5 95t-96.5 38q-65 0 -117 -46t-63 -111q-3 -11 -4 -16.5t-1 -8.5q0 -57 39 -95t97 -38q64 0 117.5 46
t64.5 111z" />
    <glyph glyph-name="udblacute" unicode="&#x171;" horiz-adv-x="1049" 
d="M1057 956l-86 -544q-37 -229 -146 -336t-305 -107q-166 0 -244.5 74.5t-78.5 230.5q0 31 3 65t9 73l86 544h164l-86 -538q-6 -37 -8 -61.5t-3 -45.5q0 -96 42.5 -140t140.5 -44q117 0 176 68t84 223l86 538h166zM1053 1356l-287 -287l-60 57l263 310zM805 1370l-264 -301
l-70 47l238 320z" />
    <glyph glyph-name="uogonek" unicode="&#x173;" horiz-adv-x="1049" 
d="M1057 956l-86 -544q-32 -201 -118.5 -307t-238.5 -130q-54 -51 -89.5 -106.5t-43.5 -102.5q-1 -5 -1.5 -10.5t-0.5 -15.5q0 -45 34 -65.5t110 -20.5l-19 -115q-136 0 -196 34t-60 112q0 12 4 40v5q9 55 51 117.5t109 121.5q-162 2 -238.5 76.5t-76.5 228.5q0 32 3 66.5
t9 71.5l86 544h164l-86 -538q-6 -37 -8 -61.5t-3 -45.5q0 -96 42.5 -140t140.5 -44q117 0 176 68t84 223l86 538h166z" />
    <glyph glyph-name="wcircumflex" unicode="&#x175;" horiz-adv-x="1556" 
d="M1677 956l-614 -999l-184 680l-396 -680l-301 999h187l168 -643l397 688l184 -688l371 643h188zM1243 1137l-67 -68l-197 201l-258 -201l-47 68l332 295z" />
    <glyph glyph-name="wdieresis" unicode="&#x1e85;" horiz-adv-x="1556" 
d="M1677 956l-614 -999l-184 680l-396 -680l-301 999h187l168 -643l397 688l184 -688l371 643h188zM1270 1233q-6 -42 -38.5 -70t-74.5 -28q-37 0 -61.5 23t-24.5 59q0 1 1 6.5t1 9.5q6 39 40 67.5t75 28.5q37 0 60.5 -22.5t23.5 -57.5q0 -1 -1 -6.5t-1 -9.5zM876 1233
q-6 -42 -38.5 -70t-73.5 -28q-37 0 -61.5 23t-24.5 59q0 2 1 7.5t1 8.5q6 39 40 67.5t75 28.5q37 0 60.5 -22.5t23.5 -57.5q-1 -2 -1.5 -7t-1.5 -9z" />
    <glyph glyph-name="yacute" unicode="&#xfd;" horiz-adv-x="1020" 
d="M1133 956l-857 -1488h-182l342 579l-264 909h178l199 -720l403 720h181zM950 1339l-336 -270l-51 66l315 301z" />
    <glyph glyph-name="ygrave" unicode="&#x1ef3;" horiz-adv-x="1020" 
d="M1133 956l-857 -1488h-182l342 579l-264 909h178l199 -720l403 720h181zM817 1135l-74 -66l-248 270l99 97z" />
    <glyph glyph-name="ycircumflex" unicode="&#x177;" horiz-adv-x="1020" 
d="M1133 956l-857 -1488h-182l342 579l-264 909h178l199 -720l403 720h181zM975 1137l-67 -68l-197 201l-258 -201l-47 68l332 295z" />
    <glyph glyph-name="zacute" unicode="&#x17a;" horiz-adv-x="1063" 
d="M1106 956l-735 -809h612l-22 -147h-910l735 809h-555l23 147h852zM973 1339l-336 -270l-51 66l315 301z" />
    <glyph glyph-name="zcaron" horiz-adv-x="1063" 
d="M1106 956l-735 -809h612l-22 -147h-910l735 809h-555l23 147h852zM1032 1354l-332 -297l-237 297l67 65l195 -200l260 200z" />
    <glyph glyph-name="zcaron" unicode="&#x17e;" horiz-adv-x="1063" 
d="M1106 956l-735 -809h612l-22 -147h-910l735 809h-555l23 147h852zM1032 1354l-332 -297l-237 297l67 65l195 -200l260 200z" />
    <glyph glyph-name="zdot" unicode="&#x17c;" horiz-adv-x="1063" 
d="M1106 956l-735 -809h612l-22 -147h-910l735 809h-555l23 147h852zM832 1235q-7 -43 -40.5 -72.5t-76.5 -29.5q-38 0 -63 24t-25 62q0 3 1 8t1 8q6 41 40.5 70.5t76.5 29.5q38 0 63 -23.5t25 -60.5q0 -1 -1 -6.5t-1 -9.5z" />
    <glyph glyph-name="itilde" unicode="&#x129;" horiz-adv-x="537" 
d="M502 956l-152 -956h-164l152 956h164zM804 1272q-47 -80 -102.5 -119t-121.5 -39q-32 0 -65.5 12.5t-74.5 40.5q-6 4 -13 9q-72 51 -107 51q-39 0 -66.5 -17.5t-64.5 -72.5l-67 45q47 79 100 117t119 38q33 0 68 -12.5t75 -40.5q7 -4 21 -14q67 -45 98 -45q41 0 70 18
t65 72z" />
    <glyph glyph-name="imacron" unicode="&#x12b;" horiz-adv-x="537" 
d="M502 956l-152 -956h-164l152 956h164zM748 1282l-18 -117h-551l18 117h551z" />
    <glyph glyph-name="ibreve" unicode="&#x12d;" horiz-adv-x="537" 
d="M502 956l-152 -956h-164l152 956h164zM773 1341q-45 -125 -125.5 -186t-201.5 -61q-122 0 -186 63t-66 184l86 27q6 -80 52 -120t130 -40t141.5 40t90.5 120z" />
    <glyph glyph-name="c640" horiz-adv-x="537" 
d="M502 956l-152 -956h-164l152 956h164zM569 1235q-7 -43 -40.5 -72.5t-76.5 -29.5q-38 0 -63 24t-25 62q0 3 1 8t1 8q6 41 40.5 70.5t76.5 29.5q38 0 63 -23.5t25 -60.5q0 -1 -1 -6.5t-1 -9.5z" />
    <glyph glyph-name="Alpha" unicode="&#x391;" horiz-adv-x="1432" 
d="M1427 0h-190l-127 467h-641l-272 -467h-191l963 1587zM1071 614l-162 596l-350 -596h512z" />
    <glyph glyph-name="Beta" unicode="&#x392;" horiz-adv-x="1163" 
d="M1130 1146q-19 -125 -97 -215.5t-191 -115.5q136 -17 210 -98t74 -209q0 -18 -1.5 -36t-4.5 -36q-35 -220 -187 -328t-427 -108h-346l243 1544h332q191 0 296.5 -85t105.5 -238q0 -18 -1.5 -35.5t-5.5 -39.5zM956 1132q3 17 5 33t2 31q0 98 -63.5 144t-197.5 46h-151
l-80 -505h125q160 0 250 62.5t110 188.5zM948 436q2 9 3 21t1 35q0 117 -87.5 178t-258.5 61h-157l-93 -573h181q194 0 291 67.5t120 210.5z" />
    <glyph glyph-name="Gamma" unicode="&#x393;" horiz-adv-x="768" 
d="M987 1544l-24 -158h-412l-219 -1386h-172l243 1544h584z" />
    <glyph glyph-name="Delta" unicode="&#x394;" horiz-adv-x="1401" 
d="M1411 0h-1421l962 1587zM1180 147l-287 1063l-627 -1063h914z" />
    <glyph glyph-name="Epsilon" unicode="&#x395;" horiz-adv-x="1094" 
d="M1186 1544l-25 -162h-610l-74 -469h610l-26 -161h-610l-93 -590h611l-27 -162h-782l243 1544h783z" />
    <glyph glyph-name="Zeta" unicode="&#x396;" horiz-adv-x="1200" 
d="M1376 1544l-1034 -1382h770l-27 -162h-1054l1040 1382h-729l25 162h1009z" />
    <glyph glyph-name="Eta" unicode="&#x397;" horiz-adv-x="1462" 
d="M1546 1544l-243 -1544h-173l119 750h-798l-119 -750h-172l243 1544h172l-100 -633h799l100 633h172z" />
    <glyph glyph-name="Theta" unicode="&#x398;" horiz-adv-x="1765" 
d="M1815 773q-54 -340 -324.5 -572t-611.5 -232q-305 0 -499 189.5t-194 482.5q0 28 2.5 60t8.5 72q53 342 321.5 572t614.5 230q307 0 499.5 -186.5t192.5 -481.5q0 -39 -2.5 -71.5t-7.5 -62.5zM1642 772q5 25 7 51t2 56q0 234 -152 384t-393 150q-286 0 -489.5 -187.5
t-245.5 -453.5q-4 -25 -6.5 -52t-2.5 -56q0 -235 150 -384t391 -149q272 0 485 185.5t254 455.5zM1466 883l-24 -162h-889l25 162h888z" />
    <glyph glyph-name="Iota" unicode="&#x399;" horiz-adv-x="489" 
d="M575 1544l-243 -1544h-172l243 1544h172z" />
    <glyph glyph-name="Kappa" unicode="&#x39a;" horiz-adv-x="1251" 
d="M1442 1544l-793 -727l578 -817h-219l-549 799l-127 -799h-172l243 1544h172l-112 -723l772 723h207z" />
    <glyph glyph-name="Lambda" unicode="&#x39b;" horiz-adv-x="1278" 
d="M1288 0h-186l-281 1169l-645 -1169h-186l899 1585z" />
    <glyph glyph-name="Mu" unicode="&#x39c;" horiz-adv-x="1835" 
d="M1755 1587l-8 -1587h-174l18 1053l-680 -1096l-333 1096l-314 -1053h-176l500 1587l385 -1263z" />
    <glyph glyph-name="Nu" unicode="&#x39d;" horiz-adv-x="1708" 
d="M1782 1544l-250 -1587l-1004 1217l-186 -1174h-172l252 1587l1003 -1214l185 1171h172z" />
    <glyph glyph-name="Xi" unicode="&#x39e;" horiz-adv-x="1262" 
d="M1354 1544l-25 -162h-958l24 162h959zM1255 913l-26 -161h-959l27 161h958zM1137 162l-27 -162h-958l26 162h959z" />
    <glyph glyph-name="Omicron" unicode="&#x39f;" horiz-adv-x="1765" 
d="M1815 773q-54 -340 -324.5 -572t-611.5 -232q-305 0 -499 189.5t-194 482.5q0 28 2.5 60t8.5 72q53 342 321.5 572t614.5 230q307 0 499.5 -186.5t192.5 -481.5q0 -39 -2.5 -71.5t-7.5 -62.5zM1642 772q5 25 7 51t2 56q0 234 -152 384t-393 150q-286 0 -489.5 -187.5
t-245.5 -453.5q-4 -25 -6.5 -52t-2.5 -56q0 -235 150 -384t391 -149q272 0 485 185.5t254 455.5z" />
    <glyph glyph-name="Pi" unicode="&#x3a0;" horiz-adv-x="1462" 
d="M1546 1544l-243 -1544h-173l220 1382h-799l-219 -1382h-172l243 1544h1143z" />
    <glyph glyph-name="Rho" unicode="&#x3a1;" horiz-adv-x="1030" 
d="M1124 1112q-33 -211 -189 -320.5t-423 -109.5h-72l-108 -682h-172l243 1544h244q244 0 365 -85t121 -255q0 -24 -2.5 -47t-6.5 -45zM952 1112q3 16 4.5 31.5t1.5 30.5q0 108 -78 158t-253 50h-76l-86 -538h76q202 0 295.5 62t115.5 206z" />
    <glyph glyph-name="Sigma" unicode="&#x3a3;" horiz-adv-x="1167" 
d="M1329 1544l-24 -162h-770l266 -589l-459 -631h770l-27 -162h-1054l583 793l-340 751h1055z" />
    <glyph glyph-name="Tau" unicode="&#x3a4;" horiz-adv-x="963" 
d="M1176 1544l-25 -155h-365l-219 -1389h-172l219 1389h-364l24 155h902z" />
    <glyph glyph-name="Upsilon" unicode="&#x3a5;" horiz-adv-x="1214" 
d="M1425 1544l-614 -835l-113 -709h-172l113 709l-363 835h193l283 -680l483 680h190z" />
    <glyph glyph-name="Phi" unicode="&#x3a6;" horiz-adv-x="1495" 
d="M1546 786q-42 -266 -224 -425.5t-458 -170.5l-30 -190h-172l30 190q-239 10 -371.5 135t-132.5 341q0 26 2.5 55.5t8.5 65.5q42 263 225 423t457 170l24 164h172l-24 -163q237 -10 370 -136t133 -342q0 -25 -2.5 -53.5t-7.5 -63.5zM1374 786q4 23 6 46t2 49
q0 161 -94 252.5t-260 91.5l-139 -879q188 0 320.5 119t164.5 321zM856 1225q-192 0 -323 -118t-162 -321q-4 -21 -6.5 -45t-2.5 -51q0 -162 94.5 -253t260.5 -91z" />
    <glyph glyph-name="Chi" unicode="&#x3a7;" horiz-adv-x="1155" 
d="M1372 1544l-567 -737l348 -807h-195l-278 657l-481 -657h-197l608 817l-334 727h195l262 -590l445 590h194z" />
    <glyph glyph-name="Psi" unicode="&#x3a8;" horiz-adv-x="1536" 
d="M1628 1544l-98 -631q-47 -305 -204 -458t-424 -156l-48 -299h-172l47 299q-222 3 -334 113.5t-112 328.5q0 44 3.5 87t10.5 85l98 631h172l-104 -665q-5 -35 -7.5 -63.5t-2.5 -53.5q0 -149 75.5 -226.5t225.5 -80.5l172 1089h172l-172 -1089q178 3 286 110t140 314
l104 665h172z" />
    <glyph glyph-name="Omega" unicode="&#x3a9;" horiz-adv-x="1765" 
d="M1815 773q-32 -195 -140 -356.5t-272 -260.5h342l-25 -156h-626l24 156q200 62 345.5 233t178.5 383q5 25 7 51t2 56q0 234 -152 384t-393 150q-286 0 -489.5 -187.5t-245.5 -453.5q-4 -25 -6.5 -51t-2.5 -55q0 -180 91.5 -318.5t246.5 -191.5l-24 -156h-631l25 156h344
q-110 81 -169 207t-59 280q0 27 2.5 58.5t8.5 71.5q53 342 321.5 572t614.5 230q307 0 499.5 -186.5t192.5 -481.5q0 -39 -2.5 -71.5t-7.5 -62.5z" />
    <glyph glyph-name="alpha" unicode="&#x3b1;" 
d="M1186 956l-152 -956h-164l25 158q-64 -93 -160 -141t-215 -48q-173 0 -279 113t-106 299q0 28 2 54t6 50q35 221 186.5 360.5t354.5 139.5q115 0 196.5 -45t118.5 -129l23 145h164zM948 489q3 20 4.5 38.5t1.5 35.5q0 124 -72.5 195t-197.5 71q-143 0 -247.5 -94.5
t-129.5 -251.5q-3 -20 -4.5 -39t-1.5 -36q0 -128 72.5 -204.5t191.5 -76.5q141 0 249.5 101.5t133.5 260.5z" />
    <glyph glyph-name="beta" unicode="&#x3b2;" horiz-adv-x="1214" 
d="M1231 519q-39 -250 -200.5 -400t-393.5 -150q-114 0 -187 46.5t-110 142.5l-109 -690h-163l290 1839q31 194 150.5 300.5t302.5 106.5q160 0 257 -91.5t97 -240.5q0 -17 -1.5 -34t-4.5 -36q-17 -112 -86.5 -196.5t-175.5 -120.5q147 -20 243.5 -133t96.5 -268
q0 -18 -1.5 -37t-4.5 -38zM1067 516q2 11 3 23.5t1 38.5q0 151 -115.5 241t-312.5 90l23 140q126 0 218.5 73.5t110.5 190.5q1 3 1 8q3 27 3 41q0 93 -56.5 150t-145.5 57q-117 0 -185.5 -65.5t-89.5 -198.5l-129 -808q-3 -21 -4.5 -41t-1.5 -38q0 -135 72.5 -218t189.5 -83
q175 0 280.5 100.5t137.5 298.5z" />
    <glyph glyph-name="gamma" unicode="&#x3b3;" horiz-adv-x="948" 
d="M1083 956l-503 -819l-107 -669h-164l105 667l-246 821h186l170 -645l371 645h188z" />
    <glyph glyph-name="delta" unicode="&#x3b4;" horiz-adv-x="1151" 
d="M1161 481q-34 -213 -206 -362.5t-386 -149.5q-189 0 -311.5 121t-122.5 307q0 20 1.5 41.5t4.5 42.5q32 199 183 339t352 159q-96 78 -145.5 169t-49.5 189q0 25 1 37t3 23q24 145 135 219t306 74h53l-25 -156h-53q-126 0 -183.5 -34t-70.5 -114q-1 -5 -1.5 -11.5
t-0.5 -18.5q0 -169 334 -433l14 -12q81 -63 127.5 -158t46.5 -200q0 -18 -1.5 -35.5t-4.5 -36.5zM997 481q3 11 3.5 23.5t0.5 38.5q0 127 -82.5 206.5t-211.5 79.5q-149 0 -263.5 -98.5t-138.5 -249.5q-2 -11 -3 -23.5t-1 -37.5q0 -130 82.5 -211.5t212.5 -81.5
q147 0 262 101t139 253z" />
    <glyph glyph-name="epsilon" unicode="&#x3b5;" horiz-adv-x="754" 
d="M838 915l-27 -170q-52 41 -115.5 61.5t-132.5 20.5q-101 0 -157 -31t-66 -94q-1 -5 -1.5 -11t-0.5 -17q0 -61 51.5 -92t163.5 -37l-13 -80q-110 -6 -182 -58.5t-86 -134.5q-1 -5 -1.5 -9t-0.5 -13q0 -58 49.5 -90.5t135.5 -32.5q71 0 137 20t133 62l-27 -168
q-85 -42 -146 -57t-138 -15q-148 0 -231 62.5t-83 171.5q0 12 4 40v5q17 98 71 164t140 92q-70 18 -104.5 60.5t-34.5 111.5q0 14 4 46v5q19 123 122 190.5t271 67.5q77 0 143 -17.5t122 -52.5z" />
    <glyph glyph-name="zeta" unicode="&#x3b6;" horiz-adv-x="819" 
d="M1098 1690q-430 -519 -599.5 -793t-205.5 -501q-3 -17 -4.5 -32.5t-1.5 -29.5q0 -89 55 -129.5t174 -40.5q130 0 205.5 -69t75.5 -181q0 -8 -1 -18.5t-3 -30.5q-14 -87 -76 -168.5t-154 -132.5l-76 106q53 30 91.5 80t46.5 99q1 5 1.5 10.5t0.5 17.5q0 60 -43 91.5
t-127 31.5q-170 0 -255 71.5t-85 215.5q0 24 2 47t6 47q35 221 198.5 494t493.5 659h-383l25 156h639z" />
    <glyph glyph-name="eta" unicode="&#x3b7;" horiz-adv-x="1081" 
d="M1036 616l-182 -1148h-164l174 1103q4 22 6 44.5t2 46.5q0 91 -41.5 134.5t-130.5 43.5q-123 0 -203.5 -97.5t-109.5 -283.5l-72 -459h-163l151 956h164l-23 -141q57 85 140.5 127.5t193.5 42.5q126 0 196 -72t70 -204q0 -25 -2 -48t-6 -45z" />
    <glyph glyph-name="theta" unicode="&#x3b8;" horiz-adv-x="1241" 
d="M1292 839q-64 -407 -244.5 -638.5t-431.5 -231.5q-197 0 -310 161t-113 445q0 58 5.5 123.5t16.5 141.5q64 403 248 638.5t430 235.5q198 0 310 -160t112 -444q0 -67 -5.5 -134.5t-17.5 -136.5zM1143 956q4 36 6 73.5t2 78.5q0 220 -73.5 338.5t-209.5 118.5
q-151 0 -276.5 -164.5t-188.5 -444.5h740zM1122 801h-747q-9 -63 -13 -116.5t-4 -98.5q0 -221 74 -344t207 -123q169 0 297.5 181.5t185.5 500.5z" />
    <glyph glyph-name="iota" unicode="&#x3b9;" horiz-adv-x="537" 
d="M502 956l-152 -956h-164l152 956h164z" />
    <glyph glyph-name="kappa" unicode="&#x3ba;" horiz-adv-x="963" 
d="M1071 956l-498 -432l383 -524h-202l-359 504l-80 -504h-163l151 956h164l-68 -426l478 426h194z" />
    <glyph glyph-name="lambda" unicode="&#x3bb;" horiz-adv-x="1020" 
d="M981 0h-180l-174 721l-428 -721h-179l551 909l-211 781h183z" />
    <glyph glyph-name="mu" unicode="&#x3bc;" horiz-adv-x="1090" 
d="M1090 956l-152 -956h-164l19 113q-39 -70 -104.5 -107t-147.5 -37q-83 0 -136.5 37t-70.5 107l-103 -645h-163l235 1488h164l-74 -464q-6 -40 -9 -76.5t-3 -67.5q0 -118 45 -175.5t137 -57.5q117 0 188 93t101 284l74 464h164z" />
    <glyph glyph-name="nu" unicode="&#x3bd;" horiz-adv-x="948" 
d="M1083 956l-614 -999l-301 999h186l170 -645l371 645h188z" />
    <glyph glyph-name="xi" unicode="&#x3be;" horiz-adv-x="887" 
d="M1063 1690q-213 -118 -347 -252.5t-153 -252.5q-1 -6 -1.5 -13.5t-0.5 -22.5q0 -87 66.5 -140t177.5 -53h55l-24 -155h-99q-165 0 -288.5 -95.5t-147.5 -248.5q-3 -20 -4.5 -39t-1.5 -37q0 -110 65.5 -163.5t202.5 -53.5q133 0 209 -68t76 -186q0 -15 -1.5 -30.5
t-4.5 -32.5q-13 -81 -71.5 -158.5t-139.5 -124.5l-76 106q50 35 81.5 77.5t39.5 87.5q1 6 1.5 13t0.5 21q0 65 -42 98t-124 33q-183 0 -283 90.5t-100 259.5q0 28 2 54t6 51q26 167 143 285t277 145q-74 30 -119 96.5t-45 148.5q0 8 1 18t3 29q16 100 79.5 185t189.5 172
h-275l25 156h647z" />
    <glyph glyph-name="omicron" unicode="&#x3bf;" horiz-adv-x="1151" 
d="M1161 481q-34 -213 -206 -362.5t-386 -149.5q-189 0 -311.5 121t-122.5 307q0 20 1.5 41.5t4.5 42.5q34 214 203.5 359t384.5 145q192 0 315 -119t123 -303q0 -20 -1.5 -40t-4.5 -42zM997 481q3 11 3.5 23.5t0.5 38.5q0 127 -82.5 206.5t-211.5 79.5q-149 0 -263.5 -98.5
t-138.5 -249.5q-2 -11 -3 -23.5t-1 -37.5q0 -130 82.5 -211.5t212.5 -81.5q147 0 262 101t139 253z" />
    <glyph glyph-name="pi" unicode="&#x3c0;" horiz-adv-x="1049" 
d="M1057 956l-152 -956h-166l127 801h-432l-127 -801h-164l152 956h762z" />
    <glyph glyph-name="rho" unicode="&#x3c1;" horiz-adv-x="1171" 
d="M1184 486q-36 -227 -188.5 -372t-352.5 -145q-119 0 -200.5 48t-116.5 141l-109 -690h-164l160 1013q35 223 193.5 363.5t371.5 140.5q183 0 298.5 -114t115.5 -296q0 -14 -1.5 -32.5t-6.5 -56.5zM1016 484q3 18 4.5 36t1.5 35q0 126 -74 200t-198 74q-144 0 -245 -91.5
t-126 -247.5q-3 -20 -4.5 -38.5t-1.5 -35.5q0 -131 75.5 -210t198.5 -79q137 0 240.5 99t128.5 258z" />
    <glyph glyph-name="sigma" unicode="&#x3c3;" horiz-adv-x="1151" 
d="M1282 956l-22 -147h-185q40 -44 65 -117t25 -149q0 -26 -1 -38.5t-3 -23.5q-34 -213 -206 -362.5t-386 -149.5q-189 0 -311.5 121t-122.5 307q0 20 1.5 41.5t4.5 42.5q34 214 203.5 359t384.5 145q45 0 88 -7t82 -22h383zM997 481q3 11 3.5 23.5t0.5 38.5
q0 127 -82.5 206.5t-211.5 79.5q-149 0 -263.5 -98.5t-138.5 -249.5q-2 -11 -3 -23.5t-1 -37.5q0 -130 82.5 -211.5t212.5 -81.5q147 0 262 101t139 253z" />
    <glyph glyph-name="sigma1" unicode="&#x3c2;" horiz-adv-x="975" 
d="M1022 920l-27 -175q-50 40 -118 62t-138 22q-173 0 -290 -92.5t-142 -253.5q-2 -12 -3 -24.5t-1 -36.5q0 -123 84 -190.5t236 -67.5q136 0 209 -65t73 -185q0 -17 -1.5 -34t-4.5 -34q-14 -85 -69 -160.5t-138 -121.5l-78 106q50 34 81 77t38 87q3 16 3.5 23t0.5 14
q0 64 -42 96.5t-124 32.5q-201 0 -318.5 106.5t-117.5 288.5q0 26 2 49t6 45q35 223 205 359.5t410 136.5q82 0 146.5 -16t117.5 -49z" />
    <glyph glyph-name="tau" unicode="&#x3c4;" horiz-adv-x="659" 
d="M791 956l-25 -155h-225l-127 -801h-164l127 801h-230l25 155h619z" />
    <glyph glyph-name="upsilon" unicode="&#x3c5;" horiz-adv-x="1049" 
d="M1057 956l-86 -544q-37 -229 -146 -336t-305 -107q-166 0 -244.5 74.5t-78.5 230.5q0 31 3 65t9 73l86 544h164l-86 -538q-6 -37 -8 -61.5t-3 -45.5q0 -96 42.5 -140t140.5 -44q117 0 176 68t84 223l86 538h166z" />
    <glyph glyph-name="phi" unicode="&#x3c6;" horiz-adv-x="1290" 
d="M1301 482q-33 -209 -189 -338t-385 -144l-84 -532h-164l84 532q-207 13 -318.5 112.5t-111.5 272.5q0 26 2 50t6 46q31 193 170.5 329t323.5 146l-25 -159q-120 -10 -201.5 -93t-103.5 -225q-3 -18 -4.5 -35.5t-1.5 -33.5q0 -116 72.5 -179.5t216.5 -74.5l127 800h110
q222 0 352 -106.5t130 -288.5q0 -18 -1.5 -37.5t-4.5 -41.5zM1137 479q2 11 3 22.5t1 33.5q0 115 -77.5 186.5t-209.5 79.5l-102 -645q162 11 262 95t123 228z" />
    <glyph glyph-name="chi" unicode="&#x3c7;" horiz-adv-x="909" 
d="M1049 956l-465 -696l280 -792h-178l-217 645l-414 -645h-176l531 802l-246 686h178l182 -540l346 540h179z" />
    <glyph glyph-name="psi" unicode="&#x3c8;" horiz-adv-x="1393" 
d="M1401 956l-64 -399q-45 -286 -182 -421.5t-377 -135.5l-84 -532h-164l84 532q-200 0 -298.5 95.5t-98.5 291.5q0 42 3.5 84t10.5 86l64 399h164l-64 -405q-6 -40 -9 -76.5t-3 -68.5q0 -130 62 -189t194 -59l127 798h164l-127 -798q161 0 249 90.5t122 302.5l63 405h164z
" />
    <glyph glyph-name="omega" unicode="&#x3c9;" horiz-adv-x="1378" 
d="M1344 443q-36 -227 -143 -350.5t-267 -123.5q-94 0 -150.5 56.5t-66.5 158.5q-43 -103 -116.5 -159t-166.5 -56q-132 0 -202 85t-70 245q0 33 3 69.5t9 73.5q25 156 86.5 297.5t134.5 216.5h152q-86 -117 -135.5 -236.5t-71.5 -262.5q-6 -40 -9 -75.5t-3 -66.5
q0 -100 34 -148t105 -48q88 0 141 95.5t92 350.5l15 94h155l-14 -94q-16 -98 -22.5 -158.5t-6.5 -105.5q0 -94 29 -138t90 -44q92 0 150 83.5t86 254.5q7 45 10.5 88.5t3.5 87.5q0 83 -15.5 161.5t-47.5 161.5h151q35 -52 54.5 -140.5t19.5 -194.5q0 -46 -3.5 -90.5
t-10.5 -87.5z" />
    <glyph glyph-name="U2215" unicode="&#x2215;" horiz-adv-x="330" 
d="M942 1544l-1188 -1544h-119l1186 1544h121z" />
    <glyph glyph-name="anoteleia" unicode="&#x387;" horiz-adv-x="631" 
d="M545 788q-8 -49 -48 -83.5t-89 -34.5q-44 0 -73.5 29t-29.5 71q0 3 1 9t1 9q8 49 48 83t89 34q45 0 74 -27.5t29 -70.5q0 -3 -1 -9t-1 -10z" />
    <glyph glyph-name="U037e" unicode="&#x37e;" horiz-adv-x="631" 
d="M576 869q-8 -50 -47.5 -84.5t-88.5 -34.5q-43 0 -72.5 29t-29.5 71q0 3 1 9t1 9q8 49 48 83t89 34q44 0 72.5 -27.5t28.5 -70.5q0 -8 -1 -12t-1 -6zM461 170l-355 -528l-94 41l287 561z" />
    <glyph glyph-name="tonos" unicode="&#x384;" horiz-adv-x="401" 
d="M498 1475l-80 -402h-94l47 402h127z" />
    <glyph glyph-name="dieresistonos" unicode="&#x385;" horiz-adv-x="942" 
d="M530 1247q0 -46 -34 -79t-80 -33q-37 0 -61.5 23t-24.5 59q0 44 35 78t81 34q38 0 61 -23t23 -59zM1001 1249q0 -47 -34 -80.5t-80 -33.5q-38 0 -62 23t-24 59q0 44 35 78t82 34q37 0 60 -22.5t23 -57.5zM770 1475l-82 -402h-92l45 402h129z" />
    <glyph glyph-name="Alphatonos" unicode="&#x386;" horiz-adv-x="1952" 
d="M498 1475l-80 -402h-94l47 402h127zM1947 0h-190l-127 467h-641l-272 -467h-191l963 1587zM1591 614l-162 596l-350 -596h512z" />
    <glyph glyph-name="Epsilontonos" unicode="&#x388;" horiz-adv-x="1495" 
d="M498 1475l-80 -402h-94l47 402h127zM1587 1544l-25 -162h-610l-74 -469h610l-26 -161h-610l-93 -590h611l-27 -162h-782l243 1544h783z" />
    <glyph glyph-name="Etatonos" unicode="&#x389;" horiz-adv-x="1864" 
d="M498 1475l-80 -402h-94l47 402h127zM1947 1544l-243 -1544h-173l119 750h-798l-119 -750h-172l243 1544h172l-100 -633h799l100 633h172z" />
    <glyph glyph-name="Iotatonos" unicode="&#x38a;" horiz-adv-x="891" 
d="M498 1475l-80 -402h-94l47 402h127zM976 1544l-243 -1544h-172l243 1544h172z" />
    <glyph glyph-name="Omicrontonos" unicode="&#x38c;" horiz-adv-x="2195" 
d="M498 1475l-80 -402h-94l47 402h127zM2245 773q-54 -340 -324.5 -572t-611.5 -232q-305 0 -499 189.5t-194 482.5q0 28 2.5 60t8.5 72q53 342 321.5 572t614.5 230q307 0 499.5 -186.5t192.5 -481.5q0 -39 -2.5 -71.5t-7.5 -62.5zM2072 772q5 25 7 51t2 56q0 234 -152 384
t-393 150q-286 0 -489.5 -187.5t-245.5 -453.5q-4 -25 -6.5 -52t-2.5 -56q0 -235 150 -384t391 -149q272 0 485 185.5t254 455.5z" />
    <glyph glyph-name="Upsilontonos" unicode="&#x38e;" horiz-adv-x="1616" 
d="M498 1475l-80 -402h-94l47 402h127zM1826 1544l-614 -835l-113 -709h-172l113 709l-363 835h193l283 -680l483 680h190z" />
    <glyph glyph-name="Omegatonos" unicode="&#x38f;" horiz-adv-x="2191" 
d="M498 1475l-80 -402h-94l47 402h127zM2241 773q-32 -195 -140 -356.5t-272 -260.5h342l-25 -156h-626l24 156q200 62 345.5 233t178.5 383q5 25 7 51t2 56q0 234 -152 384t-393 150q-286 0 -489.5 -187.5t-245.5 -453.5q-4 -25 -6.5 -51t-2.5 -55q0 -180 91.5 -318.5
t246.5 -191.5l-24 -156h-631l25 156h344q-110 81 -169 207t-59 280q0 27 2.5 58.5t8.5 71.5q53 342 321.5 572t614.5 230q307 0 499.5 -186.5t192.5 -481.5q0 -39 -2.5 -71.5t-7.5 -62.5z" />
    <glyph glyph-name="Upsilondieresis" unicode="&#x3ab;" horiz-adv-x="1214" 
d="M1425 1544l-614 -835l-113 -709h-172l113 709l-363 835h193l283 -680l483 680h190zM1100 1839q0 -47 -34 -80.5t-81 -33.5q-38 0 -62 23t-24 59q0 44 35.5 78t81.5 34q37 0 60.5 -22.5t23.5 -57.5zM707 1837q0 -46 -34.5 -79t-80.5 -33q-37 0 -61.5 23t-24.5 59
q0 44 35 78t82 34q37 0 60.5 -23t23.5 -59z" />
    <glyph glyph-name="alphatonos" unicode="&#x3ac;" 
d="M1186 956l-152 -956h-164l25 158q-64 -93 -160 -141t-215 -48q-173 0 -279 113t-106 299q0 28 2 54t6 50q35 221 186.5 360.5t354.5 139.5q115 0 196.5 -45t118.5 -129l23 145h164zM948 489q3 20 4.5 38.5t1.5 35.5q0 124 -72.5 195t-197.5 71q-143 0 -247.5 -94.5
t-129.5 -251.5q-3 -20 -4.5 -39t-1.5 -36q0 -128 72.5 -204.5t191.5 -76.5q141 0 249.5 101.5t133.5 260.5zM889 1475l-80 -402h-94l47 402h127z" />
    <glyph glyph-name="epsilontonos" unicode="&#x3ad;" horiz-adv-x="754" 
d="M838 915l-27 -170q-52 41 -115.5 61.5t-132.5 20.5q-101 0 -157 -31t-66 -94q-1 -5 -1.5 -11t-0.5 -17q0 -61 51.5 -92t163.5 -37l-13 -80q-110 -6 -182 -58.5t-86 -134.5q-1 -5 -1.5 -9t-0.5 -13q0 -58 49.5 -90.5t135.5 -32.5q71 0 137 20t133 62l-27 -168
q-85 -42 -146 -57t-138 -15q-148 0 -231 62.5t-83 171.5q0 12 4 40v5q17 98 71 164t140 92q-70 18 -104.5 60.5t-34.5 111.5q0 14 4 46v5q19 123 122 190.5t271 67.5q77 0 143 -17.5t122 -52.5zM674 1475l-80 -402h-94l47 402h127z" />
    <glyph glyph-name="etatonos" unicode="&#x3ae;" horiz-adv-x="1081" 
d="M1036 616l-182 -1148h-164l174 1103q4 22 6 44.5t2 46.5q0 91 -41.5 134.5t-130.5 43.5q-123 0 -203.5 -97.5t-109.5 -283.5l-72 -459h-163l151 956h164l-23 -141q57 85 140.5 127.5t193.5 42.5q126 0 196 -72t70 -204q0 -25 -2 -48t-6 -45zM838 1475l-80 -402h-94
l47 402h127z" />
    <glyph glyph-name="iotatonos" unicode="&#x3af;" horiz-adv-x="537" 
d="M502 956l-152 -956h-164l152 956h164zM566 1475l-80 -402h-94l47 402h127z" />
    <glyph glyph-name="omicrontonos" unicode="&#x3cc;" horiz-adv-x="1151" 
d="M1161 481q-34 -213 -206 -362.5t-386 -149.5q-189 0 -311.5 121t-122.5 307q0 20 1.5 41.5t4.5 42.5q34 214 203.5 359t384.5 145q192 0 315 -119t123 -303q0 -20 -1.5 -40t-4.5 -42zM997 481q3 11 3.5 23.5t0.5 38.5q0 127 -82.5 206.5t-211.5 79.5q-149 0 -263.5 -98.5
t-138.5 -249.5q-2 -11 -3 -23.5t-1 -37.5q0 -130 82.5 -211.5t212.5 -81.5q147 0 262 101t139 253zM873 1475l-80 -402h-94l47 402h127z" />
    <glyph glyph-name="upsilontonos" unicode="&#x3cd;" horiz-adv-x="1049" 
d="M1057 956l-86 -544q-37 -229 -146 -336t-305 -107q-166 0 -244.5 74.5t-78.5 230.5q0 31 3 65t9 73l86 544h164l-86 -538q-6 -37 -8 -61.5t-3 -45.5q0 -96 42.5 -140t140.5 -44q117 0 176 68t84 223l86 538h166zM822 1475l-80 -402h-94l47 402h127z" />
    <glyph glyph-name="omegatonos" unicode="&#x3ce;" horiz-adv-x="1378" 
d="M1344 443q-36 -227 -143 -350.5t-267 -123.5q-94 0 -150.5 56.5t-66.5 158.5q-43 -103 -116.5 -159t-166.5 -56q-132 0 -202 85t-70 245q0 33 3 69.5t9 73.5q25 156 86.5 297.5t134.5 216.5h152q-86 -117 -135.5 -236.5t-71.5 -262.5q-6 -40 -9 -75.5t-3 -66.5
q0 -100 34 -148t105 -48q88 0 141 95.5t92 350.5l15 94h155l-14 -94q-16 -98 -22.5 -158.5t-6.5 -105.5q0 -94 29 -138t90 -44q92 0 150 83.5t86 254.5q7 45 10.5 88.5t3.5 87.5q0 83 -15.5 161.5t-47.5 161.5h151q35 -52 54.5 -140.5t19.5 -194.5q0 -46 -3.5 -90.5
t-10.5 -87.5zM987 1475l-80 -402h-94l47 402h127z" />
    <glyph glyph-name="iotadieresis" unicode="&#x3ca;" horiz-adv-x="537" 
d="M502 956l-152 -956h-164l152 956h164zM763 1249q0 -47 -34 -80.5t-81 -33.5q-38 0 -62 23t-24 59q0 44 35.5 78t81.5 34q37 0 60.5 -22.5t23.5 -57.5zM370 1247q0 -46 -34.5 -79t-80.5 -33q-37 0 -61.5 23t-24.5 59q0 44 35 78t82 34q37 0 60.5 -23t23.5 -59z" />
    <glyph glyph-name="Iotadieresis" unicode="&#x3aa;" horiz-adv-x="489" 
d="M575 1544l-243 -1544h-172l243 1544h172zM739 1839q0 -47 -34 -80.5t-81 -33.5q-38 0 -62 23t-24 59q0 44 35.5 78t81.5 34q37 0 60.5 -22.5t23.5 -57.5zM346 1837q0 -46 -34.5 -79t-80.5 -33q-37 0 -61.5 23t-24.5 59q0 44 35 78t82 34q37 0 60.5 -23t23.5 -59z" />
    <glyph glyph-name="upsilondieresis" unicode="&#x3cb;" horiz-adv-x="1049" 
d="M1057 956l-86 -544q-37 -229 -146 -336t-305 -107q-166 0 -244.5 74.5t-78.5 230.5q0 31 3 65t9 73l86 544h164l-86 -538q-6 -37 -8 -61.5t-3 -45.5q0 -96 42.5 -140t140.5 -44q117 0 176 68t84 223l86 538h166zM1018 1249q0 -47 -34 -80.5t-81 -33.5q-38 0 -62 23
t-24 59q0 44 35.5 78t81.5 34q37 0 60.5 -22.5t23.5 -57.5zM625 1247q0 -46 -34.5 -79t-80.5 -33q-37 0 -61.5 23t-24.5 59q0 44 35 78t82 34q37 0 60.5 -23t23.5 -59z" />
    <glyph glyph-name="iotedieresistonos" unicode="&#x390;" horiz-adv-x="537" 
d="M502 956l-152 -956h-164l152 956h164zM328 1247q0 -46 -34 -79t-80 -33q-37 0 -61.5 23t-24.5 59q0 44 35 78t81 34q38 0 61 -23t23 -59zM799 1249q0 -47 -34 -80.5t-80 -33.5q-38 0 -62 23t-24 59q0 44 35 78t82 34q37 0 60 -22.5t23 -57.5zM568 1475l-82 -402h-92
l45 402h129z" />
    <glyph glyph-name="upsilondieresistonos" unicode="&#x3b0;" horiz-adv-x="1049" 
d="M1057 956l-86 -544q-37 -229 -146 -336t-305 -107q-166 0 -244.5 74.5t-78.5 230.5q0 31 3 65t9 73l86 544h164l-86 -538q-6 -37 -8 -61.5t-3 -45.5q0 -96 42.5 -140t140.5 -44q117 0 176 68t84 223l86 538h166zM583 1247q0 -46 -34 -79t-80 -33q-37 0 -61.5 23t-24.5 59
q0 44 35 78t81 34q38 0 61 -23t23 -59zM1054 1249q0 -47 -34 -80.5t-80 -33.5q-38 0 -62 23t-24 59q0 44 35 78t82 34q37 0 60 -22.5t23 -57.5zM823 1475l-82 -402h-92l45 402h129z" />
    <glyph glyph-name="afii10017" unicode="&#x410;" horiz-adv-x="1432" 
d="M1417 0h-190l-127 467h-641l-273 -467h-190l962 1587zM1061 614l-162 596l-350 -596h512z" />
    <glyph glyph-name="afii10018" unicode="&#x411;" horiz-adv-x="1153" 
d="M1133 455q-37 -226 -192 -340.5t-425 -114.5h-356l243 1544h687l-25 -155h-514l-76 -478h184q239 0 360.5 -91t121.5 -269q0 -26 -2 -49.5t-6 -46.5zM960 454q4 18 5.5 34.5t1.5 31.5q0 117 -81.5 175.5t-244.5 58.5h-190l-95 -598h191q183 0 286 74.5t127 223.5z" />
    <glyph glyph-name="afii10019" unicode="&#x412;" horiz-adv-x="1163" 
d="M1131 437q-36 -221 -188 -329t-427 -108h-356l243 1544h312q191 0 296 -85t105 -238q0 -19 -1.5 -36.5t-4.5 -37.5q-20 -128 -91.5 -211.5t-182.5 -108.5q139 -18 220 -107t81 -220q0 -15 -1.5 -30.5t-4.5 -32.5zM936 1133q3 17 4.5 32.5t1.5 30.5q0 98 -63.5 144
t-196.5 46h-131l-80 -505h104q160 0 250 62.5t111 189.5zM958 436q3 23 4 34t1 19q0 118 -91 180t-266 62h-157l-93 -573h191q194 0 291 67.5t120 210.5z" />
    <glyph glyph-name="afii10020" unicode="&#x413;" horiz-adv-x="768" 
d="M987 1544l-24 -158h-412l-219 -1386h-172l243 1544h584z" />
    <glyph glyph-name="afii10021" unicode="&#x414;" horiz-adv-x="1374" 
d="M1462 1544l-217 -1382h137l-77 -490h-172l51 328h-1006l-51 -328h-172l78 490q113 0 160.5 67t76.5 256l166 1059h1026zM1266 1382h-682l-146 -911q-20 -125 -49 -203t-65 -106h749z" />
    <glyph glyph-name="afii10022" unicode="&#x415;" horiz-adv-x="1094" 
d="M1186 1544l-25 -162h-610l-74 -469h610l-26 -161h-610l-93 -590h611l-27 -162h-782l243 1544h783z" />
    <glyph glyph-name="afii10023" unicode="&#x401;" horiz-adv-x="1094" 
d="M1120 1755q-6 -41 -39.5 -69.5t-74.5 -28.5q-37 0 -60.5 23t-23.5 59q0 3 1 8t1 8q6 40 39 68t73 28q37 0 61.5 -23t24.5 -59q0 -2 -1 -6.5t-1 -7.5zM727 1755q-6 -41 -39.5 -69.5t-75.5 -28.5q-36 0 -60 23t-24 59q0 3 1 8t1 8q7 40 40 68t73 28q37 0 61.5 -23t24.5 -59
q0 -1 -1 -6t-1 -8zM1186 1544l-25 -162h-610l-74 -469h610l-26 -161h-610l-93 -590h611l-27 -162h-782l243 1544h783z" />
    <glyph glyph-name="afii10024" unicode="&#x416;" horiz-adv-x="1942" 
d="M2167 1544l-793 -727l578 -817h-219l-549 799l-127 -799h-172l127 799l-803 -799h-217l833 817l-563 727h207l547 -723l112 723h172l-112 -723l772 723h207z" />
    <glyph glyph-name="afii10025" unicode="&#x417;" horiz-adv-x="1100" 
d="M1149 1151q-20 -121 -101 -214.5t-204 -131.5q114 -33 175.5 -114.5t61.5 -196.5q0 -18 -1.5 -36t-4.5 -35q-34 -219 -190.5 -336.5t-409.5 -117.5q-94 0 -202 31.5t-181 81.5l31 184q99 -68 192 -101.5t183 -33.5q184 0 282 68.5t121 213.5q3 17 4.5 34.5t1.5 33.5
q0 122 -85 183t-255 61h-110l24 158h94q187 0 282.5 61.5t117.5 198.5q2 10 3 23t1 36q0 102 -64 156.5t-186 54.5q-98 0 -202.5 -35t-217.5 -106l31 184q89 57 198.5 88t217.5 31q190 0 294.5 -90.5t104.5 -251.5q0 -20 -1.5 -40t-4.5 -42z" />
    <glyph glyph-name="afii10026" unicode="&#x418;" horiz-adv-x="1708" 
d="M1790 1587l-252 -1587h-172l186 1174l-1388 -1217l250 1587h172l-185 -1171z" />
    <glyph glyph-name="afii10027" unicode="&#x419;" horiz-adv-x="1708" 
d="M1456 1866q-46 -124 -134.5 -188t-211.5 -64q-125 0 -196.5 66.5t-71.5 185.5l118 36q2 -87 45 -138.5t119 -51.5q78 0 139.5 54t84.5 137zM1790 1587l-252 -1587h-172l186 1174l-1388 -1217l250 1587h172l-185 -1171z" />
    <glyph glyph-name="afii10028" unicode="&#x41a;" horiz-adv-x="1251" 
d="M1442 1544l-793 -727l578 -817h-219l-549 799l-127 -799h-172l243 1544h172l-112 -723l772 723h207z" />
    <glyph glyph-name="afii10029" unicode="&#x41b;" horiz-adv-x="1378" 
d="M1462 1544l-243 -1544h-172l219 1382h-686l-150 -942q-41 -258 -138.5 -364.5t-293.5 -106.5l25 162q113 0 160 67.5t77 256.5l172 1089h1030z" />
    <glyph glyph-name="afii10030" unicode="&#x41c;" horiz-adv-x="1835" 
d="M1755 1587l-8 -1587h-174l18 1053l-680 -1096l-333 1096l-314 -1053h-176l500 1587l385 -1263z" />
    <glyph glyph-name="afii10031" unicode="&#x41d;" horiz-adv-x="1462" 
d="M1546 1544l-243 -1544h-173l119 750h-798l-119 -750h-172l243 1544h172l-100 -633h799l100 633h172z" />
    <glyph glyph-name="afii10032" unicode="&#x41e;" horiz-adv-x="1765" 
d="M1815 773q-54 -340 -324.5 -572t-611.5 -232q-305 0 -499 189.5t-194 482.5q0 28 2.5 60t8.5 72q53 342 321.5 572t614.5 230q307 0 499.5 -186.5t192.5 -481.5q0 -39 -2.5 -71.5t-7.5 -62.5zM1642 772q5 25 7 51t2 56q0 234 -152 384t-393 150q-287 0 -491 -188
t-246 -453q-4 -25 -6.5 -52t-2.5 -56q0 -235 150.5 -384t392.5 -149q272 0 485 185.5t254 455.5z" />
    <glyph glyph-name="afii10033" unicode="&#x41f;" horiz-adv-x="1462" 
d="M1546 1544l-243 -1544h-173l220 1382h-799l-219 -1382h-172l243 1544h1143z" />
    <glyph glyph-name="afii10034" unicode="&#x420;" horiz-adv-x="1030" 
d="M1124 1112q-33 -211 -189 -320.5t-423 -109.5h-72l-108 -682h-172l243 1544h244q244 0 365 -85t121 -255q0 -24 -2.5 -47t-6.5 -45zM952 1112q3 16 4.5 31.5t1.5 30.5q0 108 -78 158t-253 50h-76l-86 -538h76q202 0 295.5 62t115.5 206z" />
    <glyph glyph-name="afii10035" unicode="&#x421;" horiz-adv-x="1468" 
d="M1614 1440l-31 -193q-83 78 -201.5 122t-240.5 44q-286 0 -507 -182.5t-265 -456.5q-4 -26 -6.5 -53.5t-2.5 -56.5q0 -236 154.5 -384.5t396.5 -148.5q136 0 277 44.5t246 121.5l-31 -197q-95 -55 -245 -93t-267 -38q-316 0 -511.5 183.5t-195.5 480.5q0 34 3 69t10 72
q53 340 327 570.5t623 230.5q145 0 267 -35.5t200 -99.5z" />
    <glyph glyph-name="afii10036" unicode="&#x422;" horiz-adv-x="963" 
d="M1176 1544l-25 -155h-365l-219 -1389h-172l219 1389h-364l24 155h902z" />
    <glyph glyph-name="afii10037" unicode="&#x423;" horiz-adv-x="1133" 
d="M1389 1544l-975 -1544h-185l406 643l-402 901h193l319 -733l459 733h185z" />
    <glyph glyph-name="afii10038" unicode="&#x424;" horiz-adv-x="1495" 
d="M1546 786q-42 -266 -224 -425.5t-458 -170.5l-30 -190h-172l30 190q-239 10 -371.5 135t-132.5 341q0 26 2.5 55.5t8.5 65.5q42 263 225 423t457 170l24 164h172l-24 -163q237 -10 370 -136t133 -342q0 -25 -2.5 -53.5t-7.5 -63.5zM1374 786q4 23 6 46t2 49
q0 161 -94 252.5t-260 91.5l-139 -879q188 0 320.5 119t164.5 321zM856 1225q-192 0 -323 -118t-162 -321q-4 -21 -6.5 -45t-2.5 -51q0 -162 94.5 -253t260.5 -91z" />
    <glyph glyph-name="afii10039" unicode="&#x425;" horiz-adv-x="1155" 
d="M1372 1544l-567 -737l348 -807h-195l-278 657l-481 -657h-197l608 817l-334 727h195l262 -590l445 590h194z" />
    <glyph glyph-name="afii10040" unicode="&#x426;" horiz-adv-x="1473" 
d="M1546 1544l-217 -1382h88l-78 -490h-172l52 328h-1059l243 1544h172l-217 -1382h799l217 1382h172z" />
    <glyph glyph-name="afii10041" unicode="&#x427;" horiz-adv-x="1354" 
d="M1438 1544l-244 -1544h-172l106 672q-71 -53 -174.5 -86t-205.5 -33q-229 0 -342 107t-113 325q0 44 3.5 88t10.5 88l60 383h172l-66 -420q-5 -36 -7.5 -65.5t-2.5 -54.5q0 -147 76 -218t233 -71q105 0 208.5 34.5t174.5 92.5l111 702h172z" />
    <glyph glyph-name="afii10042" unicode="&#x428;" horiz-adv-x="1888" 
d="M1972 1544l-243 -1544h-1569l243 1544h172l-217 -1382h527l217 1382h172l-217 -1382h526l217 1382h172z" />
    <glyph glyph-name="afii10043" unicode="&#x429;" horiz-adv-x="1898" 
d="M1972 1544l-217 -1382h88l-78 -490h-172l52 328h-1485l243 1544h172l-217 -1382h527l217 1382h172l-217 -1382h526l217 1382h172z" />
    <glyph glyph-name="afii10044" unicode="&#x42a;" horiz-adv-x="1378" 
d="M1358 455q-36 -226 -191.5 -340.5t-425.5 -114.5h-356l219 1389h-360l24 155h533l-101 -633h185q238 0 359.5 -91t121.5 -269q0 -26 -2 -49.5t-6 -46.5zM1186 455q3 17 4.5 33.5t1.5 31.5q0 117 -81 175.5t-245 58.5h-190l-94 -598h190q183 0 286.5 74.5t127.5 224.5z
" />
    <glyph glyph-name="afii10045" unicode="&#x42b;" horiz-adv-x="1153" 
d="M1133 455q-37 -226 -192 -340.5t-425 -114.5h-356l243 1544h172l-100 -633h184q239 0 360.5 -91t121.5 -269q0 -26 -2 -49.5t-6 -46.5zM960 454q4 18 5.5 34.5t1.5 31.5q0 118 -82 177t-244 59h-190l-95 -600h191q183 0 286 74.5t127 223.5z" />
    <glyph glyph-name="afii10046" unicode="&#x42c;" horiz-adv-x="1624" 
d="M1708 1544l-244 -1544h-172l244 1544h172zM1133 455q-37 -226 -192 -340.5t-425 -114.5h-356l243 1544h172l-100 -633h184q239 0 360.5 -91t121.5 -269q0 -26 -2 -49.5t-6 -46.5zM960 454q4 18 5.5 34.5t1.5 31.5q0 118 -82 177t-244 59h-190l-95 -600h191
q183 0 286 74.5t127 223.5z" />
    <glyph glyph-name="afii10047" unicode="&#x42d;" horiz-adv-x="1468" 
d="M1518 775q-55 -351 -324 -578.5t-625 -227.5q-117 0 -255.5 38t-215.5 93l31 197q82 -77 208 -121.5t261 -44.5q255 0 462.5 162t270.5 414h-805l25 159h803v13q0 235 -162.5 384.5t-417.5 149.5q-123 0 -256 -44.5t-239 -121.5l30 193q99 64 233 99.5t279 35.5
q312 0 509.5 -188t197.5 -482q0 -28 -2.5 -59.5t-7.5 -70.5z" />
    <glyph glyph-name="afii10048" unicode="&#x42e;" horiz-adv-x="2357" 
d="M2406 772q-53 -339 -323.5 -571t-612.5 -232q-305 0 -499.5 189.5t-194.5 482.5q0 18 1.5 40t6.5 68l-333 1l-119 -750h-172l243 1544h172l-100 -633h344q95 293 347 478.5t558 185.5q308 0 500.5 -186.5t192.5 -481.5q0 -39 -2.5 -71.5t-8.5 -63.5zM2234 772q5 25 7 51
t2 56q0 234 -152 384t-393 150q-286 0 -489.5 -187.5t-245.5 -453.5q-5 -25 -7 -52t-2 -56q0 -235 150 -384t391 -149q272 0 484.5 185.5t254.5 455.5z" />
    <glyph glyph-name="afii10049" unicode="&#x42f;" horiz-adv-x="1110" 
d="M1194 1544l-244 -1544h-172l115 729h-51l-588 -729h-209l612 735q-171 3 -266.5 86t-95.5 230q0 19 1.5 38.5t4.5 38.5q32 201 178.5 308.5t392.5 107.5h322zM997 1382h-133q-180 0 -274.5 -62.5t-116.5 -197.5q-2 -22 -3 -33.5t-1 -19.5q0 -100 75.5 -146t239.5 -46h134
z" />
    <glyph glyph-name="afii10053" unicode="&#x404;" horiz-adv-x="1468" 
d="M1614 1440l-31 -193q-83 78 -201.5 122t-240.5 44q-259 0 -469.5 -153t-282.5 -394h803l-25 -159h-805q0 -8 -1 -22t-1 -21q0 -236 154.5 -384.5t396.5 -148.5q136 0 277 44.5t246 121.5l-31 -197q-95 -55 -245 -93t-267 -38q-316 0 -511.5 183.5t-195.5 480.5q0 34 3 69
t10 72q53 340 327 570.5t623 230.5q145 0 267 -35.5t200 -99.5z" />
    <glyph glyph-name="afii10056" unicode="&#x407;" horiz-adv-x="489" 
d="M788 1755q-6 -41 -39 -69.5t-75 -28.5q-37 0 -60.5 23t-23.5 59q0 3 1 8t1 8q6 40 39 68t74 28q36 0 61 -23t25 -59q-1 -2 -1.5 -6t-1.5 -8zM455 1755q-6 -41 -39.5 -69.5t-75.5 -28.5q-37 0 -60.5 23t-23.5 59q0 3 1 8t1 8q6 40 39.5 68t73.5 28q37 0 61.5 -23t24.5 -59
q0 -1 -1 -5.5t-1 -8.5zM575 1544l-243 -1544h-172l243 1544h172z" />
    <glyph glyph-name="afii10055" unicode="&#x406;" horiz-adv-x="489" 
d="M575 1544l-243 -1544h-172l243 1544h172z" />
    <glyph glyph-name="afii10050" unicode="&#x490;" horiz-adv-x="768" 
d="M1030 1810l-67 -424h-412l-219 -1386h-172l243 1544h412l43 266h172z" />
    <glyph glyph-name="afii10060" unicode="&#x40b;" horiz-adv-x="1552" 
d="M1501 387l-61 -387h-172l63 403q6 40 8 69t2 54q0 150 -75.5 223.5t-229.5 73.5q-104 0 -208 -34.5t-175 -92.5l-110 -696h-172l219 1386h-350l24 158h873l-25 -158h-350l-82 -520q72 53 175.5 86t205.5 33q230 0 342.5 -105.5t112.5 -320.5q0 -42 -4 -85.5t-11 -86.5z
" />
    <glyph glyph-name="afii10051" unicode="&#x402;" horiz-adv-x="1520" 
d="M1516 477q-36 -224 -196 -366t-394 -142l24 162q157 0 263 94t131 253q3 18 4.5 35.5t1.5 33.5q0 129 -79 202.5t-218 73.5q-108 0 -219.5 -35.5t-180.5 -91.5l-110 -696h-172l219 1386h-350l24 158h881l-25 -158h-358l-82 -520q70 51 181 85t216 34q210 0 328.5 -109.5
t118.5 -300.5q0 -27 -2 -51.5t-6 -46.5z" />
    <glyph glyph-name="afii10145" unicode="&#x40f;" horiz-adv-x="1462" 
d="M1546 1544l-243 -1544h-486l-51 -328h-172l51 328h-485l243 1544h172l-217 -1382h799l217 1382h172z" />
    <glyph glyph-name="afii10057" unicode="&#x408;" horiz-adv-x="643" 
d="M707 1544l-201 -1276q-36 -234 -125.5 -331t-265.5 -97q-68 0 -120 19.5t-89 58.5l84 145q32 -35 64 -49t77 -14q96 0 137.5 60t67.5 225l199 1259h172z" />
    <glyph glyph-name="afii10058" unicode="&#x409;" horiz-adv-x="1849" 
d="M1829 455q-36 -226 -191.5 -340.5t-425.5 -114.5h-356l219 1382h-495l-150 -942q-41 -258 -138 -364.5t-292 -106.5l23 162q113 0 160 67.5t77 256.5l172 1089h840l-101 -633h185q238 0 359.5 -91t121.5 -269q0 -26 -2 -49.5t-6 -46.5zM1657 455q3 17 4.5 33.5t1.5 31.5
q0 118 -81.5 177t-244.5 59h-190l-94 -600h190q183 0 286.5 74.5t127.5 224.5z" />
    <glyph glyph-name="afii10059" unicode="&#x40a;" horiz-adv-x="1870" 
d="M1849 455q-36 -226 -191 -340.5t-425 -114.5h-356l118 756h-544l-119 -756h-172l243 1544h172l-100 -633h545l100 633h172l-100 -633h184q239 0 360.5 -91t121.5 -269q0 -26 -2 -49.5t-7 -46.5zM1677 454q3 17 4.5 33.5t1.5 32.5q0 118 -81.5 177t-243.5 59h-191
l-94 -600h191q183 0 286 74.5t127 223.5z" />
    <glyph glyph-name="afii10054" unicode="&#x405;" horiz-adv-x="1145" 
d="M1149 1393l-135 -109q-26 62 -84.5 95.5t-138.5 33.5q-113 0 -187 -57t-90 -154q0 -2 -1 -6q-3 -26 -3 -39q0 -66 42 -117.5t163 -124.5l11 -6q355 -210 355 -422q0 -18 -1.5 -37t-4.5 -39q-32 -205 -178.5 -323.5t-368.5 -118.5q-153 0 -257 70t-136 194l139 105
q21 -97 97.5 -152t187.5 -55q141 0 231 72t111 203q0 1 1 5q3 26 3 42q0 85 -63 155t-205 146q-166 88 -234.5 170t-68.5 192q0 19 1.5 38.5t4.5 39.5q27 170 160.5 275.5t324.5 105.5q117 0 198 -46t126 -136z" />
    <glyph glyph-name="afii61352" unicode="&#x2116;" horiz-adv-x="2486" 
d="M2517 606q-26 -166 -155.5 -277.5t-295.5 -111.5q-144 0 -236.5 91t-92.5 233q0 16 1.5 32.5t4.5 33.5q26 163 152.5 270.5t291.5 107.5q151 0 243.5 -86.5t92.5 -226.5q0 -16 -1.5 -32.5t-4.5 -33.5zM2396 131l-20 -131h-684l20 131h684zM1720 1544l-250 -1587
l-954 1210l-184 -1167h-172l252 1587l952 -1210l184 1167h172zM2359 604q1 2 1 5q3 27 3 40q0 86 -53.5 137.5t-142.5 51.5q-102 0 -176 -65t-90 -169q-1 -2 -1 -5q-4 -28 -4 -40q0 -87 54 -140.5t141 -53.5q100 0 176 67.5t92 171.5z" />
    <glyph glyph-name="afii10065" unicode="&#x430;" 
d="M1186 956l-152 -956h-164l25 158q-64 -93 -160 -141t-215 -48q-173 0 -279 113t-106 299q0 28 2 54t6 50q35 221 186.5 360.5t354.5 139.5q115 0 196.5 -45t118.5 -129l23 145h164zM948 489q3 20 4.5 38.5t1.5 35.5q0 124 -72.5 195t-197.5 71q-143 0 -247.5 -94.5
t-129.5 -251.5q-3 -20 -4.5 -39t-1.5 -36q0 -128 72.5 -204.5t191.5 -76.5q141 0 249.5 101.5t133.5 260.5z" />
    <glyph glyph-name="afii10066" unicode="&#x431;" horiz-adv-x="1151" 
d="M1264 1690q-27 -169 -145.5 -292.5t-334.5 -205.5q-138 -52 -232 -132t-149 -192q73 59 154 88t172 29q192 0 315 -119t123 -303q0 -20 -1.5 -40t-4.5 -42q-34 -213 -206 -362.5t-386 -149.5q-192 0 -311 122t-119 323q0 29 2 55.5t6 52.5q53 330 202.5 523.5
t424.5 293.5q153 56 236.5 141t103.5 210h150zM997 481q3 11 3.5 23.5t0.5 38.5q0 127 -82.5 206.5t-211.5 79.5q-149 0 -263.5 -98.5t-138.5 -249.5q-2 -11 -3 -23.5t-1 -37.5q0 -130 83 -212.5t212 -82.5q147 0 262 101.5t139 254.5z" />
    <glyph glyph-name="afii10067" unicode="&#x432;" horiz-adv-x="852" 
d="M815 286q-23 -147 -123 -216.5t-297 -69.5h-252l152 956h229q145 0 218 -51.5t73 -152.5q0 -14 -3 -40q-1 -7 -1 -10q-11 -68 -48.5 -117.5t-96.5 -72.5q73 -21 112 -70t39 -118q0 -16 -0.5 -23.5t-1.5 -14.5zM645 688q1 5 1.5 11.5t0.5 19.5q0 48 -34.5 69t-112.5 21
h-64l-37 -234h58q89 0 134.5 27t53.5 86zM651 286q1 6 1.5 12.5t0.5 18.5q0 59 -47 85t-149 26h-82l-45 -281h88q115 0 168 32t65 107z" />
    <glyph glyph-name="afii10068" unicode="&#x433;" horiz-adv-x="655" 
d="M793 956l-23 -147h-334l-129 -809h-164l152 956h498z" />
    <glyph glyph-name="afii10069" unicode="&#x434;" horiz-adv-x="1042" 
d="M1044 147l-73 -475h-164l51 328h-674l-51 -328h-164l51 328l23 147q92 0 131.5 49t63.5 191l90 569h712l-129 -809h133zM854 809h-385l-68 -426q-12 -79 -35 -142t-51 -94h433z" />
    <glyph glyph-name="afii10070" unicode="&#x435;" horiz-adv-x="1063" 
d="M1077 510l-8 -57l-768 -1q-1 -9 -1.5 -21t-0.5 -34q0 -130 69 -201t193 -71q105 0 185.5 42t136.5 126l125 -72q-87 -125 -205.5 -188.5t-267.5 -63.5q-188 0 -295 108.5t-107 297.5q0 30 2 57t6 51q34 216 193 359t358 143q179 0 286 -103.5t107 -277.5q0 -29 -7 -88z
M924 569v23q0 112 -68 174.5t-188 62.5q-121 0 -216.5 -70.5t-127.5 -189.5h600z" />
    <glyph glyph-name="afii10071" unicode="&#x451;" horiz-adv-x="1063" 
d="M1022 1233q-6 -42 -38.5 -70t-74.5 -28q-36 0 -61 24t-25 60q0 1 1 5.5t1 8.5q6 39 40 67.5t75 28.5q37 0 60.5 -22.5t23.5 -57.5q0 -2 -1 -7.5t-1 -8.5zM629 1233q-6 -42 -38.5 -70t-74.5 -28q-36 0 -61 24t-25 60q0 1 1 5.5t1 8.5q6 39 40 67.5t75 28.5
q37 0 60.5 -22.5t23.5 -57.5q0 -2 -1 -7.5t-1 -8.5zM1077 510l-8 -57l-768 -1q-1 -9 -1.5 -21t-0.5 -34q0 -130 69 -201t193 -71q105 0 185.5 42t136.5 126l125 -72q-87 -125 -205.5 -188.5t-267.5 -63.5q-188 0 -295 108.5t-107 297.5q0 30 2 57t6 51q34 216 193 359
t358 143q179 0 286 -103.5t107 -277.5q0 -29 -7 -88zM924 569v23q0 112 -68 174.5t-188 62.5q-121 0 -216.5 -70.5t-127.5 -189.5h600z" />
    <glyph glyph-name="afii10072" unicode="&#x436;" horiz-adv-x="1458" 
d="M1567 956l-498 -432l383 -524h-203l-358 504l-80 -504h-164l80 504l-518 -504h-203l551 524l-362 432h194l342 -426l68 426h164l-68 -426l477 426h195z" />
    <glyph glyph-name="afii10073" unicode="&#x437;" horiz-adv-x="754" 
d="M803 727q-14 -92 -64.5 -146.5t-140.5 -76.5q66 -21 99.5 -71.5t33.5 -127.5q0 -11 -1 -24t-3 -33q-20 -127 -126 -203t-269 -76q-78 0 -136.5 15.5t-127.5 56.5l26 168q54 -42 114 -62t132 -20q95 0 155.5 38t71.5 107q1 5 1.5 11t0.5 18q0 72 -54.5 116t-154.5 48
l13 80q125 6 187.5 44t74.5 114q1 4 1.5 8t0.5 12q0 52 -47 78t-137 26q-69 0 -138.5 -20.5t-134.5 -61.5l27 170q67 35 138 52.5t147 17.5q152 0 233.5 -55t81.5 -158q0 -12 -3 -39q-1 -4 -1 -6z" />
    <glyph glyph-name="afii10074" unicode="&#x438;" horiz-adv-x="1081" 
d="M1106 999l-158 -999h-164l99 627l-752 -670l158 999h164l-99 -622z" />
    <glyph glyph-name="afii10075" unicode="&#x439;" horiz-adv-x="1081" 
d="M1055 1303q-47 -123 -136 -187.5t-212 -64.5q-125 0 -196 66.5t-71 185.5l119 36q2 -87 45 -138.5t119 -51.5q77 0 138.5 54t84.5 136zM1106 999l-158 -999h-164l99 627l-752 -670l158 999h164l-99 -622z" />
    <glyph glyph-name="afii10076" unicode="&#x43a;" horiz-adv-x="963" 
d="M1071 956l-498 -432l383 -524h-202l-359 504l-80 -504h-163l151 956h164l-68 -426l478 426h194z" />
    <glyph glyph-name="afii10077" unicode="&#x43b;" horiz-adv-x="1047" 
d="M1055 956l-152 -956h-164l129 809h-399l-74 -455q-36 -220 -112.5 -302.5t-266.5 -82.5l23 148q98 0 134.5 47t59.5 192l95 600h727z" />
    <glyph glyph-name="afii10078" unicode="&#x43c;" horiz-adv-x="1188" 
d="M1116 0h-170l-2 510l-356 -553l-185 553l-161 -510h-170l336 999l231 -710l457 710z" />
    <glyph glyph-name="afii10079" unicode="&#x43d;" horiz-adv-x="1049" 
d="M1057 956l-152 -956h-166l70 438h-432l-70 -438h-164l152 956h164l-58 -362h433l57 362h166z" />
    <glyph glyph-name="afii10080" unicode="&#x43e;" horiz-adv-x="1151" 
d="M1161 481q-34 -213 -206 -362.5t-386 -149.5q-189 0 -311.5 121t-122.5 307q0 20 1.5 41.5t4.5 42.5q34 214 203.5 359t384.5 145q192 0 315 -119t123 -303q0 -20 -1.5 -40t-4.5 -42zM997 481q3 11 3.5 23.5t0.5 38.5q0 127 -82.5 206.5t-211.5 79.5q-149 0 -263.5 -98.5
t-138.5 -249.5q-2 -11 -3 -23.5t-1 -37.5q0 -130 83 -212.5t212 -82.5q147 0 262 101.5t139 254.5z" />
    <glyph glyph-name="afii10081" unicode="&#x43f;" horiz-adv-x="1049" 
d="M1057 956l-152 -956h-166l127 801h-432l-127 -801h-164l152 956h762z" />
    <glyph glyph-name="afii10082" unicode="&#x440;" 
d="M1194 485q-36 -226 -188.5 -371t-352.5 -145q-119 0 -200 48t-117 141l-109 -690h-164l236 1488h164l-23 -145q64 84 159 129t210 45q178 0 285.5 -110t107.5 -291q0 -27 -2 -51t-6 -48zM1026 483q3 18 4.5 36t1.5 36q0 126 -74 200t-198 74q-144 0 -245 -91.5
t-126 -248.5q-3 -20 -4.5 -38.5t-1.5 -34.5q0 -131 76 -210t198 -79q138 0 241 99t128 257z" />
    <glyph glyph-name="afii10083" unicode="&#x441;" horiz-adv-x="975" 
d="M1022 920l-27 -175q-50 40 -118 62t-138 22q-170 0 -289 -98.5t-145 -261.5q-2 -11 -3 -23.5t-1 -35.5q0 -129 89.5 -206t238.5 -77q79 0 155.5 22.5t137.5 63.5l-27 -174q-69 -35 -148 -52.5t-165 -17.5q-203 0 -326 114.5t-123 301.5q0 15 1.5 33.5t6.5 56.5
q36 225 208 367.5t409 142.5q82 0 146.5 -16t117.5 -49z" />
    <glyph glyph-name="afii10084" unicode="&#x442;" horiz-adv-x="659" 
d="M791 956l-25 -155h-225l-127 -801h-164l127 801h-230l25 155h619z" />
    <glyph glyph-name="afii10085" unicode="&#x443;" horiz-adv-x="1020" 
d="M1133 956l-857 -1488h-182l342 579l-264 909h178l199 -720l403 720h181z" />
    <glyph glyph-name="afii10086" unicode="&#x444;" horiz-adv-x="1286" 
d="M1296 481q-33 -207 -187 -335.5t-384 -145.5l-84 -532h-164l84 532q-198 11 -313 116t-115 277q0 27 8 83v5q33 207 189 334.5t383 141.5l116 733h164l-116 -734q196 -13 311 -117t115 -274q0 -19 -2 -41t-5 -43zM1133 479q2 11 3 23t1 35q0 118 -78 190t-207 73
l-102 -644q154 2 256.5 88t126.5 235zM688 800q-151 -3 -255.5 -89.5t-127.5 -231.5q-3 -19 -4.5 -35.5t-1.5 -31.5q0 -120 76 -187.5t211 -68.5z" />
    <glyph glyph-name="afii10087" unicode="&#x445;" horiz-adv-x="1020" 
d="M1112 956l-428 -458l307 -498h-196l-228 385l-344 -385h-194l460 498l-276 458h195l202 -350l305 350h197z" />
    <glyph glyph-name="afii10088" unicode="&#x446;" horiz-adv-x="1044" 
d="M1059 956l-129 -809h82l-74 -475h-164l51 328h-688l152 956h164l-129 -809h442l129 809h164z" />
    <glyph glyph-name="afii10089" unicode="&#x447;" horiz-adv-x="1036" 
d="M1044 956l-151 -956h-164l59 377q-47 -33 -110 -51.5t-129 -18.5q-163 0 -241.5 74.5t-78.5 226.5q0 25 2.5 56t8.5 70l34 222h164l-35 -215q-4 -24 -6 -48.5t-2 -49.5q0 -94 43 -137t140 -43q70 0 129.5 21.5t107.5 64.5l66 407h163z" />
    <glyph glyph-name="afii10090" unicode="&#x448;" horiz-adv-x="1565" 
d="M1573 956l-152 -956h-1278l152 956h164l-129 -809h393l129 809h164l-129 -809h393l129 809h164z" />
    <glyph glyph-name="afii10091" unicode="&#x449;" horiz-adv-x="1569" 
d="M1573 956l-129 -809h82l-74 -475h-164l51 328h-1196l152 956h164l-129 -809h393l129 809h164l-129 -809h393l129 809h164z" />
    <glyph glyph-name="afii10092" unicode="&#x44a;" horiz-adv-x="975" 
d="M940 297q-23 -150 -128.5 -223.5t-299.5 -73.5h-246l127 801h-246l25 155h410l-58 -362h84q171 0 254.5 -58t83.5 -176q0 -15 -1.5 -30.5t-4.5 -32.5zM776 296q1 7 1.5 14.5t0.5 21.5q0 61 -44 87.5t-150 26.5h-82l-49 -299h82q118 0 173.5 35.5t67.5 113.5z" />
    <glyph glyph-name="afii10093" unicode="&#x44b;" horiz-adv-x="1260" 
d="M1274 956l-152 -956h-166l152 956h166zM827 296q-23 -148 -132 -222t-306 -74h-252l152 956h164l-58 -366h90q176 0 261 -57.5t85 -174.5q0 -24 -1 -37t-3 -25zM661 296q2 7 2.5 13t0.5 19q0 60 -48 87t-157 27h-88l-47 -295h88q121 0 179 36t70 113z" />
    <glyph glyph-name="afii10094" unicode="&#x44c;" horiz-adv-x="852" 
d="M817 296q-23 -149 -128.5 -222.5t-299.5 -73.5h-246l152 956h164l-58 -362h84q171 0 254.5 -58t83.5 -176q0 -15 -1.5 -30.5t-4.5 -33.5zM653 296q1 7 1.5 14.5t0.5 21.5q0 61 -44 87.5t-150 26.5h-82l-49 -299h82q118 0 173.5 35.5t67.5 113.5z" />
    <glyph glyph-name="afii10095" unicode="&#x44d;" horiz-adv-x="975" 
d="M985 475q-35 -223 -203 -364.5t-397 -141.5q-87 0 -160.5 17.5t-132.5 52.5l27 174q48 -41 118.5 -63.5t149.5 -22.5q151 0 264.5 78.5t153.5 210.5h-498l25 147h491q-9 124 -95.5 195t-229.5 71q-70 0 -145 -22.5t-136 -61.5l27 175q63 33 133 49t151 16q211 0 338 -115
t127 -305q0 -15 -1.5 -33.5t-6.5 -56.5z" />
    <glyph glyph-name="afii10096" unicode="&#x44e;" horiz-adv-x="1622" 
d="M1632 481q-34 -213 -206 -362.5t-386 -149.5q-188 0 -311 121t-123 307q0 16 0.5 24.5t1.5 16.5h-231l-70 -438h-164l152 956h164l-58 -362h242q66 174 220.5 282.5t336.5 108.5q192 0 315 -119t123 -303q0 -20 -1.5 -40t-4.5 -42zM1468 481q3 11 4 23.5t1 38.5
q0 127 -83 206.5t-212 79.5q-149 0 -263.5 -98.5t-138.5 -249.5q-2 -11 -3 -23.5t-1 -37.5q0 -130 83 -212.5t212 -82.5q147 0 262 101.5t139 254.5z" />
    <glyph glyph-name="afii10097" unicode="&#x44f;" horiz-adv-x="803" 
d="M811 956l-152 -956h-163l65 418l-342 -418h-199l381 434q-93 12 -147.5 67t-54.5 136q0 7 1 16.5t3 22.5q21 137 124 208.5t281 71.5h203zM625 809h-54q-93 0 -142 -31t-60 -98q-1 -4 -1.5 -9.5t-0.5 -15.5q0 -48 40 -70t125 -22h54z" />
    <glyph glyph-name="afii10101" unicode="&#x454;" horiz-adv-x="975" 
d="M1022 920l-27 -175q-50 40 -118 62t-138 22q-143 0 -251.5 -70.5t-155.5 -195.5h491l-24 -147h-498v-6q0 -129 89.5 -206t238.5 -77q79 0 155.5 22.5t137.5 63.5l-27 -174q-69 -35 -148 -52.5t-165 -17.5q-203 0 -326 114.5t-123 301.5q0 15 1.5 33.5t6.5 56.5
q36 225 208 367.5t409 142.5q82 0 146.5 -16t117.5 -49z" />
    <glyph glyph-name="afii10104" unicode="&#x457;" horiz-adv-x="537" 
d="M727 1233q-6 -42 -38.5 -70t-74.5 -28q-36 0 -61 24t-25 60q0 1 1 5.5t1 8.5q6 39 40.5 67.5t74.5 28.5q37 0 60.5 -22.5t23.5 -57.5q0 -3 -1 -8.5t-1 -7.5zM395 1233q-6 -42 -38.5 -70t-73.5 -28q-37 0 -61.5 24t-24.5 60q0 2 1 6.5t1 7.5q6 39 40 67.5t74 28.5
q37 0 60.5 -22.5t23.5 -57.5q0 -3 -1 -8t-1 -8zM502 956l-152 -956h-164l152 956h164z" />
    <glyph glyph-name="afii10103" unicode="&#x456;" horiz-adv-x="537" 
d="M592 1333q-8 -46 -46.5 -79t-84.5 -33q-41 0 -68.5 27t-27.5 67q0 3 1 9.5t1 8.5q7 46 46 79.5t85 33.5q41 0 68.5 -27t27.5 -67q0 -3 -1 -9t-1 -10zM502 956l-152 -956h-164l152 956h164z" />
    <glyph glyph-name="afii10098" unicode="&#x491;" horiz-adv-x="655" 
d="M842 1270l-72 -461h-334l-129 -809h-164l152 956h334l49 314h164z" />
    <glyph glyph-name="afii10108" unicode="&#x45b;" horiz-adv-x="1081" 
d="M1036 616l-98 -616h-164l90 571q4 22 6 44.5t2 46.5q0 91 -41.5 134.5t-130.5 43.5q-123 0 -203.5 -97.5t-109.5 -283.5l-72 -459h-163l196 1247h-151l20 119h152l51 324h164l-52 -324h328l-20 -119h-328l-68 -432q57 85 140.5 127.5t193.5 42.5q126 0 196 -72t70 -204
q0 -25 -2 -48t-6 -45z" />
    <glyph glyph-name="afii10099" unicode="&#x452;" horiz-adv-x="1081" 
d="M1036 616l-121 -759q-37 -233 -129.5 -321.5t-293.5 -88.5l24 147q112 0 162.5 57.5t73.5 203.5l112 716q4 22 6 44.5t2 46.5q0 91 -41.5 134.5t-130.5 43.5q-123 0 -203.5 -97.5t-109.5 -283.5l-72 -459h-163l196 1247h-151l20 119h152l51 324h164l-52 -324h328
l-20 -119h-328l-68 -432q57 85 140.5 127.5t193.5 42.5q126 0 196 -72t70 -204q0 -25 -2 -48t-6 -45z" />
    <glyph glyph-name="afii10193" unicode="&#x45f;" horiz-adv-x="1049" 
d="M1057 956l-152 -956h-297l-51 -328h-166l51 328h-299l152 956h164l-129 -809h432l129 809h166z" />
    <glyph glyph-name="afii10105" unicode="&#x458;" horiz-adv-x="537" 
d="M592 1333q-8 -46 -46.5 -79t-84.5 -33q-41 0 -68.5 27t-27.5 67q0 3 1 9.5t1 8.5q7 46 46 79.5t85 33.5q41 0 68.5 -27t27.5 -67q0 -3 -1 -9t-1 -10zM502 956l-236 -1488h-164l236 1488h164z" />
    <glyph glyph-name="afii10106" unicode="&#x459;" horiz-adv-x="1346" 
d="M1311 297q-24 -150 -129 -223.5t-299 -73.5h-246l129 809h-297l-74 -455q-36 -220 -112.5 -302.5t-266.5 -82.5l23 148q98 0 134.5 47t59.5 192l95 600h624l-57 -362h84q171 0 254.5 -58t83.5 -176q0 -14 -1.5 -29.5t-4.5 -33.5zM1147 297q1 7 1.5 14t0.5 21
q0 61 -44 87.5t-151 26.5h-82l-49 -299h82q119 0 174 35.5t68 114.5z" />
    <glyph glyph-name="afii10107" unicode="&#x45a;" horiz-adv-x="1346" 
d="M1311 297q-24 -150 -129 -223.5t-299 -73.5h-246l70 438h-330l-70 -438h-164l152 956h164l-58 -362h330l57 362h164l-57 -362h84q171 0 254.5 -58t83.5 -176q0 -14 -1.5 -29.5t-4.5 -33.5zM1147 297q1 7 1.5 14t0.5 21q0 61 -44 87.5t-151 26.5h-82l-49 -299h82
q119 0 174 35.5t68 114.5z" />
    <glyph glyph-name="afii10102" unicode="&#x455;" horiz-adv-x="817" 
d="M825 805l-147 -82q-18 61 -53.5 89t-94.5 28q-69 0 -113 -31.5t-53 -86.5q-1 -4 -1.5 -8.5t-0.5 -13.5q0 -45 37 -77.5t127 -63.5q134 -46 194 -105.5t60 -146.5q0 -9 -0.5 -18.5t-3.5 -30.5q-21 -132 -129 -210.5t-274 -78.5q-125 0 -204.5 51t-102.5 146l153 88
q18 -69 64 -103t123 -34q83 0 138.5 35t65.5 95q1 7 1.5 14t0.5 20q0 44 -42 76t-154 75q-109 42 -162 102.5t-53 141.5q0 8 0.5 16.5t3.5 26.5q20 124 113 195t241 71q107 0 172 -44t94 -136z" />
    <glyph glyph-name="afii10052" unicode="&#x403;" horiz-adv-x="768" 
d="M987 1544l-24 -158h-412l-219 -1386h-172l243 1544h584zM825 1929l-336 -270l-51 66l315 301z" />
    <glyph glyph-name="afii10100" unicode="&#x453;" horiz-adv-x="655" 
d="M793 956l-23 -147h-334l-129 -809h-164l152 956h498zM769 1339l-336 -270l-51 66l315 301z" />
    <glyph glyph-name="afii10061" unicode="&#x40c;" horiz-adv-x="1251" 
d="M1442 1544l-793 -727l578 -817h-219l-549 799l-127 -799h-172l243 1544h172l-112 -723l772 723h207zM1067 1929l-336 -270l-51 66l315 301z" />
    <glyph glyph-name="afii10109" unicode="&#x45c;" horiz-adv-x="963" 
d="M1071 956l-498 -432l383 -524h-202l-359 504l-80 -504h-163l151 956h164l-68 -426l478 426h194zM922 1339l-336 -270l-51 66l315 301z" />
    <glyph glyph-name="afii10062" unicode="&#x40e;" horiz-adv-x="1133" 
d="M1389 1544l-975 -1544h-185l406 643l-402 901h193l319 -733l459 733h185zM1088 1936q-47 -124 -134.5 -188t-209.5 -64q-126 0 -198.5 67t-72.5 185l119 36q2 -87 45.5 -138.5t120.5 -51.5t138.5 54t84.5 136z" />
    <glyph glyph-name="Euro" horiz-adv-x="1262" 
d="M1425 1440l-28 -180q-98 90 -184.5 127.5t-192.5 37.5q-164 0 -292 -118.5t-198 -333.5h709l-41 -90h-694q-5 -19 -9 -42t-12 -71q-4 -25 -7 -48t-5 -46h639l-41 -90h-604v-8q0 -217 91 -338t253 -121q113 0 210 36t224 130l-29 -185q-112 -65 -218 -98t-205 -33
q-232 0 -362 156t-130 434v27h-188l41 90h151q1 16 4 36t10 60q1 4 2 12q12 68 19 98l-180 1l41 90h163q86 281 268 441.5t410 160.5q120 0 208 -30.5t177 -104.5z" />
    <glyph glyph-name="Euro" unicode="&#x20ac;" horiz-adv-x="1262" 
d="M1425 1440l-28 -180q-98 90 -184.5 127.5t-192.5 37.5q-164 0 -292 -118.5t-198 -333.5h709l-41 -90h-694q-5 -19 -9 -42t-12 -71q-4 -25 -7 -48t-5 -46h639l-41 -90h-604v-8q0 -217 91 -338t253 -121q113 0 210 36t224 130l-29 -185q-112 -65 -218 -98t-205 -33
q-232 0 -362 156t-130 434v27h-188l41 90h151q1 16 4 36t10 60q1 4 2 12q12 68 19 98l-180 1l41 90h163q86 281 268 441.5t410 160.5q120 0 208 -30.5t177 -104.5z" />
    <glyph glyph-name="afii10110" unicode="&#x45e;" horiz-adv-x="1020" 
d="M1133 956l-857 -1488h-182l342 579l-264 909h178l199 -720l403 720h181zM1030 1346q-47 -124 -134.5 -188t-209.5 -64q-126 0 -198.5 67t-72.5 185l119 36q2 -87 45.5 -138.5t120.5 -51.5t138.5 54t84.5 136z" />
    <glyph glyph-name="c8074" horiz-adv-x="592" 
d="M698 1505l-338 -516l-94 39l279 547z" />
    <glyph glyph-name="longdash" unicode="&#x2015;" horiz-adv-x="2048" 
d="M1939 608l-20 -131h-1638l20 131h1638z" />
    <glyph glyph-name="c6465" horiz-adv-x="956" 
d="M971 1249q0 -47 -34 -80.5t-81 -33.5q-38 0 -62 23t-24 59q0 44 35.5 78t81.5 34q37 0 60.5 -22.5t23.5 -57.5zM578 1247q0 -46 -34.5 -79t-80.5 -33q-37 0 -61.5 23t-24.5 59q0 44 35 78t82 34q37 0 60.5 -23t23.5 -59z" />
    <glyph glyph-name="c6466" horiz-adv-x="979" 
d="M1010 1346q-47 -124 -134.5 -188t-209.5 -64q-126 0 -198.5 67t-72.5 185l119 36q2 -87 45.5 -138.5t120.5 -51.5t138.5 54t84.5 136z" />
    <glyph glyph-name="hookabovecomb" unicode="&#x309;" horiz-adv-x="890" 
d="M750 1504q54 46 90 98t43 96q1 5 1.5 9.5t0.5 13.5q0 37 -28.5 54t-90.5 17l15 96q114 0 163.5 -28.5t49.5 -93.5q0 -10 -2 -32q-1 -3 -1 -5q-9 -54 -53.5 -115.5t-110.5 -109.5h-77z" />
    <glyph glyph-name="uniF012" unicode="&#xf012;" horiz-adv-x="1114" 
d="M690 1106q54 46 90 98t43 96q1 5 1.5 9.5t0.5 13.5q0 37 -28.5 54t-90.5 17l15 96q114 0 163.5 -28.5t49.5 -93.5q0 -10 -2 -32q-1 -3 -1 -5q-9 -54 -53.5 -115.5t-110.5 -109.5h-77z" />
    <glyph glyph-name="uniF010" unicode="&#xf010;" horiz-adv-x="1417" 
d="M950 1887q54 30 90 64t43 63q1 3 1.5 6t0.5 9q0 24 -28.5 35t-90.5 11l15 63q114 0 163.5 -18.5t49.5 -60.5q0 -8 -2 -22q-1 -2 -1 -3q-9 -35 -53.5 -75t-110.5 -72h-77z" />
    <glyph glyph-name="uniF02D" unicode="&#xf02d;" horiz-adv-x="1460" 
d="M1372 2087q-47 -62 -102.5 -92.5t-121.5 -30.5q-32 0 -65.5 9.5t-74.5 31.5q-6 3 -13 7q-72 40 -107 40q-39 0 -66.5 -13.5t-64.5 -56.5l-67 35q47 61 100 90.5t119 29.5q33 0 68 -9.5t75 -31.5q7 -3 21 -11q67 -35 98 -35q41 0 70 14t65 56z" />
    <glyph glyph-name="tildecomb" unicode="&#x303;" horiz-adv-x="1287" 
d="M1132 1602q-47 -80 -102.5 -119t-121.5 -39q-32 0 -65.5 12.5t-74.5 40.5q-6 4 -13 9q-72 51 -107 51q-39 0 -66.5 -17.5t-64.5 -72.5l-67 45q47 79 100 117t119 38q33 0 68 -12.5t75 -40.5q7 -4 21 -14q67 -45 98 -45q41 0 70 18t65 72z" />
    <glyph glyph-name="uniF02C" unicode="&#xf02c;" horiz-adv-x="881" 
d="M561 -283q-8 -49 -48.5 -84t-89.5 -35q-43 0 -72.5 29t-29.5 72q0 3 1 9t1 9q8 49 48 84t89 35q44 0 73.5 -28.5t29.5 -72.5q0 -2 -1 -8t-1 -10z" />
    <glyph glyph-name="dotbelowcomb" unicode="&#x323;" horiz-adv-x="1322" 
d="M781 -283q-8 -49 -48.5 -84t-89.5 -35q-43 0 -72.5 29t-29.5 72q0 3 1 9t1 9q8 49 48 84t89 35q44 0 73.5 -28.5t29.5 -72.5q0 -2 -1 -8t-1 -10z" />
    <glyph glyph-name="gravecomb" unicode="&#x300;" horiz-adv-x="1088" 
d="M734 1505l-74 -66l-248 270l99 97z" />
    <glyph glyph-name="uni046E" unicode="&#x46e;" horiz-adv-x="1304" 
d="M1098 1927l-74 -49l-248 199l99 72z" />
    <glyph glyph-name="acutecomb" unicode="&#x301;" horiz-adv-x="890" 
d="M1217 1649l-336 -270l-51 66l315 301z" />
    <glyph glyph-name="uniF006" unicode="&#xf006;" horiz-adv-x="890" 
d="M1467 2078l-336 -191l-51 47l315 212z" />
    <glyph glyph-name="uni047B" unicode="&#x47b;" horiz-adv-x="1451" 
d="M1280 1836q-45 -92 -125.5 -137t-201.5 -45q-122 0 -186 46.5t-66 135.5l86 20q6 -59 52 -88.5t130 -29.5t141.5 29.5t90.5 88.5z" />
    <glyph glyph-name="uni047C" unicode="&#x47c;" horiz-adv-x="890" 
d="M569 1654l-67 -45l-197 132l-258 -132l-47 45l332 194z" />
    <glyph glyph-name="uni1EA3" unicode="&#x1ea3;" 
d="M1186 956l-152 -956h-164l25 158q-64 -93 -160 -141t-215 -48q-173 0 -279 113t-106 299q0 28 2 54t6 50q35 221 186.5 360.5t354.5 139.5q115 0 196.5 -45t118.5 -129l23 145h164zM948 489q3 20 4.5 38.5t1.5 35.5q0 124 -72.5 195t-197.5 71q-143 0 -247.5 -94.5
t-129.5 -251.5q-3 -20 -4.5 -39t-1.5 -36q0 -128 72.5 -204.5t191.5 -76.5q141 0 249.5 101.5t133.5 260.5zM690 1106q54 46 90 98t43 96q1 5 1.5 9.5t0.5 13.5q0 37 -28.5 54t-90.5 17l15 96q114 0 163.5 -28.5t49.5 -93.5q0 -10 -2 -32q-1 -3 -1 -5q-9 -54 -53.5 -115.5
t-110.5 -109.5h-77z" />
    <glyph glyph-name="uni1EA2" unicode="&#x1ea2;" horiz-adv-x="1432" 
d="M1427 0h-190l-127 467h-641l-273 -467h-190l962 1587zM1071 614l-162 596l-350 -596h512zM908 1715q54 46 90 98t43 96q1 5 1.5 9.5t0.5 13.5q0 37 -28.5 54t-90.5 17l15 96q114 0 163.5 -28.5t49.5 -93.5q0 -10 -2 -32q-1 -3 -1 -5q-9 -54 -53.5 -115.5t-110.5 -109.5
h-77z" />
    <glyph glyph-name="uni1EA1" unicode="&#x1ea1;" 
d="M1186 956l-152 -956h-164l25 158q-64 -93 -160 -141t-215 -48q-173 0 -279 113t-106 299q0 28 2 54t6 50q35 221 186.5 360.5t354.5 139.5q115 0 196.5 -45t118.5 -129l23 145h164zM948 489q3 20 4.5 38.5t1.5 35.5q0 124 -72.5 195t-197.5 71q-143 0 -247.5 -94.5
t-129.5 -251.5q-3 -20 -4.5 -39t-1.5 -36q0 -128 72.5 -204.5t191.5 -76.5q141 0 249.5 101.5t133.5 260.5zM561 -283q-8 -49 -48.5 -84t-89.5 -35q-43 0 -72.5 29t-29.5 72q0 3 1 9t1 9q8 49 48 84t89 35q44 0 73.5 -28.5t29.5 -72.5q0 -2 -1 -8t-1 -10z" />
    <glyph glyph-name="uni1EA0" unicode="&#x1ea0;" horiz-adv-x="1432" 
d="M1427 0h-190l-127 467h-641l-273 -467h-190l962 1587zM1071 614l-162 596l-350 -596h512zM791 -283q-8 -49 -48.5 -84t-89.5 -35q-43 0 -72.5 29t-29.5 72q0 3 1 9t1 9q8 49 48 84t89 35q44 0 73.5 -28.5t29.5 -72.5q0 -2 -1 -8t-1 -10z" />
    <glyph glyph-name="uni1EB1" unicode="&#x1eb1;" 
d="M1186 956l-152 -956h-164l25 158q-64 -93 -160 -141t-215 -48q-173 0 -279 113t-106 299q0 28 2 54t6 50q35 221 186.5 360.5t354.5 139.5q115 0 196.5 -45t118.5 -129l23 145h164zM948 489q3 20 4.5 38.5t1.5 35.5q0 124 -72.5 195t-197.5 71q-143 0 -247.5 -94.5
t-129.5 -251.5q-3 -20 -4.5 -39t-1.5 -36q0 -128 72.5 -204.5t191.5 -76.5q141 0 249.5 101.5t133.5 260.5zM1052 1341q-45 -125 -125.5 -186t-201.5 -61q-122 0 -186 63t-66 184l86 27q6 -80 52 -120t130 -40t141.5 40t90.5 120zM844 1505l-74 -66l-248 270l99 97z" />
    <glyph glyph-name="uni1EB0" unicode="&#x1eb0;" horiz-adv-x="1432" 
d="M1427 0h-190l-127 467h-641l-273 -467h-190l962 1587zM1071 614l-162 596l-350 -596h512zM1290 1836q-45 -92 -125.5 -137t-201.5 -45q-122 0 -186 46.5t-66 135.5l86 20q6 -59 52 -88.5t130 -29.5t141.5 29.5t90.5 88.5zM1078 1887l-74 -49l-248 199l99 72z" />
    <glyph glyph-name="uni1EB3" unicode="&#x1eb3;" 
d="M1186 956l-152 -956h-164l25 158q-64 -93 -160 -141t-215 -48q-173 0 -279 113t-106 299q0 28 2 54t6 50q35 221 186.5 360.5t354.5 139.5q115 0 196.5 -45t118.5 -129l23 145h164zM948 489q3 20 4.5 38.5t1.5 35.5q0 124 -72.5 195t-197.5 71q-143 0 -247.5 -94.5
t-129.5 -251.5q-3 -20 -4.5 -39t-1.5 -36q0 -128 72.5 -204.5t191.5 -76.5q141 0 249.5 101.5t133.5 260.5zM1052 1341q-45 -125 -125.5 -186t-201.5 -61q-122 0 -186 63t-66 184l86 27q6 -80 52 -120t130 -40t141.5 40t90.5 120zM750 1504q54 46 90 98t43 96q1 5 1.5 9.5
t0.5 13.5q0 37 -28.5 54t-90.5 17l15 96q114 0 163.5 -28.5t49.5 -93.5q0 -10 -2 -32q-1 -3 -1 -5q-9 -54 -53.5 -115.5t-110.5 -109.5h-77z" />
    <glyph glyph-name="uni1EB2" unicode="&#x1eb2;" horiz-adv-x="1432" 
d="M1427 0h-190l-127 467h-641l-273 -467h-190l962 1587zM1071 614l-162 596l-350 -596h512zM1290 1836q-45 -92 -125.5 -137t-201.5 -45q-122 0 -186 46.5t-66 135.5l86 20q6 -59 52 -88.5t130 -29.5t141.5 29.5t90.5 88.5zM960 1847q54 30 90 64t43 63q1 3 1.5 6t0.5 9
q0 24 -28.5 35t-90.5 11l15 63q114 0 163.5 -18.5t49.5 -60.5q0 -8 -2 -22q-1 -2 -1 -3q-9 -35 -53.5 -75t-110.5 -72h-77z" />
    <glyph glyph-name="uni1EB5" unicode="&#x1eb5;" 
d="M1186 956l-152 -956h-164l25 158q-64 -93 -160 -141t-215 -48q-173 0 -279 113t-106 299q0 28 2 54t6 50q35 221 186.5 360.5t354.5 139.5q115 0 196.5 -45t118.5 -129l23 145h164zM948 489q3 20 4.5 38.5t1.5 35.5q0 124 -72.5 195t-197.5 71q-143 0 -247.5 -94.5
t-129.5 -251.5q-3 -20 -4.5 -39t-1.5 -36q0 -128 72.5 -204.5t191.5 -76.5q141 0 249.5 101.5t133.5 260.5zM1052 1341q-45 -125 -125.5 -186t-201.5 -61q-122 0 -186 63t-66 184l86 27q6 -80 52 -120t130 -40t141.5 40t90.5 120zM1132 1602q-47 -80 -102.5 -119t-121.5 -39
q-32 0 -65.5 12.5t-74.5 40.5q-6 4 -13 9q-72 51 -107 51q-39 0 -66.5 -17.5t-64.5 -72.5l-67 45q47 79 100 117t119 38q33 0 68 -12.5t75 -40.5q7 -4 21 -14q67 -45 98 -45q41 0 70 18t65 72z" />
    <glyph glyph-name="uni1EB4" unicode="&#x1eb4;" horiz-adv-x="1432" 
d="M1427 0h-190l-127 467h-641l-273 -467h-190l962 1587zM1071 614l-162 596l-350 -596h512zM1290 1836q-45 -92 -125.5 -137t-201.5 -45q-122 0 -186 46.5t-66 135.5l86 20q6 -59 52 -88.5t130 -29.5t141.5 29.5t90.5 88.5zM1352 2037q-47 -62 -102.5 -92.5t-121.5 -30.5
q-32 0 -65.5 9.5t-74.5 31.5q-6 3 -13 7q-72 40 -107 40q-39 0 -66.5 -13.5t-64.5 -56.5l-67 35q47 61 100 90.5t119 29.5q33 0 68 -9.5t75 -31.5q7 -3 21 -11q67 -35 98 -35q41 0 70 14t65 56z" />
    <glyph glyph-name="uni1EAF" unicode="&#x1eaf;" 
d="M1186 956l-152 -956h-164l25 158q-64 -93 -160 -141t-215 -48q-173 0 -279 113t-106 299q0 28 2 54t6 50q35 221 186.5 360.5t354.5 139.5q115 0 196.5 -45t118.5 -129l23 145h164zM948 489q3 20 4.5 38.5t1.5 35.5q0 124 -72.5 195t-197.5 71q-143 0 -247.5 -94.5
t-129.5 -251.5q-3 -20 -4.5 -39t-1.5 -36q0 -128 72.5 -204.5t191.5 -76.5q141 0 249.5 101.5t133.5 260.5zM1052 1341q-45 -125 -125.5 -186t-201.5 -61q-122 0 -186 63t-66 184l86 27q6 -80 52 -120t130 -40t141.5 40t90.5 120zM1217 1649l-336 -270l-51 66l315 301z" />
    <glyph glyph-name="uni1EAE" unicode="&#x1eae;" horiz-adv-x="1432" 
d="M1427 0h-190l-127 467h-641l-273 -467h-190l962 1587zM1071 614l-162 596l-350 -596h512zM1290 1836q-45 -92 -125.5 -137t-201.5 -45q-122 0 -186 46.5t-66 135.5l86 20q6 -59 52 -88.5t130 -29.5t141.5 29.5t90.5 88.5zM1357 2038l-336 -191l-51 47l315 212z" />
    <glyph glyph-name="uni1EB7" unicode="&#x1eb7;" 
d="M1186 956l-152 -956h-164l25 158q-64 -93 -160 -141t-215 -48q-173 0 -279 113t-106 299q0 28 2 54t6 50q35 221 186.5 360.5t354.5 139.5q115 0 196.5 -45t118.5 -129l23 145h164zM948 489q3 20 4.5 38.5t1.5 35.5q0 124 -72.5 195t-197.5 71q-143 0 -247.5 -94.5
t-129.5 -251.5q-3 -20 -4.5 -39t-1.5 -36q0 -128 72.5 -204.5t191.5 -76.5q141 0 249.5 101.5t133.5 260.5zM1052 1341q-45 -125 -125.5 -186t-201.5 -61q-122 0 -186 63t-66 184l86 27q6 -80 52 -120t130 -40t141.5 40t90.5 120zM561 -283q-8 -49 -48.5 -84t-89.5 -35
q-43 0 -72.5 29t-29.5 72q0 3 1 9t1 9q8 49 48 84t89 35q44 0 73.5 -28.5t29.5 -72.5q0 -2 -1 -8t-1 -10z" />
    <glyph glyph-name="uni1EB6" unicode="&#x1eb6;" horiz-adv-x="1432" 
d="M1427 0h-190l-127 467h-641l-273 -467h-190l962 1587zM1071 614l-162 596l-350 -596h512zM1300 1931q-45 -125 -125.5 -186t-201.5 -61q-122 0 -186 63t-66 184l86 27q6 -80 52 -120t130 -40t141.5 40t90.5 120zM791 -283q-8 -49 -48.5 -84t-89.5 -35q-43 0 -72.5 29
t-29.5 72q0 3 1 9t1 9q8 49 48 84t89 35q44 0 73.5 -28.5t29.5 -72.5q0 -2 -1 -8t-1 -10z" />
    <glyph glyph-name="uni1EA7" unicode="&#x1ea7;" 
d="M1186 956l-152 -956h-164l25 158q-64 -93 -160 -141t-215 -48q-173 0 -279 113t-106 299q0 28 2 54t6 50q35 221 186.5 360.5t354.5 139.5q115 0 196.5 -45t118.5 -129l23 145h164zM948 489q3 20 4.5 38.5t1.5 35.5q0 124 -72.5 195t-197.5 71q-143 0 -247.5 -94.5
t-129.5 -251.5q-3 -20 -4.5 -39t-1.5 -36q0 -128 72.5 -204.5t191.5 -76.5q141 0 249.5 101.5t133.5 260.5zM1014 1137l-67 -68l-197 201l-258 -201l-47 68l332 295zM734 1505l-74 -66l-248 270l99 97z" />
    <glyph glyph-name="uni1EA6" unicode="&#x1ea6;" horiz-adv-x="1432" 
d="M1427 0h-190l-127 467h-641l-273 -467h-190l962 1587zM1071 614l-162 596l-350 -596h512zM1263 1654l-67 -45l-197 132l-258 -132l-47 45l332 194zM969 1875l-74 -49l-248 199l99 72z" />
    <glyph glyph-name="uni1EA9" unicode="&#x1ea9;" 
d="M1186 956l-152 -956h-164l25 158q-64 -93 -160 -141t-215 -48q-173 0 -279 113t-106 299q0 28 2 54t6 50q35 221 186.5 360.5t354.5 139.5q115 0 196.5 -45t118.5 -129l23 145h164zM948 489q3 20 4.5 38.5t1.5 35.5q0 124 -72.5 195t-197.5 71q-143 0 -247.5 -94.5
t-129.5 -251.5q-3 -20 -4.5 -39t-1.5 -36q0 -128 72.5 -204.5t191.5 -76.5q141 0 249.5 101.5t133.5 260.5zM1014 1137l-67 -68l-197 201l-258 -201l-47 68l332 295zM750 1504q54 46 90 98t43 96q1 5 1.5 9.5t0.5 13.5q0 37 -28.5 54t-90.5 17l15 96q114 0 163.5 -28.5
t49.5 -93.5q0 -10 -2 -32q-1 -3 -1 -5q-9 -54 -53.5 -115.5t-110.5 -109.5h-77z" />
    <glyph glyph-name="uni1EA8" unicode="&#x1ea8;" horiz-adv-x="1432" 
d="M1427 0h-190l-127 467h-641l-273 -467h-190l962 1587zM1071 614l-162 596l-350 -596h512zM1263 1654l-67 -45l-197 132l-258 -132l-47 45l332 194zM1115 1844q54 30 90 64t43 63q1 3 1.5 6t0.5 9q0 24 -28.5 35t-90.5 11l15 63q114 0 163.5 -18.5t49.5 -60.5q0 -8 -2 -22
q-1 -2 -1 -3q-9 -35 -53.5 -75t-110.5 -72h-77z" />
    <glyph glyph-name="uni1EAB" unicode="&#x1eab;" 
d="M1186 956l-152 -956h-164l25 158q-64 -93 -160 -141t-215 -48q-173 0 -279 113t-106 299q0 28 2 54t6 50q35 221 186.5 360.5t354.5 139.5q115 0 196.5 -45t118.5 -129l23 145h164zM948 489q3 20 4.5 38.5t1.5 35.5q0 124 -72.5 195t-197.5 71q-143 0 -247.5 -94.5
t-129.5 -251.5q-3 -20 -4.5 -39t-1.5 -36q0 -128 72.5 -204.5t191.5 -76.5q141 0 249.5 101.5t133.5 260.5zM1014 1137l-67 -68l-197 201l-258 -201l-47 68l332 295zM1132 1602q-47 -80 -102.5 -119t-121.5 -39q-32 0 -65.5 12.5t-74.5 40.5q-6 4 -13 9q-72 51 -107 51
q-39 0 -66.5 -17.5t-64.5 -72.5l-67 45q47 79 100 117t119 38q33 0 68 -12.5t75 -40.5q7 -4 21 -14q67 -45 98 -45q41 0 70 18t65 72z" />
    <glyph glyph-name="uni1EAA" unicode="&#x1eaa;" horiz-adv-x="1432" 
d="M1427 0h-190l-127 467h-641l-273 -467h-190l962 1587zM1071 614l-162 596l-350 -596h512zM1263 1654l-67 -45l-197 132l-258 -132l-47 45l332 194zM1362 2027q-47 -62 -102.5 -92.5t-121.5 -30.5q-32 0 -65.5 9.5t-74.5 31.5q-6 3 -13 7q-72 40 -107 40
q-39 0 -66.5 -13.5t-64.5 -56.5l-67 35q47 61 100 90.5t119 29.5q33 0 68 -9.5t75 -31.5q7 -3 21 -11q67 -35 98 -35q41 0 70 14t65 56z" />
    <glyph glyph-name="uni1EA5" unicode="&#x1ea5;" 
d="M1186 956l-152 -956h-164l25 158q-64 -93 -160 -141t-215 -48q-173 0 -279 113t-106 299q0 28 2 54t6 50q35 221 186.5 360.5t354.5 139.5q115 0 196.5 -45t118.5 -129l23 145h164zM948 489q3 20 4.5 38.5t1.5 35.5q0 124 -72.5 195t-197.5 71q-143 0 -247.5 -94.5
t-129.5 -251.5q-3 -20 -4.5 -39t-1.5 -36q0 -128 72.5 -204.5t191.5 -76.5q141 0 249.5 101.5t133.5 260.5zM1014 1137l-67 -68l-197 201l-258 -201l-47 68l332 295zM1217 1649l-336 -270l-51 66l315 301z" />
    <glyph glyph-name="uni1EA4" unicode="&#x1ea4;" horiz-adv-x="1432" 
d="M1427 0h-190l-127 467h-641l-273 -467h-190l962 1587zM1071 614l-162 596l-350 -596h512zM1263 1654l-67 -45l-197 132l-258 -132l-47 45l332 194zM1467 2028l-336 -191l-51 47l315 212z" />
    <glyph glyph-name="uni1EAD" unicode="&#x1ead;" 
d="M1186 956l-152 -956h-164l25 158q-64 -93 -160 -141t-215 -48q-173 0 -279 113t-106 299q0 28 2 54t6 50q35 221 186.5 360.5t354.5 139.5q115 0 196.5 -45t118.5 -129l23 145h164zM948 489q3 20 4.5 38.5t1.5 35.5q0 124 -72.5 195t-197.5 71q-143 0 -247.5 -94.5
t-129.5 -251.5q-3 -20 -4.5 -39t-1.5 -36q0 -128 72.5 -204.5t191.5 -76.5q141 0 249.5 101.5t133.5 260.5zM1014 1137l-67 -68l-197 201l-258 -201l-47 68l332 295zM621 -283q-8 -49 -48.5 -84t-89.5 -35q-43 0 -72.5 29t-29.5 72q0 3 1 9t1 9q8 49 48 84t89 35
q44 0 73.5 -28.5t29.5 -72.5q0 -2 -1 -8t-1 -10z" />
    <glyph glyph-name="uni1EAC" unicode="&#x1eac;" horiz-adv-x="1432" 
d="M1427 0h-190l-127 467h-641l-273 -467h-190l962 1587zM1071 614l-162 596l-350 -596h512zM1263 1727l-67 -68l-197 201l-258 -201l-47 68l332 295zM791 -283q-8 -49 -48.5 -84t-89.5 -35q-43 0 -72.5 29t-29.5 72q0 3 1 9t1 9q8 49 48 84t89 35q44 0 73.5 -28.5
t29.5 -72.5q0 -2 -1 -8t-1 -10z" />
    <glyph glyph-name="uni1EBB" unicode="&#x1ebb;" horiz-adv-x="1063" 
d="M1077 510l-8 -57l-768 -1q-1 -9 -1.5 -21t-0.5 -34q0 -130 68.5 -200t193.5 -70q106 0 186.5 41.5t135.5 124.5l125 -72q-87 -125 -205.5 -188.5t-267.5 -63.5q-188 0 -295 108.5t-107 297.5q0 30 2 57t6 51q34 216 193 359t358 143q179 0 286 -103.5t107 -277.5
q0 -29 -7 -88zM924 569v23q0 112 -68 174.5t-188 62.5q-121 0 -216.5 -70.5t-127.5 -189.5h600zM690 1106q54 46 90 98t43 96q1 5 1.5 9.5t0.5 13.5q0 37 -28.5 54t-90.5 17l15 96q114 0 163.5 -28.5t49.5 -93.5q0 -10 -2 -32q-1 -3 -1 -5q-9 -54 -53.5 -115.5
t-110.5 -109.5h-77z" />
    <glyph glyph-name="uni1EBA" unicode="&#x1eba;" horiz-adv-x="1094" 
d="M1186 1544l-25 -162h-610l-74 -469h610l-26 -161h-610l-93 -590h611l-27 -162h-782l243 1544h783zM780 1686q54 46 90 98t43 96q1 5 1.5 9.5t0.5 13.5q0 37 -28.5 54t-90.5 17l15 96q114 0 163.5 -28.5t49.5 -93.5q0 -10 -2 -32q-1 -3 -1 -5q-9 -54 -53.5 -115.5
t-110.5 -109.5h-77z" />
    <glyph glyph-name="uni1EBD" unicode="&#x1ebd;" horiz-adv-x="1063" 
d="M1077 510l-8 -57l-768 -1q-1 -9 -1.5 -21t-0.5 -34q0 -130 68.5 -200t193.5 -70q106 0 186.5 41.5t135.5 124.5l125 -72q-87 -125 -205.5 -188.5t-267.5 -63.5q-188 0 -295 108.5t-107 297.5q0 30 2 57t6 51q34 216 193 359t358 143q179 0 286 -103.5t107 -277.5
q0 -29 -7 -88zM924 569v23q0 112 -68 174.5t-188 62.5q-121 0 -216.5 -70.5t-127.5 -189.5h600zM1053 1272q-47 -80 -102.5 -119t-121.5 -39q-32 0 -65.5 12.5t-74.5 40.5q-6 4 -13 9q-72 51 -107 51q-39 0 -66.5 -17.5t-64.5 -72.5l-67 45q47 79 100 117t119 38
q33 0 68 -12.5t75 -40.5q7 -4 21 -14q67 -45 98 -45q41 0 70 18t65 72z" />
    <glyph glyph-name="uni1EBC" unicode="&#x1ebc;" horiz-adv-x="1094" 
d="M1186 1544l-25 -162h-610l-74 -469h610l-26 -161h-610l-93 -590h611l-27 -162h-782l243 1544h783zM1173 1832q-47 -80 -102.5 -119t-121.5 -39q-32 0 -65.5 12.5t-74.5 40.5q-6 4 -13 9q-72 51 -107 51q-39 0 -66.5 -17.5t-64.5 -72.5l-67 45q47 79 100 117t119 38
q33 0 68 -12.5t75 -40.5q7 -4 21 -14q67 -45 98 -45q41 0 70 18t65 72z" />
    <glyph glyph-name="uni1EB9" unicode="&#x1eb9;" horiz-adv-x="1063" 
d="M1077 510l-8 -57l-768 -1q-1 -9 -1.5 -21t-0.5 -34q0 -130 68.5 -200t193.5 -70q106 0 186.5 41.5t135.5 124.5l125 -72q-87 -125 -205.5 -188.5t-267.5 -63.5q-188 0 -295 108.5t-107 297.5q0 30 2 57t6 51q34 216 193 359t358 143q179 0 286 -103.5t107 -277.5
q0 -29 -7 -88zM924 569v23q0 112 -68 174.5t-188 62.5q-121 0 -216.5 -70.5t-127.5 -189.5h600zM561 -283q-8 -49 -48.5 -84t-89.5 -35q-43 0 -72.5 29t-29.5 72q0 3 1 9t1 9q8 49 48 84t89 35q44 0 73.5 -28.5t29.5 -72.5q0 -2 -1 -8t-1 -10z" />
    <glyph glyph-name="uni1EB8" unicode="&#x1eb8;" horiz-adv-x="1094" 
d="M1186 1544l-25 -162h-610l-74 -469h610l-26 -161h-610l-93 -590h611l-27 -162h-782l243 1544h783zM641 -283q-8 -49 -48.5 -84t-89.5 -35q-43 0 -72.5 29t-29.5 72q0 3 1 9t1 9q8 49 48 84t89 35q44 0 73.5 -28.5t29.5 -72.5q0 -2 -1 -8t-1 -10z" />
    <glyph glyph-name="uni1EC1" unicode="&#x1ec1;" horiz-adv-x="1063" 
d="M1077 510l-8 -57l-768 -1q-1 -9 -1.5 -21t-0.5 -34q0 -130 68.5 -200t193.5 -70q106 0 186.5 41.5t135.5 124.5l125 -72q-87 -125 -205.5 -188.5t-267.5 -63.5q-188 0 -295 108.5t-107 297.5q0 30 2 57t6 51q34 216 193 359t358 143q179 0 286 -103.5t107 -277.5
q0 -29 -7 -88zM924 569v23q0 112 -68 174.5t-188 62.5q-121 0 -216.5 -70.5t-127.5 -189.5h600zM997 1137l-67 -68l-197 201l-258 -201l-47 68l332 295zM734 1505l-74 -66l-248 270l99 97z" />
    <glyph glyph-name="uni1EC0" unicode="&#x1ec0;" horiz-adv-x="1094" 
d="M818 1877l-74 -49l-248 199l99 72zM1186 1544l-25 -162h-610l-74 -469h610l-26 -161h-610l-93 -590h611l-27 -162h-782l243 1544h783zM1089 1654l-67 -45l-197 132l-258 -132l-47 45l332 194z" />
    <glyph glyph-name="uni1EC3" unicode="&#x1ec3;" horiz-adv-x="1063" 
d="M1077 510l-8 -57l-768 -1q-1 -9 -1.5 -21t-0.5 -34q0 -130 68.5 -200t193.5 -70q106 0 186.5 41.5t135.5 124.5l125 -72q-87 -125 -205.5 -188.5t-267.5 -63.5q-188 0 -295 108.5t-107 297.5q0 30 2 57t6 51q34 216 193 359t358 143q179 0 286 -103.5t107 -277.5
q0 -29 -7 -88zM924 569v23q0 112 -68 174.5t-188 62.5q-121 0 -216.5 -70.5t-127.5 -189.5h600zM997 1137l-67 -68l-197 201l-258 -201l-47 68l332 295zM750 1504q54 46 90 98t43 96q1 5 1.5 9.5t0.5 13.5q0 37 -28.5 54t-90.5 17l15 96q114 0 163.5 -28.5t49.5 -93.5
q0 -10 -2 -32q-1 -3 -1 -5q-9 -54 -53.5 -115.5t-110.5 -109.5h-77z" />
    <glyph glyph-name="uni1EC2" unicode="&#x1ec2;" horiz-adv-x="1094" 
d="M1186 1544l-25 -162h-610l-74 -469h610l-26 -161h-610l-93 -590h611l-27 -162h-782l243 1544h783zM1099 1654l-67 -45l-197 132l-258 -132l-47 45l332 194zM940 1827q54 30 90 64t43 63q1 3 1.5 6t0.5 9q0 24 -28.5 35t-90.5 11l15 63q114 0 163.5 -18.5t49.5 -60.5
q0 -8 -2 -22q-1 -2 -1 -3q-9 -35 -53.5 -75t-110.5 -72h-77z" />
    <glyph glyph-name="uni1EC5" unicode="&#x1ec5;" horiz-adv-x="1063" 
d="M1077 510l-8 -57l-768 -1q-1 -9 -1.5 -21t-0.5 -34q0 -130 68.5 -200t193.5 -70q106 0 186.5 41.5t135.5 124.5l125 -72q-87 -125 -205.5 -188.5t-267.5 -63.5q-188 0 -295 108.5t-107 297.5q0 30 2 57t6 51q34 216 193 359t358 143q179 0 286 -103.5t107 -277.5
q0 -29 -7 -88zM924 569v23q0 112 -68 174.5t-188 62.5q-121 0 -216.5 -70.5t-127.5 -189.5h600zM997 1137l-67 -68l-197 201l-258 -201l-47 68l332 295zM1132 1602q-47 -80 -102.5 -119t-121.5 -39q-32 0 -65.5 12.5t-74.5 40.5q-6 4 -13 9q-72 51 -107 51
q-39 0 -66.5 -17.5t-64.5 -72.5l-67 45q47 79 100 117t119 38q33 0 68 -12.5t75 -40.5q7 -4 21 -14q67 -45 98 -45q41 0 70 18t65 72z" />
    <glyph glyph-name="uni1EC4" unicode="&#x1ec4;" horiz-adv-x="1094" 
d="M1186 1544l-25 -162h-610l-74 -469h610l-26 -161h-610l-93 -590h611l-27 -162h-782l243 1544h783zM1099 1654l-67 -45l-197 132l-258 -132l-47 45l332 194zM1232 2007q-47 -62 -102.5 -92.5t-121.5 -30.5q-32 0 -65.5 9.5t-74.5 31.5q-6 3 -13 7q-72 40 -107 40
q-39 0 -66.5 -13.5t-64.5 -56.5l-67 35q47 61 100 90.5t119 29.5q33 0 68 -9.5t75 -31.5q7 -3 21 -11q67 -35 98 -35q41 0 70 14t65 56z" />
    <glyph glyph-name="uni1EBF" unicode="&#x1ebf;" horiz-adv-x="1063" 
d="M1077 510l-8 -57l-768 -1q-1 -9 -1.5 -21t-0.5 -34q0 -130 68.5 -200t193.5 -70q106 0 186.5 41.5t135.5 124.5l125 -72q-87 -125 -205.5 -188.5t-267.5 -63.5q-188 0 -295 108.5t-107 297.5q0 30 2 57t6 51q34 216 193 359t358 143q179 0 286 -103.5t107 -277.5
q0 -29 -7 -88zM924 569v23q0 112 -68 174.5t-188 62.5q-121 0 -216.5 -70.5t-127.5 -189.5h600zM997 1137l-67 -68l-197 201l-258 -201l-47 68l332 295zM1217 1649l-336 -270l-51 66l315 301z" />
    <glyph glyph-name="uni1EBE" unicode="&#x1ebe;" horiz-adv-x="1094" 
d="M1186 1544l-25 -162h-610l-74 -469h610l-26 -161h-610l-93 -590h611l-27 -162h-782l243 1544h783zM1099 1654l-67 -45l-197 132l-258 -132l-47 45l332 194zM1317 2018l-336 -191l-51 47l315 212z" />
    <glyph glyph-name="uni1EC7" unicode="&#x1ec7;" horiz-adv-x="1063" 
d="M1077 510l-8 -57l-768 -1q-1 -9 -1.5 -21t-0.5 -34q0 -130 68.5 -200t193.5 -70q106 0 186.5 41.5t135.5 124.5l125 -72q-87 -125 -205.5 -188.5t-267.5 -63.5q-188 0 -295 108.5t-107 297.5q0 30 2 57t6 51q34 216 193 359t358 143q179 0 286 -103.5t107 -277.5
q0 -29 -7 -88zM924 569v23q0 112 -68 174.5t-188 62.5q-121 0 -216.5 -70.5t-127.5 -189.5h600zM997 1137l-67 -68l-197 201l-258 -201l-47 68l332 295zM561 -283q-8 -49 -48.5 -84t-89.5 -35q-43 0 -72.5 29t-29.5 72q0 3 1 9t1 9q8 49 48 84t89 35q44 0 73.5 -28.5
t29.5 -72.5q0 -2 -1 -8t-1 -10z" />
    <glyph glyph-name="uni1EC6" unicode="&#x1ec6;" horiz-adv-x="1094" 
d="M1186 1544l-25 -162h-610l-74 -469h610l-26 -161h-610l-93 -590h611l-27 -162h-782l243 1544h783zM1087 1727l-67 -68l-197 201l-258 -201l-47 68l332 295zM651 -283q-8 -49 -48.5 -84t-89.5 -35q-43 0 -72.5 29t-29.5 72q0 3 1 9t1 9q8 49 48 84t89 35q44 0 73.5 -28.5
t29.5 -72.5q0 -2 -1 -8t-1 -10z" />
    <glyph glyph-name="uniF031" unicode="&#xf031;" horiz-adv-x="537" 
d="M502 956l-152 -956h-164l152 956h164z" />
    <glyph glyph-name="uni1EC9" unicode="&#x1ec9;" horiz-adv-x="537" 
d="M502 956l-152 -956h-164l152 956h164zM370 1106q54 46 90 98t43 96q1 5 1.5 9.5t0.5 13.5q0 37 -28.5 54t-90.5 17l15 96q114 0 163.5 -28.5t49.5 -93.5q0 -10 -2 -32q-1 -3 -1 -5q-9 -54 -53.5 -115.5t-110.5 -109.5h-77z" />
    <glyph glyph-name="uni1EC8" unicode="&#x1ec8;" horiz-adv-x="489" 
d="M575 1544l-243 -1544h-172l243 1544h172zM474 1736q54 46 90 98t43 96q1 5 1.5 9.5t0.5 13.5q0 37 -28.5 54t-90.5 17l15 96q114 0 163.5 -28.5t49.5 -93.5q0 -10 -2 -32q-1 -3 -1 -5q-9 -54 -53.5 -115.5t-110.5 -109.5h-77z" />
    <glyph glyph-name="uni1ECB" unicode="&#x1ecb;" horiz-adv-x="561" 
d="M592 1333q-8 -46 -46.5 -79t-84.5 -33q-41 0 -68.5 27t-27.5 67q0 3 1 9.5t1 8.5q7 46 46 79.5t85 33.5q41 0 68.5 -27t27.5 -67q0 -3 -1 -9t-1 -10zM502 956l-152 -956h-164l152 956h164zM341 -283q-8 -49 -48.5 -84t-89.5 -35q-43 0 -72.5 29t-29.5 72q0 3 1 9t1 9
q8 49 48 84t89 35q44 0 73.5 -28.5t29.5 -72.5q0 -2 -1 -8t-1 -10z" />
    <glyph glyph-name="uni1ECA" unicode="&#x1eca;" horiz-adv-x="475" 
d="M575 1544l-243 -1544h-172l243 1544h172zM337 -283q-8 -49 -48.5 -84t-89.5 -35q-43 0 -72.5 29t-29.5 72q0 3 1 9t1 9q8 49 48 84t89 35q44 0 73.5 -28.5t29.5 -72.5q0 -2 -1 -8t-1 -10z" />
    <glyph glyph-name="uni1ECF" unicode="&#x1ecf;" horiz-adv-x="1151" 
d="M1161 481q-34 -213 -206 -362.5t-386 -149.5q-189 0 -311.5 121t-122.5 307q0 20 1.5 41.5t4.5 42.5q34 214 203.5 359t384.5 145q192 0 315 -119t123 -303q0 -20 -1.5 -40t-4.5 -42zM997 481q3 11 3.5 23.5t0.5 38.5q0 127 -82.5 206.5t-211.5 79.5q-149 0 -263.5 -98.5
t-138.5 -249.5q-2 -11 -3 -23.5t-1 -37.5q0 -130 82.5 -211.5t212.5 -81.5q147 0 262 101t139 253zM700 1106q54 46 90 98t43 96q1 5 1.5 9.5t0.5 13.5q0 37 -28.5 54t-90.5 17l15 96q114 0 163.5 -28.5t49.5 -93.5q0 -10 -2 -32q-1 -3 -1 -5q-9 -54 -53.5 -115.5
t-110.5 -109.5h-77z" />
    <glyph glyph-name="uni1ECE" unicode="&#x1ece;" horiz-adv-x="1765" 
d="M1815 773q-54 -340 -324.5 -572t-611.5 -232q-305 0 -499 189.5t-194 482.5q0 28 2.5 60t8.5 72q53 342 321.5 572t614.5 230q307 0 499.5 -186.5t192.5 -481.5q0 -39 -2.5 -71.5t-7.5 -62.5zM1642 772q5 25 7 51t2 56q0 234 -152 384t-393 150q-286 0 -489.5 -187.5
t-245.5 -453.5q-4 -25 -6.5 -52t-2.5 -56q0 -235 150 -384t391 -149q272 0 485 185.5t254 455.5zM1110 1696q54 46 90 98t43 96q1 5 1.5 9.5t0.5 13.5q0 37 -28.5 54t-90.5 17l15 96q114 0 163.5 -28.5t49.5 -93.5q0 -10 -2 -32q-1 -3 -1 -5q-9 -54 -53.5 -115.5
t-110.5 -109.5h-77z" />
    <glyph glyph-name="uni1ECD" unicode="&#x1ecd;" horiz-adv-x="1151" 
d="M1161 481q-34 -213 -206 -362.5t-386 -149.5q-189 0 -311.5 121t-122.5 307q0 20 1.5 41.5t4.5 42.5q34 214 203.5 359t384.5 145q192 0 315 -119t123 -303q0 -20 -1.5 -40t-4.5 -42zM997 481q3 11 3.5 23.5t0.5 38.5q0 127 -82.5 206.5t-211.5 79.5q-149 0 -263.5 -98.5
t-138.5 -249.5q-2 -11 -3 -23.5t-1 -37.5q0 -130 82.5 -211.5t212.5 -81.5q147 0 262 101t139 253zM581 -283q-8 -49 -48.5 -84t-89.5 -35q-43 0 -72.5 29t-29.5 72q0 3 1 9t1 9q8 49 48 84t89 35q44 0 73.5 -28.5t29.5 -72.5q0 -2 -1 -8t-1 -10z" />
    <glyph glyph-name="uni1ECC" unicode="&#x1ecc;" horiz-adv-x="1765" 
d="M1815 773q-54 -340 -324.5 -572t-611.5 -232q-305 0 -499 189.5t-194 482.5q0 28 2.5 60t8.5 72q53 342 321.5 572t614.5 230q307 0 499.5 -186.5t192.5 -481.5q0 -39 -2.5 -71.5t-7.5 -62.5zM1642 772q5 25 7 51t2 56q0 234 -152 384t-393 150q-286 0 -489.5 -187.5
t-245.5 -453.5q-4 -25 -6.5 -52t-2.5 -56q0 -235 150 -384t391 -149q272 0 485 185.5t254 455.5zM881 -283q-8 -49 -48.5 -84t-89.5 -35q-43 0 -72.5 29t-29.5 72q0 3 1 9t1 9q8 49 48 84t89 35q44 0 73.5 -28.5t29.5 -72.5q0 -2 -1 -8t-1 -10z" />
    <glyph glyph-name="uni1ED3" unicode="&#x1ed3;" horiz-adv-x="1151" 
d="M1161 481q-34 -213 -206 -362.5t-386 -149.5q-189 0 -311.5 121t-122.5 307q0 20 1.5 41.5t4.5 42.5q34 214 203.5 359t384.5 145q192 0 315 -119t123 -303q0 -20 -1.5 -40t-4.5 -42zM997 481q3 11 3.5 23.5t0.5 38.5q0 127 -82.5 206.5t-211.5 79.5q-149 0 -263.5 -98.5
t-138.5 -249.5q-2 -11 -3 -23.5t-1 -37.5q0 -130 82.5 -211.5t212.5 -81.5q147 0 262 101t139 253zM1040 1137l-67 -68l-197 201l-258 -201l-47 68l332 295zM734 1505l-74 -66l-248 270l99 97z" />
    <glyph glyph-name="uni1ED2" unicode="&#x1ed2;" horiz-adv-x="1765" 
d="M1815 773q-54 -340 -324.5 -572t-611.5 -232q-305 0 -499 189.5t-194 482.5q0 28 2.5 60t8.5 72q53 342 321.5 572t614.5 230q307 0 499.5 -186.5t192.5 -481.5q0 -39 -2.5 -71.5t-7.5 -62.5zM1642 772q5 25 7 51t2 56q0 234 -152 384t-393 150q-286 0 -489.5 -187.5
t-245.5 -453.5q-4 -25 -6.5 -52t-2.5 -56q0 -235 150 -384t391 -149q272 0 485 185.5t254 455.5zM1419 1654l-67 -45l-197 132l-258 -132l-47 45l332 194zM1118 1857l-74 -49l-248 199l99 72z" />
    <glyph glyph-name="uni1ED5" unicode="&#x1ed5;" horiz-adv-x="1151" 
d="M1161 481q-34 -213 -206 -362.5t-386 -149.5q-189 0 -311.5 121t-122.5 307q0 20 1.5 41.5t4.5 42.5q34 214 203.5 359t384.5 145q192 0 315 -119t123 -303q0 -20 -1.5 -40t-4.5 -42zM997 481q3 11 3.5 23.5t0.5 38.5q0 127 -82.5 206.5t-211.5 79.5q-149 0 -263.5 -98.5
t-138.5 -249.5q-2 -11 -3 -23.5t-1 -37.5q0 -130 82.5 -211.5t212.5 -81.5q147 0 262 101t139 253zM1040 1137l-67 -68l-197 201l-258 -201l-47 68l332 295zM750 1504q54 46 90 98t43 96q1 5 1.5 9.5t0.5 13.5q0 37 -28.5 54t-90.5 17l15 96q114 0 163.5 -28.5t49.5 -93.5
q0 -10 -2 -32q-1 -3 -1 -5q-9 -54 -53.5 -115.5t-110.5 -109.5h-77z" />
    <glyph glyph-name="uni1ED4" unicode="&#x1ed4;" horiz-adv-x="1765" 
d="M1815 773q-54 -340 -324.5 -572t-611.5 -232q-305 0 -499 189.5t-194 482.5q0 28 2.5 60t8.5 72q53 342 321.5 572t614.5 230q307 0 499.5 -186.5t192.5 -481.5q0 -39 -2.5 -71.5t-7.5 -62.5zM1642 772q5 25 7 51t2 56q0 234 -152 384t-393 150q-286 0 -489.5 -187.5
t-245.5 -453.5q-4 -25 -6.5 -52t-2.5 -56q0 -235 150 -384t391 -149q272 0 485 185.5t254 455.5zM1429 1654l-67 -45l-197 132l-258 -132l-47 45l332 194zM1240 1827q54 30 90 64t43 63q1 3 1.5 6t0.5 9q0 24 -28.5 35t-90.5 11l15 63q114 0 163.5 -18.5t49.5 -60.5
q0 -8 -2 -22q-1 -2 -1 -3q-9 -35 -53.5 -75t-110.5 -72h-77z" />
    </font>
</defs>
</svg>
